<svg width="13" height="21" viewBox="0 0 13 21" fill="none" xmlns="http://www.w3.org/2000/svg">
<path d="M13 16.8521C13 18.7134 10.0904 20.2224 6.5 20.2224C2.90956 20.2224 0 18.7134 0 16.8521C0 15.5022 1.534 14.3412 3.744 13.8027L4.68162 15.3396C4.35581 15.3969 4.02675 15.4534 3.7245 15.5435C1.0335 16.3432 0.918937 17.3206 3.70744 18.1573C5.40394 18.6653 7.58875 18.667 9.29256 18.1564C12.233 17.2742 11.8633 16.2395 9.07481 15.4879C8.83431 15.423 8.57025 15.3885 8.31431 15.3438L9.25356 13.8036C11.466 14.3412 13 15.5022 13 16.8521Z" fill="#356746"/>
<path d="M6.31934 0C3.76159 0 1.44434 2.15114 1.44434 4.80446C1.44434 7.45694 3.55846 10.6243 6.31934 15.1667C9.08021 10.6243 11.1943 7.45694 11.1943 4.80446C11.1943 2.15114 8.8779 0 6.31934 0ZM6.31934 6.74074C5.42152 6.74074 4.69434 5.98662 4.69434 5.05556C4.69434 4.12449 5.42152 3.37037 6.31934 3.37037C7.21715 3.37037 7.94434 4.12449 7.94434 5.05556C7.94434 5.98662 7.21715 6.74074 6.31934 6.74074Z" fill="#356746"/>
</svg>
