<svg width="22" height="20" viewBox="0 0 22 20" fill="none" xmlns="http://www.w3.org/2000/svg">
<path d="M21.4286 8.16909V20H0V8.16909L4.89018 0H16.5589L21.4286 8.16909ZM14.2857 11.8182C14.2857 11.3164 13.8866 10.9091 13.3929 10.9091H8.03571C7.54196 10.9091 7.14286 11.3164 7.14286 11.8182C7.14286 12.32 7.54196 12.7273 8.03571 12.7273H13.3929C13.8866 12.7273 14.2857 12.32 14.2857 11.8182ZM19.3473 8.18182L15.5536 1.81818H5.89286L2.08393 8.18182H19.3473Z" fill="#356746"/>
<path d="M5.00583 6.36293H16.4228L16.9639 7.27202H4.46387L5.00583 6.36293ZM14.2549 2.72656H7.17369L6.63172 3.63565H14.7969L14.2549 2.72656ZM6.08976 4.54474L5.5478 5.45384H15.8808L15.3389 4.54474H6.08976Z" fill="#356746"/>
</svg>
