<svg width="22" height="33" viewBox="0 0 22 33" fill="none" xmlns="http://www.w3.org/2000/svg">
<path d="M21.2142 27.5C21.2142 30.5374 16.4662 33 10.6071 33C4.74799 33 0 30.5374 0 27.5C0 25.2973 2.50327 23.4025 6.10968 22.5239L7.63975 25.0319C7.10807 25.1254 6.57109 25.2175 6.07786 25.3647C1.68653 26.6695 1.49958 28.2645 6.05001 29.6299C8.81846 30.459 12.3838 30.4618 15.1641 29.6285C19.9625 28.1889 19.3592 26.5004 14.8088 25.2739C14.4163 25.168 13.9854 25.1117 13.5678 25.0388L15.1005 22.5253C18.7109 23.4025 21.2142 25.2973 21.2142 27.5Z" fill="#356746"/>
<path d="M10.3127 0C6.13885 0 2.35742 3.51035 2.35742 7.8402C2.35742 12.1687 5.80738 17.3373 10.3127 24.7499C14.8181 17.3373 18.268 12.1687 18.268 7.8402C18.268 3.51035 14.4879 0 10.3127 0ZM10.3127 10.9999C8.84763 10.9999 7.66096 9.76932 7.66096 8.24995C7.66096 6.73059 8.84763 5.49997 10.3127 5.49997C11.7778 5.49997 12.9645 6.73059 12.9645 8.24995C12.9645 9.76932 11.7778 10.9999 10.3127 10.9999Z" fill="#356746"/>
</svg>
