<svg width="21" height="32" viewBox="0 0 21 32" fill="none" xmlns="http://www.w3.org/2000/svg">
<path fill-rule="evenodd" clip-rule="evenodd" d="M10.5 13.3333C9.051 13.3333 7.875 12.1387 7.875 10.6667C7.875 9.19467 9.051 8 10.5 8C11.949 8 13.125 9.19467 13.125 10.6667C13.125 12.1387 11.949 13.3333 10.5 13.3333ZM10.5 6.66667C8.32519 6.66667 6.5625 8.45733 6.5625 10.6667C6.5625 12.876 8.32519 14.6667 10.5 14.6667C12.6748 14.6667 14.4375 12.876 14.4375 10.6667C14.4375 8.45733 12.6748 6.66667 10.5 6.66667ZM1.3125 10.136C1.3125 5.44667 5.60569 1.33333 10.5 1.33333C15.3943 1.33333 19.6875 5.44667 19.6875 10.136C19.6875 14.7427 16.3236 20.1933 10.5 29.5053C4.60819 20.0747 1.3125 14.7427 1.3125 10.136ZM10.5 0C4.99013 0 0 4.53733 0 10.136C0 15.7333 4.55306 22.416 10.5 32C16.4469 22.416 21 15.7333 21 10.136C21 4.53733 16.0112 0 10.5 0Z" fill="#356746"/>
</svg>
