<svg width="23" height="23" viewBox="0 0 23 23" fill="none" xmlns="http://www.w3.org/2000/svg">
<path fill-rule="evenodd" clip-rule="evenodd" d="M11.5 0C17.8514 0 23 5.14865 23 11.5C23 17.8514 17.8514 23 11.5 23C5.14865 23 0 17.8514 0 11.5C0 5.14865 5.14865 0 11.5 0ZM6.41221 11.8059C6.5665 10.9113 7.5876 10.4132 8.39332 10.8979C8.4664 10.9415 8.53611 10.9933 8.60104 11.0527L8.60727 11.0587C8.9688 11.4051 9.37394 11.7657 9.77548 12.1232L10.12 12.4325L14.208 8.1444C14.4521 7.88876 14.6306 7.72345 14.997 7.64103C16.2512 7.36431 17.1331 8.89741 16.2442 9.83442L11.1493 15.1814C10.6694 15.6934 9.81166 15.7401 9.29583 15.2512C9.00019 14.9766 8.67867 14.6972 8.35355 14.4152C7.79053 13.926 7.21625 13.427 6.7481 12.9329C6.46707 12.6522 6.34584 12.1924 6.41221 11.8059Z" fill="#6BBE66"/>
</svg>
