<svg width="71" height="69" viewBox="0 0 71 69" fill="none" xmlns="http://www.w3.org/2000/svg">
<path d="M65.363 54.4143H61.4889V26.036H71L35.5001 0L0 26.036H9.51108V54.4143H5.63703C3.3914 54.4143 1.56473 56.2409 1.56473 58.4864V68.1964H69.4351V58.4864C69.4353 56.2409 67.6086 54.4143 65.363 54.4143ZM8.29155 23.3212L35.5001 3.36713L62.7086 23.3212H8.29155ZM58.7742 26.036V54.4143H51.6365V26.036H58.7742ZM48.9217 26.036V54.4143H41.7841V26.036H48.9217ZM39.0692 26.036V54.4143H31.9315V26.036H39.0692ZM29.2167 26.036V54.4143H22.0784V26.036H29.2167ZM19.3636 26.036V54.4143H12.226V26.036H19.3636ZM66.7204 65.4817H4.27964V58.4866C4.27964 57.7376 4.88871 57.1292 5.63703 57.1292H65.363C66.1113 57.1292 66.7204 57.7377 66.7204 58.4866V65.4817Z" fill="#356746"/>
<path d="M35.4981 9.6709C32.442 9.6709 29.9551 12.1404 29.9551 15.1748C29.9551 18.2091 32.4418 20.6786 35.4981 20.6786C38.5543 20.6786 41.0411 18.2091 41.0411 15.1748C41.0411 12.1406 38.5542 9.6709 35.4981 9.6709ZM35.4981 17.9638C33.9385 17.9638 32.67 16.7125 32.67 15.1748C32.67 13.637 33.9386 12.3857 35.4981 12.3857C37.0577 12.3857 38.3262 13.637 38.3262 15.1748C38.3262 16.7125 37.0576 17.9638 35.4981 17.9638Z" fill="#356746"/>
</svg>
