<svg width="14" height="14" viewBox="0 0 14 14" fill="none" xmlns="http://www.w3.org/2000/svg">
<path d="M11.9501 2.05015C9.2164 -0.68323 4.78413 -0.683535 2.05015 2.05015C-0.683535 4.78383 -0.68323 9.21609 2.05015 11.9501C4.78383 14.6832 9.21609 14.6835 11.9501 11.9501C14.6835 9.21609 14.6832 4.78413 11.9501 2.05015ZM7.91286 10.0436C7.91286 10.5479 7.50412 10.9567 6.99981 10.9567C6.4955 10.9567 6.08676 10.5479 6.08676 10.0436V6.39141C6.08676 5.8871 6.4955 5.47836 6.99981 5.47836C7.50412 5.47836 7.91286 5.8871 7.91286 6.39141V10.0436ZM6.98368 4.8307C6.45776 4.8307 6.10715 4.45817 6.1181 3.9983C6.10715 3.51621 6.45776 3.15494 6.99433 3.15494C7.53121 3.15494 7.87086 3.51651 7.88212 3.9983C7.88182 4.45817 7.53151 4.8307 6.98368 4.8307Z" fill="#959595"/>
</svg>
