<svg width="19" height="19" viewBox="0 0 19 19" fill="none" xmlns="http://www.w3.org/2000/svg">
<path d="M8.60938 1C9.10183 1 9.58956 1.04804 10.0726 1.14411C10.5555 1.24018 11.0245 1.38245 11.4795 1.5709C11.9345 1.75936 12.3667 1.99038 12.7761 2.26398C13.1856 2.53757 13.5645 2.84848 13.9127 3.1967C14.2609 3.54492 14.5718 3.92376 14.8454 4.33322C15.119 4.74269 15.35 5.1749 15.5385 5.62987C15.7269 6.08484 15.8692 6.55383 15.9653 7.03682C16.0613 7.51982 16.1094 8.00754 16.1094 8.5C16.1094 8.99246 16.0613 9.48018 15.9653 9.96318C15.8692 10.4462 15.7269 10.9152 15.5385 11.3701C15.35 11.8251 15.119 12.2573 14.8454 12.6668C14.5718 13.0762 14.2609 13.4551 13.9127 13.8033C13.5645 14.1515 13.1856 14.4624 12.7761 14.736C12.3667 15.0096 11.9345 15.2406 11.4795 15.4291C11.0245 15.6176 10.5555 15.7598 10.0726 15.8559C9.58956 15.952 9.10183 16 8.60938 16C8.11692 16 7.62919 15.952 7.1462 15.8559C6.6632 15.7598 6.19422 15.6176 5.73925 15.4291C5.28428 15.2406 4.85206 15.0096 4.4426 14.736C4.03313 14.4624 3.65429 14.1515 3.30607 13.8033C2.95785 13.4551 2.64695 13.0762 2.37335 12.6668C2.09976 12.2573 1.86873 11.8251 1.68028 11.3701C1.49182 10.9152 1.34956 10.4462 1.25349 9.96318C1.15741 9.48018 1.10938 8.99246 1.10938 8.5C1.10938 8.00754 1.15741 7.51982 1.25349 7.03682C1.34956 6.55383 1.49182 6.08484 1.68028 5.62987C1.86873 5.1749 2.09976 4.74269 2.37335 4.33322C2.64695 3.92376 2.95785 3.54492 3.30607 3.1967C3.65429 2.84848 4.03313 2.53757 4.4426 2.26398C4.85206 1.99038 5.28428 1.75936 5.73925 1.5709C6.19422 1.38245 6.6632 1.24018 7.1462 1.14411C7.62919 1.04804 8.11692 1 8.60938 1Z" stroke="#FAF8F7" stroke-linecap="round" stroke-linejoin="round"/>
<path d="M18.3077 18.0001L14.1514 13.8438" stroke="#FAF8F7" stroke-linecap="round" stroke-linejoin="round"/>
</svg>
