<svg width="25" height="20" viewBox="0 0 25 20" fill="none" xmlns="http://www.w3.org/2000/svg">
<path d="M7.05473 13.3783L4.10213 1.81723H0.871981V0H5.51356L6.20962 2.72531L25 2.71187L23.0023 13.3782H7.05473V13.3783ZM6.6736 4.54222L8.46616 11.561H21.4938L22.8106 4.53068L6.6736 4.54222Z" fill="#5E4C2A"/>
<path d="M9.54236 20.0006C7.93996 20.0006 6.63631 18.6969 6.63631 17.0945C6.63631 15.4921 7.93996 14.1885 9.54236 14.1885H20.4912C22.0936 14.1885 23.3973 15.4921 23.3973 17.0945C23.3973 18.6969 22.0936 20.0006 20.4912 20.0006C18.8888 20.0006 17.5852 18.6969 17.5852 17.0945C17.5852 16.7097 17.6605 16.3422 17.797 16.0057H12.2366C12.373 16.3422 12.4484 16.7097 12.4484 17.0945C12.4484 18.6969 11.1448 20.0006 9.54236 20.0006ZM19.4024 17.0945C19.4024 17.6949 19.8908 18.1833 20.4912 18.1833C21.0916 18.1833 21.58 17.6949 21.58 17.0945C21.58 16.4941 21.0916 16.0057 20.4912 16.0057C19.8908 16.0057 19.4024 16.4941 19.4024 17.0945ZM8.45352 17.0945C8.45352 17.6949 8.94195 18.1833 9.54233 18.1833C10.1427 18.1833 10.6311 17.6949 10.6311 17.0945C10.6311 16.4941 10.1427 16.0057 9.54233 16.0057C8.94195 16.0057 8.45352 16.4941 8.45352 17.0945Z" fill="#5E4C2A"/>
</svg>
