<svg width="29" height="24" viewBox="0 0 29 24" fill="none" xmlns="http://www.w3.org/2000/svg">
<path d="M21.5334 16.0533L25.0764 2.18059H28.9525V0H23.3828L22.5475 3.27024L0 3.25411L2.39714 16.0532H21.5334V16.0533ZM21.9908 5.45045L19.8398 13.8727H4.20722L2.62723 5.43659L21.9908 5.45045Z" fill="#F2EAD4"/>
<path d="M18.5484 24C20.4712 24 22.0355 22.4357 22.0355 20.5129C22.0355 18.5901 20.4712 17.0258 18.5484 17.0258H5.41033C3.48754 17.0258 1.92319 18.5901 1.92319 20.5129C1.92319 22.4357 3.4875 24 5.41033 24C7.33317 24 8.89745 22.4357 8.89745 20.5129C8.89745 20.0511 8.80699 19.6101 8.64325 19.2064H15.3155C15.1517 19.6101 15.0613 20.0511 15.0613 20.5129C15.0613 22.4357 16.6256 24 18.5484 24ZM6.71686 20.5129C6.71686 21.2334 6.13076 21.8195 5.41033 21.8195C4.68991 21.8195 4.10378 21.2334 4.10378 20.5129C4.10378 19.7925 4.68987 19.2064 5.41033 19.2064C6.13076 19.2064 6.71686 19.7925 6.71686 20.5129ZM19.855 20.5129C19.855 21.2334 19.2689 21.8195 18.5485 21.8195C17.828 21.8195 17.2419 21.2334 17.2419 20.5129C17.2419 19.7925 17.828 19.2064 18.5485 19.2064C19.2689 19.2064 19.855 19.7925 19.855 20.5129Z" fill="#F2EAD4"/>
</svg>
