<svg width="18" height="18" viewBox="0 0 18 18" fill="none" xmlns="http://www.w3.org/2000/svg">
<circle cx="9" cy="9" r="9" fill="#356746"/>
<path d="M7.2848 9.38015C7.35769 9.29413 7.40254 9.2233 7.46421 9.16258C8.92754 7.83693 10.3909 6.51634 11.8598 5.19575C12.0897 4.9883 12.1569 4.9883 12.3924 5.19575C12.7737 5.53981 13.1549 5.88387 13.5362 6.22793C13.7268 6.39996 13.7268 6.48092 13.5418 6.65295C11.529 8.4694 9.51063 10.2909 7.49785 12.1073C7.30162 12.2844 7.22313 12.2844 7.0325 12.1073C5.93921 11.1207 4.84032 10.134 3.74703 9.14234C3.5508 8.96525 3.5508 8.89441 3.74703 8.72238C4.1451 8.36314 4.53756 8.0039 4.93563 7.64972C5.12065 7.48275 5.19914 7.48781 5.38416 7.65478C5.99528 8.21641 6.61201 8.77298 7.2848 9.38015Z" fill="white"/>
</svg>
