<svg width="17" height="17" viewBox="0 0 17 17" fill="none" xmlns="http://www.w3.org/2000/svg">
<circle cx="8.5" cy="8.5" r="7.5" fill="white"/>
<path fill-rule="evenodd" clip-rule="evenodd" d="M8.49994 0C13.194 0 16.9999 3.80588 16.9999 8.49994C16.9999 13.194 13.194 16.9999 8.49994 16.9999C3.80588 16.9999 0 13.194 0 8.49994C0 3.80588 3.80588 0 8.49994 0ZM5.46188 7.85664C6.09826 8.22325 6.51192 8.52761 7.00581 9.07131C8.28412 7.01273 9.67311 5.87276 11.4771 4.25274L11.6542 4.18495H13.6298C10.9819 7.12617 8.92743 9.55137 7.08882 13.0985C6.13147 11.0524 5.27788 9.63991 3.37009 8.32978L5.46188 7.85664Z" fill="#3AAF3C"/>
</svg>
