<svg width="34" height="39" viewBox="0 0 34 39" fill="none" xmlns="http://www.w3.org/2000/svg">
<path d="M34 9.50612C34 8.63463 33.8889 7.78648 33.6769 6.9992C33.789 6.47785 33.8465 5.93443 33.8465 5.38182C33.8466 2.36392 32.1982 0 30.0937 0C28.3052 0 26.8113 1.71882 26.4315 4.1939C25.9536 4.74709 25.5494 5.44143 25.2486 6.25175C24.3444 6.73603 23.5341 7.55158 22.8955 8.64544C21.7915 9.044 20.7722 9.84188 19.9242 10.9883C18.9034 11.253 17.936 11.8248 17.0708 12.6815C16.182 12.7487 15.3228 13.034 14.5077 13.5314C13.9733 13.3723 13.4231 13.2908 12.8632 13.2908C12.3 13.2908 11.7397 13.3761 11.1929 13.5428C10.3276 13.1086 9.40855 12.883 8.46239 12.883C6.13844 12.883 3.97764 14.2435 2.37795 16.714C0.844493 19.0821 0 22.2159 0 25.5378C0 28.8598 0.844493 31.9935 2.37795 34.3617C3.97742 36.8322 6.13822 38.1928 8.46224 38.1928C9.40803 38.1928 10.3267 37.9673 11.1916 37.5336C11.7386 37.7004 12.2998 37.785 12.8631 37.785C14.4405 37.785 15.9398 37.1383 17.2291 35.9298C17.314 35.9338 17.3993 35.9366 17.4841 35.9366C19.4339 35.9366 21.2578 34.9024 22.6811 33.0073C24.9193 32.3732 26.7614 30.3032 27.8118 27.4963C29.7329 25.9672 31.021 23.1958 31.3321 20.027C32.3715 18.4538 32.9439 16.3734 32.9439 14.1491C32.944 14.0449 32.9415 13.9413 32.939 13.8376C33.6234 12.6279 34 11.0968 34 9.50612ZM30.0937 1.52159C31.0507 1.52159 31.8895 2.62859 32.1984 4.12698C31.3921 3.21908 30.4012 2.72847 29.3433 2.72847C29.0314 2.72847 28.7253 2.77308 28.4281 2.85737C28.8484 2.04122 29.4571 1.52159 30.0937 1.52159ZM8.46224 36.6712C6.67188 36.6712 4.96469 35.5573 3.65509 33.5347C2.27926 31.4099 1.52152 28.5698 1.52152 25.5378C1.52152 22.5058 2.27918 19.6657 3.65509 17.5409C4.96469 15.5184 6.67188 14.4045 8.46231 14.4045C10.2527 14.4045 11.9599 15.5184 13.2696 17.5409C14.6454 19.6657 15.4032 22.5058 15.4032 25.5378C15.4032 28.5699 14.6455 31.4099 13.2696 33.5347C11.9598 35.5573 10.2525 36.6712 8.46224 36.6712ZM17.4837 33.2465C16.2534 35.1463 14.6597 36.212 12.9839 36.261C13.5472 35.7298 14.0719 35.0951 14.5467 34.3618C16.0802 31.9936 16.9247 28.8599 16.9247 25.5379C16.9247 22.2159 16.0802 19.0821 14.5467 16.714C14.0719 15.9807 13.5472 15.346 12.9839 14.8148C14.6597 14.8638 16.2534 15.9295 17.4837 17.8295C18.8096 19.8773 19.5399 22.6148 19.5399 25.538C19.5399 28.4612 18.8096 31.1987 17.4837 33.2465ZM21.8244 31.5773C20.9299 32.9589 19.8319 33.8715 18.6531 34.2359C18.6892 34.1821 18.7254 34.1284 18.7609 34.0734C20.2443 31.7822 21.0614 28.7509 21.0614 25.5378C21.0614 22.3248 20.2443 19.2934 18.7609 17.0023C18.0377 15.8855 17.1958 15.003 16.2747 14.3791C16.671 14.2519 17.0749 14.1873 17.4841 14.1873C19.0981 14.1873 20.6395 15.1952 21.8244 17.0252C23.0756 18.9574 23.7646 21.5415 23.7646 24.3012C23.7646 27.0609 23.0756 29.645 21.8244 31.5773ZM24.0999 30.5014C24.8719 28.664 25.2863 26.5286 25.2863 24.3012C25.2863 21.2515 24.5105 18.3738 23.1017 16.1981C22.0263 14.5373 20.6745 13.4214 19.1886 12.9381C19.8457 12.5437 20.5407 12.339 21.2457 12.339C22.7837 12.339 24.2536 13.301 25.3847 15.0478C26.5819 16.8969 27.2414 19.3705 27.2414 22.0126C27.2414 25.6028 25.9789 28.8355 24.0999 30.5014ZM28.642 24.0359C28.7216 23.3788 28.7631 22.7025 28.7631 22.0127C28.763 19.0805 28.0169 16.3133 26.6619 14.2208C25.4322 12.3217 23.8262 11.1615 22.0737 10.8833C22.836 10.2256 23.6844 9.87447 24.5486 9.87447C25.9102 9.87447 27.2144 10.7305 28.2209 12.2848C29.2936 13.9414 29.8843 16.1588 29.8843 18.5287C29.8841 20.562 29.4275 22.5047 28.642 24.0359ZM31.2264 16.1975C30.9503 14.4236 30.3606 12.7901 29.498 11.4578C28.2993 9.60653 26.7062 8.52505 24.9749 8.37235C25.6476 7.65526 26.4306 7.262 27.231 7.262C28.2869 7.262 29.3038 7.93418 30.0941 9.15478C30.9506 10.4776 31.4224 12.2513 31.4224 14.1492C31.4222 14.8492 31.3542 15.5392 31.2264 16.1975ZM32.4109 10.5748C32.1521 9.7546 31.8035 8.99529 31.3713 8.32774C30.2909 6.65927 28.8206 5.74048 27.2309 5.74048C27.2144 5.74048 27.1978 5.74122 27.1813 5.74145C27.7647 4.80878 28.5472 4.25029 29.3434 4.25029C31.0427 4.25029 32.4784 6.65718 32.4784 9.5062C32.4784 9.86873 32.4551 10.2263 32.4109 10.5748Z" fill="#EDFA70"/>
<path d="M8.46242 16.1522C5.41475 16.1522 3.0274 20.3234 3.0274 25.6483C3.0274 30.9732 5.41475 35.1444 8.46242 35.1444C11.5102 35.1444 13.8975 30.9732 13.8975 25.6483C13.8975 20.3234 11.5102 16.1522 8.46242 16.1522ZM11.0967 31.4663C10.3633 32.8369 9.40314 33.623 8.46234 33.623C7.54654 33.623 6.61245 32.8779 5.88694 31.5739H6.80521C7.22533 31.5739 7.566 31.2332 7.566 30.8131C7.566 30.3929 7.22533 30.0523 6.80521 30.0523H5.22446C4.78539 28.753 4.54907 27.2386 4.54907 25.6485C4.54907 23.4381 5.00336 21.372 5.82816 19.8305C6.56158 18.4599 7.5217 17.6738 8.46249 17.6738C9.40329 17.6738 10.3635 18.4599 11.0969 19.8305C11.9217 21.3721 12.376 23.4382 12.376 25.6485C12.376 27.8587 11.9215 29.9248 11.0967 31.4663Z" fill="#EDFA70"/>
<path d="M9.24006 30.0518H9.08788C8.66776 30.0518 8.32709 30.3924 8.32709 30.8126C8.32709 31.2328 8.66776 31.5734 9.08788 31.5734H9.24006C9.66018 31.5734 10.0009 31.2328 10.0009 30.8126C10.0009 30.3924 9.66018 30.0518 9.24006 30.0518Z" fill="#EDFA70"/>
</svg>
