<svg width="90" height="68" viewBox="0 0 90 68" fill="none" xmlns="http://www.w3.org/2000/svg">
<path fill-rule="evenodd" clip-rule="evenodd" d="M82.5 0C84.4875 0 86.3962 0.797111 87.8025 2.21378C89.2087 3.63044 90 5.55333 90 7.55556V60.4444C90 62.4467 89.2087 64.3696 87.8025 65.7862C86.3962 67.2029 84.4875 68 82.5 68H7.5C5.5125 68 3.60375 67.2029 2.1975 65.7862C0.79125 64.3696 0 62.4467 0 60.4444V7.55556C0 5.55333 0.79125 3.63044 2.1975 2.21378C3.60375 0.797111 5.5125 0 7.5 0H82.5ZM86.25 30.2222H3.75V60.4444C3.75 62.5298 5.43 64.2222 7.5 64.2222H82.5C84.57 64.2222 86.25 62.5298 86.25 60.4444V30.2222ZM30 49.1111V52.8889H11.25V49.1111H30ZM78.75 41.5556V45.3333H67.5V41.5556H78.75ZM41.25 41.5556V45.3333H11.25V41.5556H41.25ZM3.75 18.8889V26.4444H86.25V18.8889H3.75ZM86.25 15.1111V7.55556C86.25 5.47022 84.57 3.77778 82.5 3.77778H7.5C5.43 3.77778 3.75 5.47022 3.75 7.55556V15.1111H86.25Z" fill="#356746"/>
</svg>
