<svg width="15" height="15" viewBox="0 0 15 15" fill="none" xmlns="http://www.w3.org/2000/svg">
<path fill-rule="evenodd" clip-rule="evenodd" d="M7.5 0C11.6418 0 15 3.35815 15 7.5C15 11.6418 11.6418 15 7.5 15C3.35815 15 0 11.6418 0 7.5C0 3.35815 3.35815 0 7.5 0Z" fill="#3AAF3C"/>
<path d="M9.86044 4.17167L10.8283 5.14105C10.9383 5.25207 11 5.40202 11 5.55829C11 5.71456 10.9383 5.86451 10.8283 5.97554L9.30016 7.49778L10.8283 9.02595C10.9383 9.13697 11 9.28692 11 9.44319C11 9.59946 10.9383 9.74941 10.8283 9.86044L9.86044 10.8283C9.74941 10.9383 9.59946 11 9.44319 11C9.28692 11 9.13697 10.9383 9.02595 10.8283L7.49778 9.30016L5.96961 10.8283C5.85858 10.9383 5.70863 11 5.55236 11C5.39609 11 5.24614 10.9383 5.13512 10.8283L4.17167 9.86044C4.0617 9.74941 4 9.59946 4 9.44319C4 9.28692 4.0617 9.13697 4.17167 9.02595L5.6954 7.49778L4.17167 5.96961C4.0617 5.85858 4 5.70863 4 5.55236C4 5.39609 4.0617 5.24614 4.17167 5.13512L5.13512 4.17167C5.24614 4.0617 5.39609 4 5.55236 4C5.70863 4 5.85858 4.0617 5.96961 4.17167L7.49778 5.6954L9.02595 4.17167C9.13697 4.0617 9.28692 4 9.44319 4C9.59946 4 9.74941 4.0617 9.86044 4.17167Z" fill="white"/>
</svg>
