<svg width="23" height="23" viewBox="0 0 23 23" fill="none" xmlns="http://www.w3.org/2000/svg">
<path fill-rule="evenodd" clip-rule="evenodd" d="M11.5001 0C17.8515 0 23 5.14865 23 11.4999C23 17.8512 17.8515 22.9998 11.5001 22.9998C5.14865 23 0 17.8513 0 11.4999C0 5.14846 5.14865 0 11.5001 0ZM13.7483 7.32813C14.263 6.80535 15.0999 6.8031 15.6174 7.32307C16.1348 7.84267 16.1368 8.68796 15.6225 9.21037L13.3644 11.501L15.6247 13.7937C16.1355 14.3122 16.128 15.1521 15.6097 15.6696C15.0907 16.1872 14.2564 16.1859 13.7464 15.6672L11.5012 13.3906L9.25174 15.6719C8.737 16.1947 7.90032 16.1969 7.3826 15.6769C6.86543 15.1573 6.863 14.3119 7.37754 13.7894L9.63582 11.499L7.3753 9.20625C6.86468 8.68796 6.87198 7.8481 7.39064 7.33037C7.9095 6.81283 8.74374 6.81414 9.25361 7.33281L11.4992 9.6098L13.7483 7.32813Z" fill="#FF4141"/>
</svg>
