<svg width="33" height="21" viewBox="0 0 33 21" fill="none" xmlns="http://www.w3.org/2000/svg">
<g clip-path="url(#clip0_82_85)">
<path d="M5.99719 20.8557C5.99719 19.8751 5.99719 19.0077 5.99719 18.0271C15.0109 18.0271 23.9491 18.0271 33.0005 18.0271C33.0005 18.97 33.0005 19.8374 33.0005 20.8557C24.0245 20.8557 15.0863 20.8557 5.99719 20.8557Z" fill="#356746"/>
<path d="M5.99719 14.8591C5.99719 13.8785 5.99719 13.0111 5.99719 12.0305C13.012 12.0305 19.9514 12.0305 26.9662 12.0305C26.9662 12.9734 26.9662 13.8408 26.9662 14.8591C19.9891 14.8591 13.0497 14.8591 5.99719 14.8591Z" fill="#356746"/>
<path d="M5.99719 8.86298C5.99719 7.88242 5.99719 7.01499 5.99719 6.03442C10.9755 6.03442 15.916 6.03442 20.8943 6.03442C20.8943 6.97728 20.8943 7.8447 20.8943 8.86298C15.9537 8.86298 11.0132 8.86298 5.99719 8.86298Z" fill="#356746"/>
<path d="M2.79084 8.86298C1.84799 8.86298 0.980567 8.86298 0 8.86298C0 7.95784 0 7.05271 0 6.03442C0.867425 6.03442 1.77256 6.03442 2.79084 6.03442C2.79084 6.93956 2.79084 7.76927 2.79084 8.86298Z" fill="#356746"/>
<path d="M2.79084 14.8591C1.84799 14.8591 0.980567 14.8591 0 14.8591C0 13.9539 0 13.0488 0 12.0305C0.867425 12.0305 1.77256 12.0305 2.79084 12.0305C2.79084 12.9357 2.79084 13.7654 2.79084 14.8591Z" fill="#356746"/>
<path d="M2.79084 20.8557C1.84799 20.8557 0.980567 20.8557 0 20.8557C0 19.9505 0 19.0454 0 18.0271C0.867425 18.0271 1.77256 18.0271 2.79084 18.0271C2.79084 18.9322 2.79084 19.7997 2.79084 20.8557Z" fill="#356746"/>
<path d="M5.99719 2.82856C5.99719 1.84799 5.99719 0.980567 5.99719 0C14.0303 0 21.9503 0 29.9834 0C29.9834 0.942853 29.9834 1.81028 29.9834 2.82856C22.0257 2.82856 14.068 2.82856 5.99719 2.82856Z" fill="#356746"/>
<path d="M2.79084 2.82856C1.84799 2.82856 0.980567 2.82856 0 2.82856C0 1.92342 0 1.01828 0 0C0.867425 0 1.77256 0 2.79084 0C2.79084 0.905139 2.79084 1.73485 2.79084 2.82856Z" fill="#356746"/>
</g>
<defs>
<clipPath id="clip0_82_85">
<rect width="33" height="21" fill="white"/>
</clipPath>
</defs>
</svg>
