<svg width="358" height="131" viewBox="0 0 358 131" fill="none" xmlns="http://www.w3.org/2000/svg">
<path d="M29.7285 6.1932C32.7877 6.75624 35.4997 8.2483 37.8645 10.66C40.2293 13.0811 41.421 16.8159 41.421 21.8551C41.421 26.9506 40.2386 30.6949 37.8645 33.0878C35.4997 35.4807 32.7783 36.9634 29.7285 37.517C26.6694 38.0801 23.0284 38.3616 18.8056 38.3616H10.7072V48.4494C10.7072 50.4388 10.9605 51.9027 11.4673 52.8411C11.974 53.7889 12.9969 54.2581 14.5264 54.2581V55.7877H0V54.2581C1.52959 54.2581 2.54307 53.7889 3.05919 52.8411C3.56592 51.9027 3.81929 50.4294 3.81929 48.4494V12.6869C3.81929 10.6975 3.56592 9.23361 3.05919 8.29521C2.55245 7.35681 1.52959 6.87823 0 6.87823V5.34863H18.7962C23.0284 5.34863 26.6694 5.63016 29.7285 6.1932ZM30.8734 32.4027C33.3226 30.4696 34.5425 26.9506 34.5425 21.8551C34.5425 16.7596 33.3226 13.25 30.8734 11.3075C28.4242 9.37438 24.6612 8.40783 19.5657 8.40783H10.6978V35.3024H19.5657C24.6612 35.3024 28.4242 34.3358 30.8734 32.4027Z" fill="#F2EAD4"/>
<path d="M87.4216 45.165L86.3518 54.2581L86.1266 55.7877H50.5894V54.2581C52.1189 54.2581 53.1324 53.7889 53.6485 52.8411C54.1553 51.9027 54.4086 50.4294 54.4086 48.4494V12.6869C54.4086 10.6975 54.1553 9.23361 53.6485 8.29521C53.1418 7.35681 52.1189 6.87823 50.5894 6.87823V5.34863H85.3571L85.5823 6.87823L86.6521 15.9713L85.1976 16.1966C84.7847 13.1937 84.0527 11.1386 82.983 10.0406C81.9132 8.94271 80.3836 8.39844 78.3942 8.39844H61.2871V28.6491H71.8348C73.8242 28.6491 75.2881 28.3958 76.2265 27.889C77.1649 27.3823 77.6435 26.3594 77.6435 24.8298H79.173V35.5276H77.6435C77.6435 33.998 77.1743 32.9846 76.2265 32.4684C75.2787 31.9617 73.8148 31.7083 71.8348 31.7083H61.2871V52.7191H79.1637C81.1531 52.7191 82.6827 52.1749 83.7524 51.0769C84.8222 49.979 85.5636 47.9333 85.9671 44.921L87.4216 45.165Z" fill="#F2EAD4"/>
<path d="M98.7665 17.1926C100.728 13.2701 103.534 10.1921 107.175 7.94932C110.816 5.70654 115.057 4.58984 119.899 4.58984C124.741 4.58984 128.983 5.70654 132.624 7.94932C136.265 10.1921 139.071 13.2701 141.032 17.1926C142.993 21.1151 143.979 25.5725 143.979 30.5648C143.979 35.5571 142.993 40.0145 141.032 43.937C139.071 47.8595 136.265 50.9375 132.624 53.1802C128.983 55.423 124.741 56.5397 119.899 56.5397C115.057 56.5397 110.816 55.423 107.175 53.1802C103.534 50.9375 100.728 47.8595 98.7665 43.937C96.8053 40.0145 95.8199 35.5571 95.8199 30.5648C95.8199 25.5725 96.8053 21.1245 98.7665 17.1926ZM108.657 47.8407C111.763 51.5099 115.836 53.3398 120.885 53.3398C121.391 53.3398 122.264 53.2929 123.484 53.1896C127.866 52.6829 131.263 50.6841 133.684 47.1933C136.106 43.7024 137.316 39.2075 137.316 33.7084C137.316 32.2821 137.185 30.546 136.931 28.5097C136.171 22.0441 134.229 16.9674 131.123 13.3076C128.016 9.63845 123.944 7.80857 118.895 7.80857C118.388 7.80857 117.516 7.85548 116.296 7.9587C111.914 8.46544 108.517 10.4642 106.095 13.9551C103.674 17.4459 102.464 21.9409 102.464 27.4399C102.464 28.8663 102.595 30.6023 102.849 32.6387C103.618 39.1042 105.551 44.1716 108.657 47.8407Z" fill="#F2EAD4"/>
<path d="M182.097 6.1932C185.156 6.75624 187.868 8.2483 190.233 10.66C192.597 13.0811 193.789 16.8159 193.789 21.8551C193.789 26.9506 192.607 30.6949 190.233 33.0878C187.868 35.4807 185.146 36.9634 182.097 37.517C179.037 38.0801 175.396 38.3616 171.174 38.3616H163.075V48.4494C163.075 50.4388 163.329 51.9027 163.835 52.8411C164.342 53.7889 165.365 54.2581 166.895 54.2581V55.7877H152.377V54.2581C153.907 54.2581 154.921 53.7889 155.437 52.8411C155.943 51.9027 156.197 50.4294 156.197 48.4494V12.6869C156.197 10.6975 155.943 9.23361 155.437 8.29521C154.93 7.35681 153.907 6.87823 152.377 6.87823V5.34863H171.174C175.396 5.34863 179.037 5.63016 182.097 6.1932ZM183.241 32.4027C185.691 30.4696 186.911 26.9506 186.911 21.8551C186.911 16.7596 185.691 13.25 183.241 11.3075C180.792 9.37438 177.029 8.40783 171.934 8.40783H163.066V35.3024H171.934C177.029 35.3024 180.792 34.3358 183.241 32.4027Z" fill="#F2EAD4"/>
<path d="M239.79 45.165L238.72 54.2581L238.495 55.7877H202.967V54.2581C204.496 54.2581 205.51 53.7889 206.026 52.8411C206.533 51.9027 206.786 50.4294 206.786 48.4494V12.6869C206.786 10.6975 206.533 9.23361 206.026 8.29521C205.519 7.35681 204.496 6.87823 202.967 6.87823V5.34863H217.474V6.87823C215.945 6.87823 214.931 7.34743 214.415 8.29521C213.909 9.243 213.655 10.7069 213.655 12.6869V52.7285H231.532C233.521 52.7285 235.051 52.1842 236.121 51.0863C237.19 49.9884 237.932 47.9427 238.335 44.9304L239.79 45.165Z" fill="#F2EAD4"/>
<path d="M285.79 45.165L284.72 54.2581L284.495 55.7877H248.967V54.2581C250.497 54.2581 251.51 53.7889 252.026 52.8411C252.533 51.9027 252.787 50.4294 252.787 48.4494V12.6869C252.787 10.6975 252.533 9.23361 252.026 8.29521C251.52 7.35681 250.497 6.87823 248.967 6.87823V5.34863H283.735L283.96 6.87823L285.03 15.9713L283.576 16.1966C283.163 13.1937 282.431 11.1386 281.361 10.0406C280.291 8.94271 278.762 8.39844 276.772 8.39844H259.656V28.6491H270.203C272.193 28.6491 273.657 28.3958 274.595 27.889C275.533 27.3823 276.012 26.3594 276.012 24.8298H277.532V35.5276H276.003C276.003 33.998 275.533 32.9846 274.586 32.4684C273.638 31.9617 272.174 31.7083 270.194 31.7083H259.646V52.7191H277.532C279.522 52.7191 281.051 52.1749 282.121 51.0769C283.191 49.979 283.932 47.9333 284.336 44.921L285.79 45.165Z" fill="#F2EAD4"/>
<path d="M301.377 14.2168C302.7 12.7435 303.366 11.0544 303.366 9.17756C302.803 9.6843 302.043 9.93766 301.077 9.93766C299.65 9.93766 298.534 9.44971 297.717 8.48315C296.901 7.5166 296.497 6.31545 296.497 4.88908C296.497 3.56593 296.957 2.42108 297.877 1.45452C298.796 0.487971 299.988 0 301.471 0C303.047 0 304.333 0.60058 305.328 1.79235C306.322 2.9935 306.82 4.72955 306.82 7.02863C306.82 9.67492 305.919 12.1617 304.108 14.4795C302.297 16.7974 299.894 18.4114 296.882 19.3311L296.497 17.8015C298.421 16.8912 300.054 15.6901 301.377 14.2168Z" fill="#F2EAD4"/>
<path d="M322.5 7.91179C326.198 5.69717 330.814 4.58984 336.37 4.58984C341.465 4.58984 345.782 5.58456 349.32 7.57397C352.858 9.56338 354.631 12.6413 354.631 16.8172C354.631 18.4969 354.35 20.1767 353.787 21.8564L346.908 20.3268C347.724 18.497 348.128 16.8078 348.128 15.2876C348.128 12.7446 347.03 10.8302 344.844 9.55399C342.657 8.27777 339.804 7.63965 336.285 7.63965C332.156 7.63965 329.05 8.39038 326.967 9.89182C324.874 11.3933 323.833 13.5516 323.833 16.348C323.833 18.131 324.396 19.623 325.513 20.8148C326.629 22.016 328.046 22.9825 329.754 23.7145C331.462 24.4558 333.714 25.2534 336.52 26.1168C341.512 27.6933 345.256 29.0164 347.753 30.0862C350.249 31.156 352.323 32.6574 353.984 34.5905C355.635 36.5236 356.47 39.0949 356.47 42.3042C356.47 47.4466 354.678 51.1064 351.084 53.2741C347.49 55.4418 342.845 56.521 337.139 56.521C331.077 56.521 325.907 55.3292 321.628 52.9269C317.348 50.534 315.209 46.5833 315.209 41.0843C315.209 39.4045 315.434 37.5465 315.894 35.5102L322.772 37.0398C322.162 39.0761 321.853 40.9154 321.853 42.5388C321.853 46.3581 323.345 49.1357 326.32 50.8718C329.304 52.6078 332.954 53.4711 337.289 53.4711C345.491 53.4711 349.592 50.2337 349.592 43.7681C349.592 41.835 349.066 40.2303 348.025 38.9541C346.983 37.6779 345.576 36.6362 343.821 35.8198C342.066 35.0034 339.626 34.1119 336.52 33.1454L334.305 32.4604C330.233 31.1841 327.07 30.0581 324.827 29.0633C322.585 28.0686 320.717 26.6798 319.216 24.8968C317.714 23.1139 316.964 20.796 316.964 17.9433C316.964 13.4765 318.812 10.1264 322.5 7.91179Z" fill="#F2EAD4"/>
<path d="M79.5481 80.4676C82.6073 81.0306 85.3193 82.5227 87.6841 84.9344C90.0488 87.3555 91.2406 91.0903 91.2406 96.1295C91.2406 101.225 90.0582 104.969 87.6841 107.362C85.3193 109.755 82.5979 111.238 79.5481 111.791C76.4889 112.354 72.8479 112.636 68.6251 112.636H60.5267V122.724C60.5267 124.713 60.7801 126.177 61.2868 127.116C61.7936 128.063 62.8164 128.533 64.346 128.533V130.062H49.8196V128.533C51.3492 128.533 52.3626 128.063 52.8788 127.116C53.3855 126.177 53.6389 124.704 53.6389 122.724V86.9613C53.6389 84.9719 53.3855 83.508 52.8788 82.5696C52.372 81.6312 51.3492 81.1526 49.8196 81.1526V79.623H68.6158C72.8479 79.623 76.4889 79.9046 79.5481 80.4676ZM80.693 106.677C83.1422 104.744 84.3621 101.225 84.3621 96.1295C84.3621 91.034 83.1422 87.5244 80.693 85.5819C78.2437 83.6488 74.4808 82.6822 69.3852 82.6822H60.5174V109.577H69.3852C74.4808 109.577 78.2437 108.61 80.693 106.677Z" fill="#F2EAD4"/>
<path d="M141.173 127.191C142.318 128.082 143.81 128.523 145.64 128.523V130.053H126.074V128.523C128.167 128.523 129.64 128.317 130.503 127.913C131.367 127.51 131.798 126.872 131.798 125.999C131.798 125.389 131.573 124.441 131.113 123.174L124.92 107.053H107.043L100.85 123.174C100.39 124.45 100.165 125.389 100.165 125.999C100.165 126.862 100.597 127.5 101.469 127.913C102.333 128.326 103.815 128.523 105.898 128.523V130.053H90.4618V128.523C92.2917 128.523 93.7837 128.082 94.9286 127.191C96.0734 126.299 96.9743 124.967 97.6406 123.174L112.308 85.047C112.514 84.437 112.617 83.8552 112.617 83.2922C112.617 82.579 112.327 82.0441 111.735 81.6875C111.154 81.3309 110.121 81.1526 108.639 81.1526V79.623H121.701L138.433 123.174C139.127 124.967 140.028 126.299 141.173 127.191ZM108.282 104.003H123.794L115.996 83.9022L108.282 104.003Z" fill="#F2EAD4"/>
<path d="M152.518 128.533C154.048 128.533 155.061 128.063 155.577 127.116C156.084 126.177 156.337 124.704 156.337 122.724V86.9613C156.337 84.9719 156.084 83.508 155.577 82.5696C155.071 81.6312 154.048 81.1526 152.518 81.1526V79.623H157.107C159.096 79.7263 160.767 80.1955 162.109 81.04C163.46 81.8846 165.027 83.4423 166.81 85.7414L195.234 122.348V86.9707C195.234 84.9813 194.981 83.5174 194.474 82.579C193.967 81.6406 192.944 81.162 191.415 81.162V79.6324H202.113V81.162C200.583 81.162 199.56 81.6312 199.053 82.579C198.547 83.5268 198.293 84.9907 198.293 86.9707V130.071C196.05 130.071 194.221 129.668 192.794 128.852C191.368 128.035 189.707 126.402 187.83 123.962L159.406 87.3555V122.733C159.406 124.723 159.659 126.187 160.166 127.125C160.673 128.073 161.696 128.542 163.225 128.542V130.071H152.527V128.533H152.518Z" fill="#F2EAD4"/>
<path d="M254.382 90.2457L252.927 90.471C252.514 87.4681 251.782 85.413 250.713 84.3151C249.643 83.2171 248.113 82.6729 246.124 82.6729H235.886V122.714C235.886 124.704 236.139 126.168 236.646 127.106C237.153 128.054 238.176 128.523 239.705 128.523V130.053H225.188V128.523C226.718 128.523 227.731 128.054 228.247 127.106C228.754 126.168 229.007 124.694 229.007 122.714V82.6729H218.77C216.78 82.6729 215.251 83.2171 214.181 84.3151C213.111 85.413 212.37 87.4587 211.966 90.471L210.512 90.2457L211.581 81.1526L211.807 79.623H253.068L253.293 81.1526L254.382 90.2457Z" fill="#F2EAD4"/>
<path d="M302.71 125.82C304.417 127.631 306.444 128.532 308.781 128.532V130.062C305.159 130.062 302.362 129.818 300.373 129.339C298.383 128.851 296.676 127.725 295.249 125.942C293.823 124.159 292.622 121.353 291.655 117.534C290.632 113.611 289.544 110.674 288.371 108.713C287.198 106.752 285.621 105.391 283.632 104.621C281.642 103.861 278.846 103.477 275.224 103.477H274.229V122.733C274.229 124.722 274.482 126.186 274.989 127.124C275.496 128.072 276.519 128.541 278.048 128.541V130.071H263.55V128.541C265.08 128.541 266.093 128.072 266.609 127.124C267.116 126.186 267.369 124.713 267.369 122.733V86.9701C267.369 84.9807 267.116 83.5168 266.609 82.5784C266.102 81.64 265.08 81.1614 263.55 81.1614V79.6318H281.586C284.795 79.6318 287.686 79.8383 290.257 80.2418C292.828 80.6547 295.155 81.7339 297.248 83.4887C299.341 85.2435 300.382 87.9367 300.382 91.5495C300.382 98.0151 296.891 101.844 289.91 103.007C292.002 104.077 293.701 105.607 295.033 107.596C296.357 109.586 297.426 112.185 298.243 115.394C299.519 120.537 301.002 124.009 302.71 125.82ZM282.346 100.408C289.788 100.408 293.504 97.4521 293.504 91.5401C293.504 85.6282 289.788 82.6723 282.346 82.6723H274.248V100.399H282.346V100.408Z" fill="#F2EAD4"/>
<path d="M358 81.1526C354.64 81.1526 352.013 82.7573 350.127 85.9666L336.445 109.727V122.714C336.445 124.704 336.698 126.168 337.205 127.106C337.712 128.054 338.735 128.523 340.264 128.523V130.053H325.747V128.523C327.277 128.523 328.29 128.054 328.806 127.106C329.313 126.168 329.566 124.694 329.566 122.714V109.727L315.885 85.9666C313.998 82.7573 311.38 81.1526 308.011 81.1526V79.623H327.877V81.1526C325.991 81.1526 324.659 81.3028 323.87 81.6125C323.082 81.9221 322.688 82.3726 322.688 82.9919C322.688 83.5549 323.091 84.5497 323.908 85.976L335.216 105.767L346.448 86.0511C347.265 84.6247 347.668 83.6019 347.668 82.9919C347.668 82.3819 347.274 81.9221 346.486 81.6125C345.698 81.3028 344.337 81.1526 342.394 81.1526V79.623H357.981V81.1526H358Z" fill="#F2EAD4"/>
<path d="M7.33821 105.081C5.80862 104.246 5.62094 102.407 5.19866 100.08C4.68254 97.2364 4.56993 94.7966 3.10602 94.5057C0.272051 93.9426 -0.0470045 98.644 0.00929957 102.698C0.0749876 106.93 -0.187767 118.782 9.62791 123.699C16.2436 127.012 23.4881 123.699 27.8141 118.06C30.9202 114.006 34.1014 107.137 35.2744 104.556C36.0439 102.867 36.8791 100.746 35.8093 99.9766C34.7958 99.2352 33.7354 99.9578 32.3372 102.379C31.6616 103.552 30.8639 105.053 30.1601 106.132C29.5408 107.071 29.081 107.737 28.6399 107.484C27.9924 107.118 28.7713 105.823 29.3906 104.575C30.4323 102.463 31.9337 99.5731 33.2005 97.0112C34.2422 94.8904 35.1712 92.7696 33.7167 91.8219C32.3841 90.9585 31.0141 92.535 29.9443 94.3086C28.7056 96.345 27.4388 98.8129 26.1625 101.037C25.1866 102.735 24.3983 104.134 23.7133 103.655C23.0189 103.186 23.8072 101.675 24.4734 100.361C25.7684 97.7901 27.861 93.9802 29.2686 91.0618C30.4041 88.7064 31.6897 86.0976 30.01 85.2531C28.2552 84.3803 26.4534 86.6513 25.1021 89.3445C23.6289 92.2723 21.7802 95.8007 20.3538 98.5783C19.772 99.7044 19.1058 100.286 18.8149 100.23C18.3363 100.127 18.4958 99.2165 18.9744 97.9027C19.7533 95.7631 21.311 92.5069 22.4277 89.8981C23.9948 86.2478 24.267 84.3147 22.8312 83.5827C21.3955 82.8507 19.6125 84.5117 18.2049 87.1111C15.812 91.5216 13.3252 97.1801 11.7112 100.296C10.3974 102.773 8.86781 105.917 7.33821 105.081Z" fill="#EDFA70"/>
</svg>
