<svg width="323" height="370" viewBox="0 0 323 370" fill="none" xmlns="http://www.w3.org/2000/svg">
<path d="M65.2388 192.715C51.6335 185.288 49.9642 168.933 46.2081 148.239C41.6173 122.955 40.6157 101.26 27.5947 98.6728C2.38725 93.6661 -0.450666 135.472 0.0501437 171.52C0.634422 209.154 -1.70271 314.544 85.6051 358.27C144.45 387.726 208.888 358.27 247.367 308.119C274.995 272.071 303.29 210.989 313.724 188.042C320.568 173.022 327.997 154.164 318.482 147.321C309.467 140.729 300.035 147.154 287.598 168.683C281.589 179.114 274.494 192.465 268.234 202.061C262.725 210.405 258.635 216.33 254.712 214.077C248.952 210.823 255.88 199.307 261.389 188.209C270.654 169.434 284.009 143.733 295.277 120.953C304.542 102.094 312.806 83.2355 299.868 74.8076C288.016 67.1306 275.829 81.1493 266.314 96.9204C255.296 115.028 244.028 136.974 232.676 156.75C223.995 171.854 216.984 184.287 210.891 180.032C204.714 175.859 211.726 162.425 217.652 150.742C229.171 127.878 247.784 93.9999 260.304 68.0486C270.404 47.1039 281.839 23.9062 266.898 16.3962C251.29 8.63581 235.264 28.8295 223.244 52.7781C210.14 78.8129 193.696 110.188 181.009 134.888C175.834 144.901 169.908 150.075 167.321 149.574C163.064 148.656 164.483 140.562 168.74 128.88C175.667 109.854 189.523 80.899 199.456 57.7013C213.395 25.2413 215.816 8.05171 203.045 1.54301C190.274 -4.96569 174.415 9.804 161.895 32.9182C140.611 72.1373 118.492 122.455 104.135 150.158C92.4495 172.188 78.8442 200.142 65.2388 192.715Z" fill="#EDFA70"/>
</svg>
