<svg width="24" height="23" viewBox="0 0 24 23" fill="none" xmlns="http://www.w3.org/2000/svg">
<path d="M16.3937 11.1603C17.4065 10.3477 18.142 9.24072 18.4986 7.9922C18.8553 6.74368 18.8155 5.41523 18.3848 4.19028C17.9541 2.96532 17.1537 1.9043 16.0942 1.15371C15.0347 0.403126 13.7682 0 12.4698 0C11.1713 0 9.90487 0.403126 8.84533 1.15371C7.78579 1.9043 6.98542 2.96532 6.55473 4.19028C6.12403 5.41523 6.08427 6.74368 6.44092 7.9922C6.79757 9.24072 7.53304 10.3477 8.54579 11.1603C6.32972 11.9664 4.41517 13.4345 3.06176 15.3655C1.70835 17.2965 0.981573 19.5971 0.97998 21.9552V23.0002H23.97V21.9552C23.9676 19.5958 23.2393 17.2944 21.8839 15.3632C20.5286 13.432 18.6118 11.9647 16.3937 11.1603ZM8.29499 6.28018C8.29499 5.45346 8.54014 4.6453 8.99944 3.9579C9.45875 3.2705 10.1116 2.73474 10.8754 2.41837C11.6392 2.10199 12.4796 2.01921 13.2905 2.1805C14.1013 2.34179 14.8461 2.73989 15.4307 3.32448C16.0153 3.90906 16.4134 4.65387 16.5747 5.46471C16.736 6.27555 16.6532 7.11601 16.3368 7.8798C16.0204 8.6436 15.4847 9.29643 14.7973 9.75573C14.1099 10.215 13.3017 10.4602 12.475 10.4602C11.3664 10.4602 10.3032 10.0198 9.51928 9.23589C8.73538 8.45199 8.29499 7.38879 8.29499 6.28018ZM3.13268 20.9102C3.38818 18.6097 4.48301 16.4843 6.20765 14.9406C7.93229 13.3969 10.1656 12.5434 12.4802 12.5434C14.7948 12.5434 17.0281 13.3969 18.7528 14.9406C20.4774 16.4843 21.5723 18.6097 21.8277 20.9102H3.13268Z" fill="#F2EAD4"/>
</svg>
