<svg width="23" height="23" viewBox="0 0 23 23" fill="none" xmlns="http://www.w3.org/2000/svg">
<path d="M22.6159 20.8099L16.8201 15.0141C19.6021 11.3482 19.3237 6.08522 15.9802 2.7417C14.2125 0.973758 11.8616 0 9.36105 0C6.8605 0 4.50963 0.973758 2.7417 2.7417C0.973758 4.50963 0 6.8605 0 9.36105C0 11.8613 0.973758 14.2122 2.7417 15.9802C4.5666 17.8053 6.9637 18.7178 9.36105 18.7178C11.3556 18.7178 13.3491 18.0837 15.0141 16.8201L20.8099 22.6159C21.0589 22.8654 21.3861 22.9901 21.7129 22.9901C22.0396 22.9901 22.3668 22.8654 22.6159 22.6159C23.1147 22.1172 23.1147 21.3085 22.6159 20.8099ZM4.5482 14.1742C3.26229 12.8885 2.55445 11.1793 2.55445 9.36105C2.55445 7.54279 3.26229 5.83361 4.5482 4.54795C5.83361 3.26229 7.54305 2.55445 9.36105 2.55445C11.1791 2.55445 12.8885 3.26229 14.1742 4.5482C16.828 7.20203 16.828 11.5203 14.1742 14.1744C11.5201 16.8282 7.20177 16.8277 4.5482 14.1742Z" fill="#F2EAD4"/>
</svg>
