<svg width="15" height="23" viewBox="0 0 15 23" fill="none" xmlns="http://www.w3.org/2000/svg">
<path d="M14.7857 19.1665C14.7857 21.2834 11.4765 22.9998 7.39287 22.9998C3.30923 22.9998 0 21.2834 0 19.1665C0 17.6312 1.74472 16.3106 4.25829 15.6982L5.32472 17.4462C4.95415 17.5114 4.57988 17.5756 4.23611 17.6782C1.17547 18.5876 1.04517 19.6993 4.21671 20.6509C6.14625 21.2288 8.63118 21.2307 10.569 20.65C13.9134 19.6466 13.4929 18.4697 10.3214 17.6149C10.0478 17.5411 9.7475 17.5018 9.45641 17.451L10.5247 15.6992C13.041 16.3106 14.7857 17.6312 14.7857 19.1665Z" fill="#3B5540"/>
<path d="M7.189 0C4.27991 0 1.64435 2.44663 1.64435 5.46443C1.64435 8.48127 4.04888 12.0836 7.189 17.25C10.3291 12.0836 12.7337 8.48127 12.7337 5.46443C12.7337 2.44663 10.099 0 7.189 0ZM7.189 7.66668C6.16786 7.66668 5.34078 6.80897 5.34078 5.75001C5.34078 4.69105 6.16786 3.83334 7.189 3.83334C8.21014 3.83334 9.03722 4.69105 9.03722 5.75001C9.03722 6.80897 8.21014 7.66668 7.189 7.66668Z" fill="#3B5540"/>
</svg>
