<svg width="27" height="33" viewBox="0 0 27 33" fill="none" xmlns="http://www.w3.org/2000/svg">
<path d="M24 13.5V10.5C24 4.701 19.299 0 13.5 0C7.701 0 3 4.701 3 10.5V13.5H0V33H27V13.5H24ZM6 10.5C6 6.3645 9.3645 3 13.5 3C17.6355 3 21 6.3645 21 10.5V13.5H6V10.5ZM24 30H3V16.5H24V30Z" fill="#356746"/>
<path d="M12 23.4165V27H15V23.4165C15.4575 23.004 15.75 22.4145 15.75 21.75C15.75 20.508 14.742 19.5 13.5 19.5C12.258 19.5 11.25 20.508 11.25 21.75C11.25 22.4145 11.5425 23.004 12 23.4165Z" fill="#356746"/>
</svg>
