<svg width="298" height="22" viewBox="0 0 298 22" fill="none" xmlns="http://www.w3.org/2000/svg">
<path d="M11.2173 2.3308C12.3752 2.54467 13.3929 3.10517 14.2927 4.01966C15.185 4.93416 15.6349 6.34277 15.6349 8.24551C15.6349 10.1704 15.185 11.5864 14.2927 12.4861C13.4003 13.3932 12.3752 13.9464 11.2173 14.1602C10.0668 14.3741 8.6877 14.4774 7.09471 14.4774H4.0341V18.2828C4.0341 19.0351 4.12998 19.5882 4.32173 19.9422C4.51347 20.2962 4.89697 20.4732 5.47959 20.4732V21.0484H0V20.4732C0.575247 20.4732 0.958745 20.2962 1.15787 19.9422C1.34962 19.5882 1.44549 19.0351 1.44549 18.2828V4.77928C1.44549 4.02704 1.34962 3.47391 1.15787 3.11992C0.966119 2.76592 0.582622 2.58892 0 2.58892V2.01367H7.09471C8.6877 2.01367 10.0668 2.11692 11.2173 2.3308ZM11.6524 12.228C12.5743 11.4979 13.0389 10.1704 13.0389 8.24551C13.0389 6.32065 12.5743 4.99316 11.6524 4.26303C10.7306 3.53291 9.3072 3.16417 7.38233 3.16417H4.0341V13.3195H7.38233C9.3072 13.3269 10.7306 12.9581 11.6524 12.228Z" fill="#F2EAD4"/>
<path d="M33.0029 17.0438L32.5973 20.4806L32.5088 21.0558H19.0938V20.4806C19.669 20.4806 20.0525 20.3036 20.2516 19.9496C20.4434 19.5956 20.5392 19.0425 20.5392 18.2902V4.77928C20.5392 4.02704 20.4434 3.47391 20.2516 3.11992C20.0599 2.76592 19.6764 2.58892 19.0938 2.58892V2.01367H32.2212L32.3097 2.58892L32.7153 6.02565L32.1696 6.11415C32.0147 4.97841 31.7344 4.20403 31.3362 3.79104C30.9306 3.37804 30.3553 3.17154 29.6031 3.17154H23.1426V10.8194H27.1251C27.8773 10.8194 28.4304 10.7235 28.7844 10.5318C29.1384 10.34 29.3154 9.9565 29.3154 9.38126H29.8907V13.4227H29.3154C29.3154 12.8475 29.1384 12.464 28.7844 12.2722C28.4304 12.0805 27.8773 11.9846 27.1251 11.9846H23.1426V19.9201H29.8981C30.6503 19.9201 31.2256 19.7136 31.6312 19.3006C32.0368 18.8876 32.3171 18.1132 32.4646 16.9775L33.0029 17.0438Z" fill="#F2EAD4"/>
<path d="M37.2874 6.48243C38.0249 5.00007 39.0869 3.83482 40.4587 2.99408C41.8304 2.14596 43.4382 1.72559 45.2598 1.72559C47.0888 1.72559 48.6891 2.14596 50.0609 2.99408C51.4326 3.8422 52.4946 5.00744 53.2321 6.48243C53.9696 7.9648 54.3457 9.64629 54.3457 11.5343C54.3457 13.4223 53.977 15.1038 53.2321 16.5861C52.4946 18.0685 51.4326 19.2337 50.0609 20.0745C48.6818 20.9226 47.0814 21.343 45.2598 21.343C43.4308 21.343 41.8304 20.9226 40.4587 20.0745C39.0796 19.2264 38.0249 18.0611 37.2874 16.5861C36.5499 15.1038 36.1738 13.4223 36.1738 11.5343C36.1738 9.64629 36.5499 7.9648 37.2874 6.48243ZM41.0266 18.0537C42.1992 19.4402 43.7405 20.1335 45.6433 20.1335C45.835 20.1335 46.1595 20.1114 46.6241 20.0745C48.2761 19.8827 49.5594 19.1305 50.4739 17.8104C51.3884 16.4903 51.8456 14.794 51.8456 12.7143C51.8456 12.1759 51.794 11.5195 51.6981 10.7525C51.4105 8.31142 50.6804 6.39393 49.5078 5.00744C48.3351 3.62095 46.7938 2.9277 44.891 2.9277C44.6993 2.9277 44.3748 2.94983 43.9102 2.9867C42.2582 3.17845 40.9749 3.93807 40.0604 5.25082C39.1459 6.57093 38.6887 8.26718 38.6887 10.3469C38.6887 10.8853 38.7329 11.5417 38.8362 12.3087C39.1164 14.7571 39.8539 16.6673 41.0266 18.0537Z" fill="#F2EAD4"/>
<path d="M68.7564 2.3308C69.9142 2.54467 70.932 3.10517 71.8317 4.01966C72.7241 4.93416 73.174 6.34277 73.174 8.24551C73.174 10.1704 72.7241 11.5864 71.8317 12.4861C70.9394 13.3932 69.9142 13.9464 68.7564 14.1602C67.6059 14.3741 66.2268 14.4774 64.6338 14.4774H61.5732V18.2828C61.5732 19.0351 61.669 19.5882 61.8608 19.9422C62.0525 20.2962 62.436 20.4732 63.0187 20.4732V21.0484H57.5391V20.4732C58.1143 20.4732 58.4978 20.2962 58.6969 19.9422C58.8887 19.5882 58.9846 19.0351 58.9846 18.2828V4.77928C58.9846 4.02704 58.8887 3.47391 58.6969 3.11992C58.5052 2.76592 58.1217 2.58892 57.5391 2.58892V2.01367H64.6338C66.2268 2.01367 67.5985 2.11692 68.7564 2.3308ZM69.1841 12.228C70.106 11.4979 70.5706 10.1704 70.5706 8.24551C70.5706 6.32065 70.106 4.99316 69.1841 4.26303C68.2623 3.53291 66.8389 3.16417 64.914 3.16417H61.5658V13.3195H64.914C66.8389 13.3269 68.2623 12.9581 69.1841 12.228Z" fill="#F2EAD4"/>
<path d="M90.5342 17.0438L90.1285 20.4806L90.04 21.0558H76.625V20.4806C77.2002 20.4806 77.5837 20.3036 77.7829 19.9496C77.9746 19.5956 78.0705 19.0425 78.0705 18.2902V4.77928C78.0705 4.02704 77.9746 3.47391 77.7829 3.11992C77.5911 2.76592 77.2076 2.58892 76.625 2.58892V2.01367H82.1046V2.58892C81.5293 2.58892 81.1459 2.76592 80.9467 3.11992C80.755 3.47391 80.6591 4.02704 80.6591 4.77928V19.898H87.4146C88.1668 19.898 88.7421 19.6915 89.1477 19.2785C89.5533 18.8655 89.8335 18.0911 89.981 16.9553L90.5342 17.0438Z" fill="#F2EAD4"/>
<path d="M107.911 17.0438L107.506 20.4806L107.417 21.0558H94.002V20.4806C94.5772 20.4806 94.9607 20.3036 95.1598 19.9496C95.3516 19.5956 95.4475 19.0425 95.4475 18.2902V4.77928C95.4475 4.02704 95.3516 3.47391 95.1598 3.11992C94.9681 2.76592 94.5846 2.58892 94.002 2.58892V2.01367H107.129L107.218 2.58892L107.624 6.02565L107.078 6.11415C106.923 4.97841 106.643 4.20403 106.244 3.79104C105.839 3.37804 105.264 3.17154 104.511 3.17154H98.0508V10.8194H102.033C102.786 10.8194 103.339 10.7235 103.693 10.5318C104.047 10.34 104.224 9.9565 104.224 9.38126H104.799V13.4227H104.224C104.224 12.8475 104.047 12.464 103.693 12.2722C103.339 12.0805 102.786 11.9846 102.033 11.9846H98.0508V19.9201H104.806C105.559 19.9201 106.134 19.7136 106.539 19.3006C106.945 18.8876 107.225 18.1132 107.373 16.9775L107.911 17.0438Z" fill="#F2EAD4"/>
<path d="M113.796 5.3616C114.298 4.8011 114.549 4.16685 114.549 3.45886C114.335 3.65061 114.047 3.74648 113.686 3.74648C113.147 3.74648 112.727 3.56211 112.417 3.20073C112.108 2.83198 111.953 2.38211 111.953 1.84374C111.953 1.34224 112.122 0.90712 112.469 0.545747C112.816 0.184374 113.265 0 113.826 0C114.423 0 114.91 0.228624 115.286 0.678496C115.662 1.12837 115.847 1.79212 115.847 2.65499C115.847 3.65798 115.507 4.5946 114.822 5.46485C114.136 6.34247 113.229 6.94721 112.093 7.29384L111.945 6.71859C112.683 6.37196 113.295 5.91472 113.796 5.3616Z" fill="#F2EAD4"/>
<path d="M121.776 2.97933C123.17 2.14596 124.918 1.72559 127.012 1.72559C128.937 1.72559 130.567 2.10171 131.902 2.85395C133.237 3.6062 133.908 4.77144 133.908 6.34231C133.908 6.97656 133.805 7.6108 133.591 8.24505L130.995 7.6698C131.305 6.97656 131.46 6.34231 131.46 5.76706C131.46 4.80832 131.047 4.08557 130.221 3.6062C129.395 3.12683 128.318 2.88345 126.99 2.88345C125.434 2.88345 124.262 3.17108 123.472 3.73157C122.683 4.29945 122.292 5.11069 122.292 6.17269C122.292 6.84381 122.506 7.41168 122.927 7.86155C123.347 8.31142 123.885 8.68017 124.527 8.96042C125.169 9.24067 126.024 9.54304 127.079 9.86754C128.967 10.4649 130.375 10.9664 131.319 11.3647C132.263 11.7703 133.045 12.3382 133.672 13.0683C134.299 13.7984 134.609 14.7719 134.609 15.9814C134.609 17.921 133.93 19.3075 132.573 20.1187C131.216 20.9374 129.461 21.343 127.307 21.343C125.021 21.343 123.067 20.8931 121.452 19.986C119.837 19.0789 119.025 17.5891 119.025 15.5168C119.025 14.8825 119.114 14.1819 119.284 13.4075L121.879 13.9828C121.651 14.7498 121.533 15.443 121.533 16.0625C121.533 17.508 122.093 18.5552 123.222 19.2042C124.35 19.8606 125.729 20.1851 127.359 20.1851C130.457 20.1851 132.005 18.9609 132.005 16.5198C132.005 15.7896 131.806 15.1849 131.415 14.7055C131.024 14.2261 130.493 13.8279 129.83 13.5255C129.166 13.2158 128.244 12.8839 127.071 12.5152L126.238 12.257C124.697 11.7777 123.509 11.3499 122.661 10.9738C121.813 10.5977 121.105 10.074 120.537 9.40292C119.969 8.7318 119.689 7.85418 119.689 6.77743C119.682 5.08119 120.382 3.8127 121.776 2.97933Z" fill="#F2EAD4"/>
<path d="M192.856 2.3308C194.013 2.54467 195.031 3.10517 195.931 4.01966C196.823 4.93416 197.273 6.34277 197.273 8.24551C197.273 10.1704 196.823 11.5864 195.931 12.4861C195.039 13.3932 194.013 13.9464 192.856 14.1602C191.705 14.3741 190.326 14.4774 188.733 14.4774H185.672V18.2828C185.672 19.0351 185.768 19.5882 185.96 19.9422C186.152 20.2962 186.535 20.4732 187.11 20.4732V21.0484H181.631V20.4732C182.206 20.4732 182.59 20.2962 182.781 19.9422C182.973 19.5882 183.069 19.0351 183.069 18.2828V4.77928C183.069 4.02704 182.973 3.47391 182.781 3.11992C182.59 2.76592 182.206 2.58892 181.631 2.58892V2.01367H188.726C190.326 2.01367 191.698 2.11692 192.856 2.3308ZM193.291 12.228C194.213 11.4979 194.677 10.1704 194.677 8.24551C194.677 6.32065 194.213 4.99316 193.291 4.26303C192.369 3.53291 190.945 3.16417 189.021 3.16417H185.672V13.3195H189.021C190.938 13.3269 192.361 12.9581 193.291 12.228Z" fill="#F2EAD4"/>
<path d="M216.122 19.9712C216.558 20.3104 217.118 20.4727 217.811 20.4727V21.0479H210.429V20.4727C211.218 20.4727 211.779 20.3989 212.103 20.244C212.428 20.0892 212.597 19.8532 212.597 19.5213C212.597 19.2927 212.509 18.9313 212.339 18.4519L210.001 12.3602H203.246L200.908 18.4519C200.738 18.9313 200.65 19.2853 200.65 19.5213C200.65 19.8458 200.812 20.0892 201.136 20.244C201.461 20.3989 202.021 20.4727 202.811 20.4727V21.0479H196.984V20.4727C197.678 20.4727 198.238 20.303 198.673 19.9712C199.108 19.6319 199.448 19.1304 199.698 18.4593L205.237 4.06337C205.311 3.83475 205.355 3.6135 205.355 3.39962C205.355 3.12675 205.244 2.92763 205.023 2.79488C204.802 2.66213 204.411 2.59576 203.858 2.59576V2.02051H208.792L215.112 18.4667C215.348 19.1304 215.695 19.6393 216.122 19.9712ZM203.703 11.2171H209.559L206.616 3.62825L203.703 11.2171Z" fill="#F2EAD4"/>
<path d="M220.408 20.4806C220.983 20.4806 221.367 20.3036 221.559 19.9496C221.75 19.5956 221.846 19.0425 221.846 18.2902V4.77928C221.846 4.02704 221.75 3.47391 221.559 3.11992C221.367 2.76592 220.983 2.58892 220.408 2.58892V2.01367H222.141C222.894 2.05055 223.52 2.22755 224.029 2.54467C224.538 2.86179 225.128 3.45179 225.807 4.32203L236.537 18.1427V4.77928C236.537 4.02704 236.441 3.47391 236.25 3.11992C236.058 2.76592 235.674 2.58892 235.099 2.58892V2.01367H239.141V2.58892C238.565 2.58892 238.182 2.76592 237.99 3.11992C237.798 3.47391 237.702 4.02704 237.702 4.77928V21.0558C236.854 21.0558 236.161 20.9009 235.623 20.5912C235.084 20.2814 234.458 19.6693 233.75 18.7475L223.019 4.92678V18.2828C223.019 19.0351 223.115 19.5882 223.307 19.9422C223.498 20.2962 223.882 20.4732 224.457 20.4732V21.0484H220.416V20.4806H220.408Z" fill="#F2EAD4"/>
<path d="M258.875 6.02565L258.329 6.11415C258.175 4.97841 257.894 4.20403 257.496 3.79104C257.09 3.37804 256.515 3.17154 255.763 3.17154H251.898V18.2902C251.898 19.0425 251.994 19.5956 252.186 19.9496C252.378 20.3036 252.761 20.4806 253.337 20.4806V21.0558H247.857V20.4806C248.432 20.4806 248.816 20.3036 249.007 19.9496C249.199 19.5956 249.295 19.0425 249.295 18.2902V3.17154H245.431C244.678 3.17154 244.103 3.37804 243.697 3.79104C243.292 4.20403 243.012 4.97841 242.864 6.11415L242.318 6.02565L242.724 2.58892L242.812 2.01367H258.396L258.484 2.58892L258.875 6.02565Z" fill="#F2EAD4"/>
<path d="M277.121 19.4555C277.762 20.1413 278.529 20.4806 279.414 20.4806V21.0558C278.05 21.0558 276.988 20.9673 276.243 20.7829C275.491 20.5986 274.849 20.1708 274.311 19.4997C273.773 18.8286 273.323 17.7666 272.954 16.3285C272.57 14.8461 272.157 13.7399 271.715 12.995C271.272 12.2575 270.675 11.7412 269.923 11.4536C269.171 11.166 268.116 11.0185 266.752 11.0185H266.375V18.2902C266.375 19.0425 266.471 19.5956 266.663 19.9496C266.855 20.3036 267.238 20.4806 267.814 20.4806V21.0558H262.334V20.4806C262.909 20.4806 263.293 20.3036 263.484 19.9496C263.676 19.5956 263.772 19.0425 263.772 18.2902V4.77928C263.772 4.02704 263.676 3.47391 263.484 3.11992C263.293 2.76592 262.909 2.58892 262.334 2.58892V2.01367H269.141C270.351 2.01367 271.442 2.08742 272.416 2.2423C273.389 2.39717 274.267 2.80279 275.056 3.46654C275.845 4.13028 276.236 5.14803 276.236 6.5124C276.236 8.95351 274.916 10.399 272.283 10.8415C273.072 11.2471 273.714 11.8224 274.215 12.5746C274.717 13.3269 275.122 14.3077 275.425 15.5172C275.911 17.4568 276.479 18.7696 277.121 19.4555ZM269.429 9.86063C272.239 9.86063 273.64 8.74701 273.64 6.5124C273.64 4.27778 272.239 3.16417 269.429 3.16417H266.368V9.86063H269.429Z" fill="#F2EAD4"/>
<path d="M297.999 2.58892C296.731 2.58892 295.735 3.19367 295.027 4.40316L289.865 13.3785V18.2828C289.865 19.0351 289.961 19.5882 290.153 19.9422C290.344 20.2962 290.728 20.4732 291.303 20.4732V21.0484H285.823V20.4732C286.399 20.4732 286.782 20.2962 286.974 19.9422C287.166 19.5882 287.262 19.0351 287.262 18.2828V13.3785L282.099 4.40316C281.384 3.19367 280.395 2.58892 279.127 2.58892V2.01367H286.627V2.58892C285.912 2.58892 285.41 2.64792 285.115 2.75854C284.82 2.87654 284.666 3.04617 284.666 3.27479C284.666 3.48866 284.82 3.86479 285.13 4.40316L289.4 11.874L293.641 4.43266C293.951 3.89429 294.105 3.51079 294.105 3.28216C294.105 3.05354 293.958 2.87654 293.656 2.76592C293.361 2.64792 292.844 2.59629 292.114 2.59629V2.02105H297.999V2.58892Z" fill="#F2EAD4"/>
<path d="M153.709 11.5423C153.009 11.1588 152.927 10.318 152.728 9.25603C152.492 7.95803 152.441 6.84441 151.77 6.70429C150.472 6.44616 150.331 8.59228 150.354 10.4508C150.383 12.383 150.258 17.8036 154.749 20.053C157.773 21.5648 161.084 20.053 163.061 17.4717C164.477 15.6206 165.937 12.4789 166.468 11.2989C166.822 10.5245 167.198 9.5584 166.711 9.2044C166.247 8.86515 165.76 9.19702 165.126 10.3033C164.816 10.8416 164.455 11.5275 164.13 12.0143C163.85 12.442 163.636 12.7518 163.437 12.6338C163.142 12.4641 163.496 11.8741 163.776 11.3063C164.255 10.3401 164.941 9.02003 165.516 7.84741C165.996 6.87391 166.416 5.90779 165.752 5.47267C165.148 5.07442 164.521 5.79717 164.027 6.60842C163.459 7.53766 162.884 8.66603 162.301 9.68377C161.859 10.4581 161.497 11.0998 161.18 10.8859C160.863 10.672 161.224 9.97877 161.527 9.3814C162.117 8.20878 163.075 6.46829 163.717 5.13342C164.233 4.05668 164.823 2.86193 164.056 2.47844C163.252 2.08019 162.434 3.12006 161.814 4.35168C161.143 5.68654 160.295 7.30166 159.646 8.57015C159.381 9.0864 159.078 9.3519 158.945 9.3224C158.724 9.27078 158.798 8.85778 159.019 8.2604C159.373 7.27954 160.089 5.79717 160.597 4.60243C161.313 2.93568 161.438 2.05069 160.782 1.71882C160.125 1.38694 159.307 2.14656 158.665 3.33393C157.574 5.3473 156.438 7.93591 155.693 9.35927C155.11 10.4876 154.41 11.9184 153.709 11.5423Z" fill="#EDFA70"/>
</svg>
