<svg width="35" height="36" viewBox="0 0 35 36" fill="none" xmlns="http://www.w3.org/2000/svg">
<path d="M18.6208 4.25148V0H16.3779V4.25148C9.93705 4.79306 4.79372 9.93705 4.2528 16.3799H0V18.6227H4.2528C4.79372 25.0636 9.93705 30.2063 16.3779 30.7479V35.0013H18.6208V30.7479C25.063 30.2063 30.2063 25.0636 30.7472 18.6227H35V16.3799H30.7472C30.2056 9.93705 25.0623 4.79306 18.6208 4.25148ZM18.6208 28.5044V25.1137H16.3779V28.5044C11.1726 27.9773 7.02269 23.8274 6.49629 18.6227H9.88626V16.3799H6.49563C7.02137 11.1726 11.1726 7.02137 16.3773 6.49497V9.88626H18.6201V6.49497C23.8268 7.02203 27.9767 11.1732 28.5031 16.3799H25.1131V18.6227H28.5031C27.9767 23.8274 23.8268 27.9773 18.6208 28.5044Z" fill="#010101"/>
<path d="M17.4994 15.3892C16.3358 15.3892 15.3892 16.3364 15.3892 17.4994C15.3892 18.6624 16.3364 19.6096 17.4994 19.6096C18.6624 19.6096 19.6096 18.6624 19.6096 17.4994C19.6096 16.3364 18.663 15.3892 17.4994 15.3892ZM17.3668 17.5001C17.3668 17.4275 17.4262 17.3675 17.4994 17.3675C17.5726 17.3675 17.632 17.4275 17.632 17.5001C17.6326 17.6445 17.3668 17.6458 17.3668 17.5001Z" fill="#010101"/>
</svg>
