<svg width="21" height="19" viewBox="0 0 21 19" fill="none" xmlns="http://www.w3.org/2000/svg">
<path d="M18.9734 0H6.1805C5.44868 0 4.85547 0.593215 4.85547 1.32503V4.90229H6.1805V1.32503H18.9734V9.42506H16.8315V10.7501H18.9734C19.7051 10.7501 20.2984 10.1569 20.2984 9.42506V1.32503C20.2984 0.593259 19.7052 0 18.9734 0Z" fill="#3B5540"/>
<path d="M14.1179 6.22754H1.32503C0.593392 6.22754 0 6.82058 0 7.55257V15.6526C0 16.3844 0.593215 16.9776 1.32503 16.9776H5.40316L6.70747 18.5283C7.23704 19.158 8.20674 19.157 8.73551 18.5283L10.0398 16.9776H14.118C14.5296 16.9776 14.8974 16.7899 15.1404 16.4954C15.1539 16.4791 15.167 16.4624 15.1797 16.4454C15.3451 16.2243 15.443 15.9499 15.443 15.6526V7.55257C15.4429 6.82084 14.8498 6.22754 14.1179 6.22754ZM14.1179 15.6526H9.42289L7.72147 17.6754L6.02004 15.6526H1.32503V7.55257H14.1179V15.6526Z" fill="#3B5540"/>
<path d="M3.53361 10.7371H11.9087C12.2746 10.7371 12.5712 10.4405 12.5712 10.0746C12.5712 9.70874 12.2746 9.41211 11.9087 9.41211H3.53361C3.16772 9.41211 2.87109 9.70874 2.87109 10.0746C2.87109 10.4405 3.16772 10.7371 3.53361 10.7371Z" fill="#3B5540"/>
<path d="M3.53361 13.7303H6.96194C7.32783 13.7303 7.62446 13.4337 7.62446 13.0678C7.62446 12.7019 7.32783 12.4053 6.96194 12.4053H3.53361C3.16772 12.4053 2.87109 12.7019 2.87109 13.0678C2.87109 13.4337 3.16772 13.7303 3.53361 13.7303Z" fill="#3B5540"/>
</svg>
