<svg width="23" height="23" viewBox="0 0 23 23" fill="none" xmlns="http://www.w3.org/2000/svg">
<path fill-rule="evenodd" clip-rule="evenodd" d="M11.5 0C17.8508 0 23 5.14917 23 11.5C23 17.8508 17.8508 23 11.5 23C5.14917 23 0 17.8508 0 11.5C0 5.14917 5.14917 0 11.5 0ZM10.1486 7.04712C10.1486 5.28206 12.8383 5.28019 12.8383 7.05086V11.8706L15.8761 13.4784C15.8911 13.4859 15.9061 13.4953 15.9192 13.5065L15.9454 13.5252C17.3567 14.4499 16.0446 16.6716 14.536 15.7994L14.5304 15.7957L10.8542 13.8266C10.4237 13.5964 10.1449 13.1396 10.1449 12.6493H10.1467L10.1486 7.04712Z" fill="#FF7900"/>
</svg>
