<?xml version="1.0" encoding="utf-8"?>
<!-- Generator: Adobe Illustrator 26.0.1, SVG Export Plug-In . SVG Version: 6.00 Build 0)  -->
<svg version="1.1" id="Layer_1" xmlns="http://www.w3.org/2000/svg" xmlns:xlink="http://www.w3.org/1999/xlink" x="0px" y="0px"
	 viewBox="0 0 41.62 43.79" style="enable-background:new 0 0 41.62 43.79;" xml:space="preserve">
<style type="text/css">
	.st0{fill:#356746;stroke:#EDFA70;stroke-width:1.5;stroke-miterlimit:10;}
</style>
<path class="st0" d="M10.05,23.37C8.66,22.6,8.49,20.92,8.1,18.8c-0.47-2.6-0.57-4.83-1.9-5.09c-2.58-0.51-2.87,3.78-2.81,7.48
	c0.06,3.87-0.18,14.69,8.74,19.18c6.01,3.03,12.6,0,16.53-5.15c2.82-3.7,5.71-9.98,6.78-12.33c0.7-1.54,1.46-3.48,0.49-4.18
	c-0.92-0.68-1.88-0.02-3.16,2.19c-0.61,1.07-1.34,2.44-1.98,3.43c-0.56,0.86-0.98,1.47-1.38,1.23c-0.59-0.33,0.12-1.52,0.68-2.66
	c0.95-1.93,2.31-4.57,3.46-6.91c0.95-1.94,1.79-3.87,0.47-4.74c-1.21-0.79-2.46,0.65-3.43,2.27c-1.13,1.86-2.28,4.11-3.44,6.14
	c-0.89,1.55-1.6,2.83-2.23,2.39c-0.63-0.43,0.09-1.81,0.69-3.01c1.18-2.35,3.08-5.83,4.36-8.49c1.03-2.15,2.2-4.53,0.67-5.3
	c-1.59-0.8-3.23,1.28-4.46,3.74c-1.34,2.67-3.02,5.9-4.32,8.43c-0.53,1.03-1.13,1.56-1.4,1.51c-0.43-0.09-0.29-0.93,0.14-2.13
	c0.71-1.95,2.12-4.93,3.14-7.31c1.42-3.33,1.67-5.1,0.37-5.77c-1.3-0.67-2.92,0.85-4.2,3.22c-2.17,4.03-4.43,9.2-5.9,12.04
	C12.83,21.26,11.44,24.13,10.05,23.37z"/>
</svg>
