<svg width="12" height="13" viewBox="0 0 12 13" fill="none" xmlns="http://www.w3.org/2000/svg">
<path d="M2.744 0.639999C1.496 0.639999 0.296 1.552 0.296 3.264C0.296 4.944 1.496 5.872 2.744 5.872C3.992 5.872 5.176 4.944 5.176 3.264C5.176 1.552 3.992 0.639999 2.744 0.639999ZM1.992 12H3.144L9.72 0.912V0.719999H8.584L1.992 11.808V12ZM1.448 3.248C1.448 2.288 2.088 1.744 2.744 1.744C3.4 1.744 4.024 2.288 4.024 3.248C4.024 4.208 3.4 4.768 2.744 4.768C2.088 4.768 1.448 4.208 1.448 3.248ZM6.552 9.472C6.552 11.152 7.752 12.08 9 12.08C10.248 12.08 11.432 11.152 11.432 9.472C11.432 7.76 10.248 6.848 9 6.848C7.752 6.848 6.552 7.76 6.552 9.472ZM9 10.976C8.344 10.976 7.704 10.416 7.704 9.456C7.704 8.496 8.344 7.952 9 7.952C9.656 7.952 10.28 8.496 10.28 9.456C10.28 10.416 9.656 10.976 9 10.976Z" fill="#5E4C2A"/>
</svg>
