<svg width="22" height="32" viewBox="0 0 22 32" fill="none" xmlns="http://www.w3.org/2000/svg">
<path fill-rule="evenodd" clip-rule="evenodd" d="M5.99209 1.71867L3.89787 2.748C-3.85904 6.77467 7.64443 30.6733 16.3641 30.6733C16.98 30.6733 17.5746 30.548 18.1276 30.2947L20.1923 29.288L16.3119 21.8293L14.2498 22.8347C14.0074 22.9507 13.7356 23.0133 13.4504 23.0133C10.0212 23.0133 4.2902 12.0747 7.77164 10.2187L9.84175 9.20133L5.99209 1.71867ZM16.3641 32C8.75849 32 0 17.1813 0 8.224C0 4.99867 1.1154 2.696 3.28996 1.568L6.47949 0L11.6441 9.796L8.38089 11.3973C6.45405 12.4267 11.6066 22.6293 13.678 21.6373L16.8903 20.0653L22 29.8787C22 29.8787 18.8399 31.428 18.6846 31.4987C17.9522 31.8333 17.1729 32 16.3641 32Z" fill="#356746"/>
</svg>
