<svg width="48" height="47" viewBox="0 0 48 47" fill="none" xmlns="http://www.w3.org/2000/svg">
<path d="M47.6514 37.1046C47.5407 37.6625 47.1946 37.9734 46.6369 38.0317C45.9897 38.0977 45.6435 38.4185 45.494 39.0754C45.3831 39.5654 45.0759 40.0084 44.8933 40.4866C44.8273 40.6615 44.7923 40.9259 44.8778 41.0697C45.8381 42.6831 45.4259 42.6946 44.4715 43.6781C44.2442 43.9133 44.0127 44.1446 43.7777 44.3721C43.4238 44.7161 42.9846 44.8308 42.59 44.5392C41.869 44.0066 41.2041 44.0125 40.4927 44.5373C40.2869 44.6908 40.0206 44.8113 39.7677 44.8445C39.136 44.9241 38.9261 45.338 38.7572 45.8764C38.4382 46.8912 38.2516 47 37.1769 47C36.8192 47 36.4597 47 36.102 47C35.4721 46.9981 35.0853 46.8308 34.9805 46.2419C34.7939 45.204 34.1622 44.8153 33.2506 44.4245C32.3895 44.0553 31.7364 43.9484 30.9764 44.5197C30.578 44.8191 30.1425 44.6849 29.7926 44.3411C29.3475 43.9037 28.9064 43.4645 28.469 43.0212C28.1212 42.6694 28.0103 42.2379 28.2979 41.8356C28.85 41.0638 28.8946 40.3369 28.3057 39.5731C28.1774 39.4058 28.0862 39.1823 28.057 38.9743C27.9734 38.3835 27.5807 38.1873 27.0695 38.0317C26.0162 37.7109 25.8956 37.5187 25.8857 36.4397C25.882 36.0665 25.878 35.6914 25.8761 35.3182C25.8742 34.7333 26.0587 34.3154 26.6089 34.224C27.6897 34.0433 28.092 33.3669 28.4768 32.4241C28.8053 31.6215 28.8772 31.0267 28.3738 30.3153C28.022 29.8196 28.1153 29.4443 28.5313 29.0206C28.9451 28.599 29.3651 28.179 29.7888 27.767C30.1698 27.3976 30.5935 27.2909 31.0114 27.6096C31.7538 28.1771 32.3954 28.0994 33.2409 27.7417C34.098 27.3783 34.8249 27.1003 34.961 26.0489C35.0096 25.6736 35.3828 25.4733 35.7716 25.4559C36.4557 25.4287 37.1419 25.4132 37.826 25.4228C38.2672 25.4308 38.5743 25.7048 38.6657 26.113C38.8368 26.8768 39.2547 27.3179 40.0399 27.4463C40.3237 27.493 40.6269 27.6115 40.8523 27.7865C41.3616 28.1809 41.7874 28.0314 42.2772 27.7398C43.1401 27.2246 43.3305 27.2733 44.0536 28.0002C44.4054 28.3541 44.7591 28.7038 45.1072 29.0615C45.4414 29.4037 45.5464 29.8333 45.2569 30.2062C44.7067 30.9157 44.664 31.5766 45.1577 32.3385C45.3793 32.6788 45.42 33.1336 45.5796 33.5185C45.6397 33.6602 45.7894 33.808 45.9333 33.8626C46.2209 33.9751 46.5318 34.0238 46.8331 34.1035C47.4279 34.2609 47.5523 34.4301 47.5737 35.056C47.595 35.6449 47.6242 36.2338 47.6514 36.8228C47.6514 36.918 47.6514 37.0113 47.6514 37.1046ZM30.4419 36.0879C30.4342 39.6138 33.2915 42.5002 36.8056 42.5138C40.316 42.5275 43.2062 39.6587 43.2294 36.1405C43.2529 32.636 40.3684 29.732 36.8561 29.7205C33.3302 29.7106 30.4497 32.57 30.4419 36.0879Z" fill="#356746"/>
<path d="M0.00725026 23.4508C0.00725026 20.5838 0.00141891 17.7168 0.0130811 14.8499C0.0150248 14.4183 0.0441807 13.9713 0.153028 13.5554C0.475682 12.3094 1.535 11.6641 2.76732 12.0412C4.04433 12.4319 5.28635 12.9334 6.54005 13.4018C10.0659 14.7196 13.5879 16.0472 17.1119 17.367C19.1799 18.1405 20.4298 19.9288 20.4298 22.1349C20.4317 27.8998 20.4317 33.6668 20.4278 39.4319C20.4278 40.8274 19.732 41.8149 18.5502 42.1085C17.9399 42.2601 17.349 42.1686 16.7659 41.947C12.653 40.3785 8.53817 38.8138 4.42334 37.2491C4.03072 37.0994 3.63809 36.9478 3.24545 36.8021C1.19291 36.0325 0.0208562 34.3627 0.00725026 32.147C-0.00635568 29.9816 0.00336275 27.8143 0.00336275 25.6491C0.00725016 24.9164 0.00725026 24.1836 0.00725026 23.4508Z" fill="#356746"/>
<path d="M21.1017 15.995C20.1415 15.7792 19.0939 15.6568 18.1279 15.3089C12.9207 13.4293 7.73292 11.4973 2.54516 9.5691C2.15837 9.42527 1.7774 9.21146 1.46253 8.94712C0.791947 8.38539 0.790004 7.53598 1.45669 6.96453C1.75602 6.70796 2.12533 6.5 2.49658 6.36198C7.7854 4.39302 13.0723 2.41433 18.3805 0.499775C20.2309 -0.166915 22.1727 -0.166915 24.0232 0.501719C29.3178 2.41043 34.5891 4.38329 39.8642 6.34837C40.2647 6.49805 40.6592 6.72157 40.98 7.00147C41.6096 7.54764 41.604 8.364 40.98 8.9199C40.6961 9.17259 40.3483 9.3864 39.9906 9.51857C34.6436 11.5089 29.2964 13.4993 23.9299 15.4391C23.0707 15.7481 22.1144 15.8026 21.1017 15.995Z" fill="#356746"/>
<path d="M42.9631 26.605C42.5025 26.8381 42.1411 27.0405 41.7601 27.2017C41.6163 27.2619 41.4276 27.2464 41.2645 27.225C41.1477 27.2095 41.0428 27.1143 40.9242 27.0753C40.0748 26.7994 39.3052 26.4807 39.0175 25.4758C38.8852 25.013 38.3858 24.8227 37.8688 24.8342C37.2312 24.8478 36.5917 24.8441 35.9522 24.8518C35.0815 24.8615 34.5332 25.221 34.2806 26.0607C34.1213 26.5895 33.8667 26.9336 33.3029 27.0034C33.2874 27.0055 33.2719 27.0092 33.2583 27.0151C32.5391 27.4019 31.8821 27.4797 31.1338 26.951C30.6149 26.5836 29.9463 26.7197 29.4485 27.1745C28.92 27.6565 28.4126 28.1639 27.9209 28.6868C27.4368 29.2019 27.3299 29.9189 27.7284 30.541C28.1054 31.1299 28.0626 31.6061 27.8022 32.2456C27.5146 32.9513 27.186 33.3865 26.4105 33.5771C25.5807 33.7811 25.2016 34.442 25.2056 35.3012C25.2075 35.7987 25.2112 36.2983 25.2152 36.7959C25.223 37.6433 25.5825 38.2633 26.4009 38.4927C27.0831 38.6833 27.4445 39.0583 27.6255 39.7056C27.6953 39.9563 27.8295 40.1953 27.9674 40.4188C28.1696 40.7514 28.053 41.0158 27.7635 41.1516C27.0326 41.4919 26.2998 41.8592 25.5283 42.079C24.0782 42.4928 22.7875 41.5871 22.5873 40.0905C22.5484 39.7989 22.5348 39.4995 22.5348 39.2062C22.5309 33.5189 22.5309 27.8334 22.5329 22.1461C22.5329 19.8448 23.6973 18.146 25.8333 17.3355C30.3408 15.625 34.8463 13.9126 39.3616 12.2235C39.8163 12.0544 40.3293 11.9572 40.8135 11.967C41.8941 11.9864 42.7124 12.76 42.8816 13.8349C42.9321 14.1556 42.9554 14.486 42.9573 14.8106C42.9631 18.6125 42.9613 22.4124 42.9613 26.2144C42.9631 26.3738 42.9631 26.5272 42.9631 26.605Z" fill="#356746"/>
<path d="M36.8189 30.3359C40.0026 30.3301 42.5974 32.9075 42.6072 36.0815C42.6169 39.2944 40.0454 41.8854 36.8403 41.8913C33.6429 41.8972 31.0324 39.2925 31.0423 36.1029C31.0538 32.9307 33.6467 30.3418 36.8189 30.3359ZM38.8715 36.0834C38.8734 34.8705 37.9248 33.9124 36.7178 33.9046C35.4854 33.8969 34.5019 34.8609 34.5019 36.0797C34.5019 37.2963 35.4854 38.2662 36.7138 38.2603C37.9171 38.2547 38.8715 37.2926 38.8715 36.0834Z" fill="#356746"/>
</svg>
