<svg width="34" height="31" viewBox="0 0 34 31" fill="none" xmlns="http://www.w3.org/2000/svg">
<path fill-rule="evenodd" clip-rule="evenodd" d="M3.06142 16.6825L0 14.9347L4.25 10.2955L0 6.32934L12.3505 0L16.9051 3.35083L21.6155 0L34 6.40802L29.7571 10.3012L34 15.1384L30.8238 16.882L22.4612 21.4748L17.7183 16.4998L28.2243 10.9334L17.0014 4.79091L5.77717 10.9334L16.2917 16.4647V16.4984L11.6209 21.5872L4.25 17.3611L4.02333 17.2318L3.06142 16.6797V16.6825Z" fill="#356746"/>
<path fill-rule="evenodd" clip-rule="evenodd" d="M16.2917 30.9096L4.25 24.5381V18.9843L11.9 23.3706L16.2917 18.5853V30.9096ZM17.7083 30.9082V18.5361L22.1878 23.2329L29.75 19.077V24.5381L17.7083 30.9082Z" fill="#356746"/>
</svg>
