<svg width="21" height="20" viewBox="0 0 21 20" fill="none" xmlns="http://www.w3.org/2000/svg">
<path d="M20.2761 15.7883C20.229 16.0257 20.0817 16.158 19.8444 16.1828C19.569 16.2109 19.4217 16.3474 19.3581 16.6269C19.3109 16.8354 19.1802 17.0239 19.1025 17.2274C19.0744 17.3018 19.0595 17.4143 19.0959 17.4755C19.5045 18.162 19.3291 18.1669 18.923 18.5854C18.8263 18.6855 18.7278 18.7839 18.6278 18.8807C18.4772 19.0271 18.2903 19.0759 18.1224 18.9518C17.8156 18.7252 17.5327 18.7277 17.23 18.951C17.1424 19.0163 17.0291 19.0676 16.9215 19.0817C16.6527 19.1156 16.5634 19.2917 16.4915 19.5208C16.3558 19.9526 16.2764 19.9989 15.8191 19.9989C15.6669 19.9989 15.5139 19.9989 15.3617 19.9989C15.0937 19.9981 14.9291 19.9269 14.8845 19.6763C14.8051 19.2347 14.5363 19.0693 14.1484 18.903C13.782 18.7459 13.5041 18.7004 13.1807 18.9435C13.0112 19.0709 12.8259 19.0138 12.677 18.8675C12.4876 18.6814 12.2999 18.4945 12.1138 18.3059C11.9658 18.1562 11.9186 17.9726 12.041 17.8014C12.2759 17.473 12.2949 17.1637 12.0443 16.8387C11.9897 16.7675 11.9509 16.6724 11.9385 16.5839C11.9029 16.3325 11.7358 16.249 11.5183 16.1828C11.0701 16.0463 11.0188 15.9645 11.0146 15.5054C11.013 15.3466 11.0113 15.187 11.0105 15.0282C11.0097 14.7793 11.0882 14.6015 11.3223 14.5626C11.7822 14.4857 11.9534 14.1979 12.1171 13.7967C12.2569 13.4552 12.2875 13.2021 12.0733 12.8994C11.9236 12.6885 11.9633 12.5288 12.1403 12.3485C12.3164 12.1691 12.4951 11.9904 12.6754 11.8151C12.8375 11.6579 13.0178 11.6125 13.1956 11.7481C13.5115 11.9896 13.7845 11.9565 14.1443 11.8043C14.509 11.6497 14.8183 11.5314 14.8762 11.084C14.8969 10.9243 15.0557 10.8391 15.2211 10.8317C15.5122 10.8201 15.8042 10.8135 16.0953 10.8176C16.283 10.821 16.4137 10.9376 16.4526 11.1113C16.5254 11.4363 16.7032 11.624 17.0373 11.6786C17.1581 11.6985 17.2871 11.7489 17.383 11.8234C17.5997 11.9912 17.7809 11.9276 17.9893 11.8035C18.3565 11.5843 18.4375 11.605 18.7452 11.9143C18.8949 12.0649 19.0454 12.2137 19.1935 12.3659C19.3357 12.5115 19.3804 12.6943 19.2572 12.853C19.0231 13.1549 19.0049 13.4361 19.215 13.7603C19.3093 13.9051 19.3266 14.0986 19.3945 14.2624C19.4201 14.3227 19.4838 14.3856 19.545 14.4088C19.6674 14.4567 19.7997 14.4774 19.9279 14.5113C20.181 14.5783 20.2339 14.6503 20.243 14.9166C20.2521 15.1672 20.2645 15.4178 20.2761 15.6684C20.2761 15.7089 20.2761 15.7486 20.2761 15.7883ZM12.9533 15.3557C12.95 16.856 14.1658 18.0842 15.6611 18.09C17.1548 18.0958 18.3846 16.8751 18.3945 15.3781C18.4045 13.8869 17.1771 12.6512 15.6826 12.6463C14.1823 12.6421 12.9566 13.8588 12.9533 15.3557Z" fill="#356746"/>
<path d="M0.00308505 9.97857C0.00308505 8.75865 0.000603757 7.53873 0.00556614 6.31881C0.0063932 6.1352 0.0187993 5.94498 0.0651149 5.76799C0.202407 5.23784 0.653157 4.96325 1.17752 5.1237C1.7209 5.28994 2.24939 5.50333 2.78285 5.70265C4.28314 6.2634 5.78178 6.82828 7.28125 7.38986C8.16124 7.71903 8.69305 8.47993 8.69305 9.41865C8.69387 11.8717 8.69387 14.3256 8.69222 16.7787C8.69222 17.3725 8.39613 17.7927 7.89328 17.9176C7.63358 17.9821 7.38215 17.9432 7.13403 17.8489C5.38396 17.1815 3.63307 16.5157 1.88217 15.8499C1.71511 15.7862 1.54804 15.7217 1.38097 15.6597C0.507594 15.3322 0.0088745 14.6217 0.00308505 13.6789C-0.0027044 12.7575 0.00143088 11.8353 0.00143088 10.914C0.00308501 10.6022 0.00308505 10.2904 0.00308505 9.97857Z" fill="#356746"/>
<path d="M8.97899 6.80601C8.57043 6.71421 8.12464 6.6621 7.71359 6.51406C5.49788 5.71429 3.29045 4.89219 1.08301 4.07174C0.918429 4.01054 0.756324 3.91956 0.62234 3.80708C0.337003 3.56806 0.336176 3.20663 0.619859 2.96347C0.747226 2.8543 0.904368 2.76581 1.06234 2.70708C3.31278 1.86927 5.56239 1.02732 7.82111 0.212659C8.60847 -0.071024 9.43471 -0.071024 10.2221 0.213486C12.475 1.02566 14.718 1.86513 16.9626 2.70129C17.133 2.76498 17.3009 2.86009 17.4374 2.97919C17.7053 3.21159 17.7029 3.55896 17.4374 3.7955C17.3166 3.90302 17.1686 3.994 17.0164 4.05024C14.7412 4.89715 12.4659 5.74406 10.1824 6.56947C9.81681 6.70098 9.4099 6.72413 8.97899 6.80601Z" fill="#356746"/>
<path d="M18.2812 11.3207C18.0852 11.4199 17.9314 11.506 17.7693 11.5746C17.7081 11.6002 17.6278 11.5936 17.5584 11.5845C17.5087 11.5779 17.4641 11.5374 17.4136 11.5208C17.0522 11.4034 16.7247 11.2678 16.6023 10.8402C16.546 10.6433 16.3335 10.5623 16.1135 10.5672C15.8422 10.573 15.5701 10.5714 15.298 10.5747C14.9275 10.5788 14.6942 10.7318 14.5867 11.0891C14.5189 11.3141 14.4106 11.4605 14.1707 11.4902C14.1641 11.4911 14.1575 11.4927 14.1517 11.4952C13.8457 11.6598 13.5661 11.6929 13.2477 11.4679C13.0269 11.3116 12.7424 11.3695 12.5306 11.563C12.3057 11.7681 12.0898 11.984 11.8806 12.2065C11.6746 12.4257 11.6291 12.7308 11.7987 12.9955C11.9591 13.2461 11.9409 13.4487 11.8301 13.7208C11.7077 14.0211 11.5679 14.2063 11.2379 14.2874C10.8848 14.3742 10.7235 14.6554 10.7252 15.021C10.726 15.2327 10.7276 15.4453 10.7293 15.657C10.7326 16.0176 10.8856 16.2814 11.2338 16.379C11.5241 16.4601 11.6779 16.6197 11.7549 16.8951C11.7846 17.0018 11.8417 17.1035 11.9004 17.1986C11.9864 17.3401 11.9368 17.4526 11.8136 17.5104C11.5026 17.6552 11.1908 17.8115 10.8625 17.905C10.2455 18.0811 9.69629 17.6957 9.6111 17.0589C9.59456 16.9348 9.58877 16.8074 9.58877 16.6826C9.58712 14.2626 9.58712 11.8434 9.58795 9.42341C9.58795 8.44417 10.0834 7.72132 10.9923 7.37643C12.9103 6.64861 14.8274 5.91997 16.7487 5.20125C16.9422 5.1293 17.1605 5.08794 17.3665 5.09208C17.8263 5.10035 18.1745 5.42952 18.2465 5.88689C18.268 6.02335 18.2779 6.16396 18.2787 6.30207C18.2812 7.91981 18.2804 9.53672 18.2804 11.1545C18.2812 11.2223 18.2812 11.2876 18.2812 11.3207Z" fill="#356746"/>
<path d="M15.6668 12.9082C17.0215 12.9057 18.1256 14.0024 18.1298 15.353C18.1339 16.7201 17.0397 17.8226 15.6759 17.8251C14.3154 17.8276 13.2046 16.7193 13.2088 15.3621C13.2137 14.0123 14.317 12.9107 15.6668 12.9082ZM16.5402 15.3538C16.541 14.8377 16.1374 14.43 15.6238 14.4267C15.0994 14.4234 14.6809 14.8336 14.6809 15.3522C14.6809 15.8699 15.0994 16.2826 15.6221 16.2801C16.1341 16.2777 16.5402 15.8683 16.5402 15.3538Z" fill="#356746"/>
</svg>
