<svg width="22" height="20" viewBox="0 0 22 20" fill="none" xmlns="http://www.w3.org/2000/svg">
<path fill-rule="evenodd" clip-rule="evenodd" d="M1.98092 10.7945L0 9.66364L2.75 6.66182L0 4.09545L7.9915 0L10.9386 2.16818L13.9865 0L22 4.14636L19.2546 6.66545L22 9.79545L19.9448 10.9236L14.5337 13.8955L11.4648 10.6764L18.2628 7.07455L11.0009 3.1L3.73817 7.07455L10.5417 10.6536V10.6755L7.51942 13.9682L2.75 11.2336L2.60333 11.15L1.98092 10.7927V10.7945Z" fill="#3B5540"/>
<path fill-rule="evenodd" clip-rule="evenodd" d="M10.5417 20.0005L2.75 15.8778V12.2841L7.7 15.1223L10.5417 12.026V20.0005ZM11.4583 19.9996V11.9941L14.3568 15.0332L19.25 12.3441V15.8778L11.4583 19.9996Z" fill="#3B5540"/>
</svg>
