<svg width="14" height="16" viewBox="0 0 14 16" fill="none" xmlns="http://www.w3.org/2000/svg">
<path fill-rule="evenodd" clip-rule="evenodd" d="M1.48799 4.84367H12.6009C12.6902 4.84018 12.7796 4.84718 12.8671 4.86452C13.0119 4.89571 13.1448 4.96618 13.2505 5.06786C13.3734 5.18328 13.4507 5.33745 13.4688 5.50322C13.4722 5.56589 13.4695 5.62874 13.4609 5.69092L12.5144 15.2909V15.3079V15.3444C12.5081 15.384 12.4992 15.4232 12.4877 15.4617V15.4695C12.4375 15.6209 12.3405 15.7534 12.21 15.8484C12.0796 15.9434 11.9222 15.9964 11.7596 16H2.30668C2.25049 15.9973 2.19473 15.989 2.14028 15.9752C2.08677 15.9596 2.03502 15.9386 1.98586 15.9127C1.86982 15.8473 1.77182 15.7552 1.70037 15.6444C1.62892 15.5335 1.58618 15.4073 1.57585 15.2766L0.644001 5.69743C0.633367 5.6258 0.630689 5.55326 0.636013 5.48106C0.654637 5.31759 0.731459 5.16576 0.853 5.05222C0.96313 4.9474 1.10179 4.8759 1.25236 4.84627C1.33101 4.83281 1.41084 4.82714 1.49065 4.82933L1.48799 4.84367ZM0.75316 1.14705H4.94247V0.782077C4.9418 0.770355 4.9418 0.758606 4.94247 0.746884C4.95085 0.55043 5.0345 0.364276 5.17676 0.225499C5.32607 0.0811761 5.52739 0.000174827 5.7372 0L8.31575 0H8.35568C8.56052 0.0100408 8.75356 0.0968499 8.89482 0.242444C9.03608 0.388038 9.11473 0.581258 9.11447 0.782077V1.14705H13.3743H13.4262C13.577 1.15912 13.7182 1.22427 13.8237 1.33043C13.9292 1.43659 13.9918 1.57658 14 1.72448C14 1.74794 14 1.76619 14 1.78965V3.07487C14 3.1644 13.9637 3.25027 13.899 3.31358C13.8344 3.3769 13.7467 3.41246 13.6552 3.41246H0.34581C0.255056 3.41247 0.167959 3.37744 0.103413 3.31497C0.0388676 3.2525 0.00207882 3.16764 0.00102761 3.07878V1.76358C-0.000342538 1.75015 -0.000342538 1.73661 0.00102761 1.72318C0.0101479 1.58592 0.0659793 1.45561 0.159605 1.35307C0.253231 1.25053 0.37925 1.18166 0.517536 1.15747C0.595631 1.14744 0.674458 1.14395 0.75316 1.14705ZM6.35754 8.01629C6.37361 7.86321 6.44709 7.7214 6.56377 7.61829C6.68045 7.51519 6.83203 7.45812 6.9892 7.45812C7.14637 7.45812 7.29795 7.51519 7.41463 7.61829C7.53131 7.7214 7.60479 7.86321 7.62086 8.01629V12.8391C7.60479 12.9922 7.53131 13.134 7.41463 13.2371C7.29795 13.3402 7.14637 13.3973 6.9892 13.3973C6.83203 13.3973 6.68045 13.3402 6.56377 13.2371C6.44709 13.134 6.37361 12.9922 6.35754 12.8391V8.01629ZM9.51649 7.99022C9.53395 7.83398 9.61363 7.69079 9.73825 7.59171C9.86286 7.49263 10.0223 7.44567 10.1821 7.46102C10.2606 7.46033 10.3384 7.47485 10.4111 7.50374C10.4839 7.53263 10.55 7.57532 10.6058 7.62936C10.6616 7.68339 10.706 7.7477 10.7363 7.81858C10.7666 7.88946 10.7823 7.96552 10.7825 8.04236L10.5162 12.8652C10.4991 13.0216 10.4195 13.165 10.2948 13.2641C10.1701 13.3632 10.0105 13.4101 9.85063 13.3944C9.77215 13.3951 9.69431 13.3805 9.62158 13.3517C9.54886 13.3228 9.48269 13.2801 9.42689 13.226C9.37109 13.172 9.32675 13.1077 9.29644 13.0368C9.26612 12.9659 9.25043 12.8899 9.25025 12.813L9.51649 7.99022ZM3.32904 8.04236C3.32904 7.96558 3.34457 7.88956 3.37474 7.81868C3.40491 7.74781 3.44912 7.68349 3.50482 7.62944C3.56052 7.57538 3.6266 7.53267 3.69925 7.50377C3.77189 7.47486 3.84967 7.46033 3.92809 7.46102C4.08784 7.44567 4.24733 7.49263 4.37194 7.59171C4.49655 7.69079 4.57623 7.83398 4.59369 7.99022L4.85993 12.813C4.85976 12.8899 4.84407 12.9659 4.81375 13.0368C4.78344 13.1077 4.7391 13.172 4.6833 13.226C4.62749 13.2801 4.56133 13.3228 4.4886 13.3517C4.41588 13.3805 4.33804 13.3951 4.25956 13.3944C4.09973 13.4101 3.94006 13.3632 3.81536 13.2641C3.69067 13.165 3.61108 13.0216 3.59395 12.8652L3.32771 8.04236H3.32904Z" fill="#356746"/>
</svg>
