<svg width="35" height="39" viewBox="0 0 35 39" fill="none" xmlns="http://www.w3.org/2000/svg">
<path d="M8.89355 11.5433V9.74326C8.89355 5.54326 12.2936 1.44326 16.3936 1.04326C21.3936 0.543258 25.5936 4.44326 25.5936 9.34326V11.9433" stroke="#EDFA70" stroke-width="1.5" stroke-miterlimit="10" stroke-linecap="round" stroke-linejoin="round"/>
<path d="M11.6939 38.1441H22.7939C30.2939 38.1441 31.5939 35.1441 31.9939 31.5441L33.3939 20.4441C33.8939 15.9441 32.5939 12.2441 24.6939 12.2441H9.79395C1.89395 12.2441 0.593943 15.9441 1.09395 20.4441L2.49395 31.5441C2.89395 35.1441 4.19395 38.1441 11.6939 38.1441Z" stroke="#EDFA70" stroke-width="1.5" stroke-miterlimit="10" stroke-linecap="round" stroke-linejoin="round"/>
<path d="M10.5 21C11.3284 21 12 20.3284 12 19.5C12 18.6716 11.3284 18 10.5 18C9.67157 18 9 18.6716 9 19.5C9 20.3284 9.67157 21 10.5 21Z" fill="#EDFA70"/>
<path d="M23.5 21C24.3284 21 25 20.3284 25 19.5C25 18.6716 24.3284 18 23.5 18C22.6716 18 22 18.6716 22 19.5C22 20.3284 22.6716 21 23.5 21Z" fill="#EDFA70"/>
</svg>
