<svg width="40" height="40" viewBox="0 0 40 40" fill="none" xmlns="http://www.w3.org/2000/svg">
<path d="M21.1906 38.4251C31.4374 37.6969 39.1537 28.7999 38.4255 18.5531C37.6973 8.30625 28.8003 0.589887 18.5535 1.31809C8.30674 2.0463 0.590375 10.9434 1.31858 21.1902C2.04679 31.437 10.9438 39.1533 21.1906 38.4251Z" stroke="#EDFA70" stroke-width="1.5" stroke-linecap="round" stroke-linejoin="round"/>
<path d="M12.2749 2.96836L14.6749 2.06836C11.0749 13.0683 10.6749 26.0683 14.2749 37.0683L12.0749 36.7683" stroke="#EDFA70" stroke-width="1.5" stroke-linecap="round" stroke-linejoin="round"/>
<path d="M25.4746 2.56836C29.0746 13.8683 29.0746 26.0683 25.4746 37.3683" stroke="#EDFA70" stroke-width="1.5" stroke-linecap="round" stroke-linejoin="round"/>
<path d="M2.7748 27.1687L2.1748 25.4688C12.9748 29.0687 26.7748 29.0687 37.5748 25.4688L36.9748 27.1687" stroke="#EDFA70" stroke-width="1.5" stroke-linecap="round" stroke-linejoin="round"/>
<path d="M2.57422 14.368C13.3742 10.768 26.7742 10.768 37.6742 14.368" stroke="#EDFA70" stroke-width="1.5" stroke-linecap="round" stroke-linejoin="round"/>
</svg>
