<svg width="15" height="15" viewBox="0 0 15 15" fill="none" xmlns="http://www.w3.org/2000/svg">
<circle cx="7.5" cy="7.5" r="7.5" fill="#3AAF3C"/>
<path fill-rule="evenodd" clip-rule="evenodd" d="M10.2166 4.86282V11H5.78424V4.86282H4.18011C4.0035 4.86282 3.88712 5.0019 3.83259 5.17995C3.80573 5.26677 3.79271 5.36598 3.79271 5.46963C3.79271 5.57327 3.80573 5.67249 3.83259 5.7593C3.88712 5.93736 4.0035 6.07644 4.18011 6.07644H4.78888C5.00781 6.07644 5.18524 6.26955 5.18524 6.50785C5.18524 6.74614 5.00781 6.93926 4.78888 6.93926H4.18011C3.60389 6.93926 3.23928 6.53974 3.08301 6.0286C3.02767 5.84789 3 5.65654 3 5.46963C3 5.28271 3.02767 5.09137 3.08301 4.90977C3.23928 4.39952 3.60389 4 4.18011 4H11.8199C12.3961 4 12.7607 4.39952 12.917 4.91066C12.9723 5.09226 13 5.2836 13 5.47051C13 5.65743 12.9723 5.84877 12.917 6.03037C12.7607 6.54151 12.3961 6.94103 11.8199 6.94103H11.054C10.8351 6.94103 10.6577 6.74791 10.6577 6.50962C10.6577 6.27132 10.8351 6.07821 11.054 6.07821H11.8199C11.9965 6.07821 12.1129 5.93913 12.1674 5.76107C12.1943 5.67426 12.2073 5.57504 12.2073 5.4714C12.2073 5.36776 12.1943 5.26854 12.1674 5.18173C12.1129 5.00367 11.9965 4.86459 11.8199 4.86459H10.2166V4.86282ZM6.4801 4.86282V9.4409C6.84064 9.4409 7.13445 9.76069 7.13445 10.154H8.88671C8.88671 9.76158 9.18052 9.4409 9.54106 9.4409V4.86282H6.4801ZM8.02726 5.51481C8.4399 5.51481 8.77358 5.87889 8.77358 6.32802C8.77358 6.77715 8.43908 7.14034 8.02726 7.14034C7.61463 7.14034 7.28013 6.77626 7.28013 6.32802C7.28095 5.87801 7.61463 5.51481 8.02726 5.51481ZM9.30341 6.36257C9.30341 7.14743 8.72068 7.78259 7.99878 7.78259C7.27769 7.78259 6.69415 7.14832 6.69415 6.36257C6.69415 5.5777 7.27688 4.94255 7.99878 4.94255C8.72068 4.94343 9.30341 5.5777 9.30341 6.36257Z" fill="white"/>
</svg>
