<svg width="35" height="33" viewBox="0 0 35 33" fill="none" xmlns="http://www.w3.org/2000/svg">
<path d="M35 13.3428V32.6667H0V13.3428L7.98729 0H27.0462L35 13.3428ZM23.3333 19.303C23.3333 18.4834 22.6815 17.8182 21.875 17.8182H13.125C12.3185 17.8182 11.6667 18.4834 11.6667 19.303C11.6667 20.1227 12.3185 20.7879 13.125 20.7879H21.875C22.6815 20.7879 23.3333 20.1227 23.3333 19.303ZM31.6006 13.3636L25.4042 2.9697H9.625L3.40375 13.3636H31.6006Z" fill="#356746"/>
<path d="M8.1772 10.394H26.8249L27.7087 11.8788H7.29199L8.1772 10.394ZM23.2841 4.45459H11.718L10.8328 5.93944H24.1693L23.2841 4.45459ZM9.94762 7.42429L9.06241 8.90913H25.9397L25.0545 7.42429H9.94762Z" fill="#356746"/>
</svg>
