<?xml version="1.0" standalone="no"?>
<!DOCTYPE svg PUBLIC "-//W3C//DTD SVG 1.1//EN" "http://www.w3.org/Graphics/SVG/1.1/DTD/svg11.dtd" >
<svg xmlns="http://www.w3.org/2000/svg" xmlns:xlink="http://www.w3.org/1999/xlink" version="1.1">
<metadata></metadata>
<defs>
<font id="plancregular" horiz-adv-x="1568" >
<font-face units-per-em="2048" ascent="1638" descent="-410" />
<missing-glyph horiz-adv-x="499" />
<glyph unicode="&#xfb01;" horiz-adv-x="1296" d="M39 854v139h203v97q0 171 95 262.5t255 91.5h147l-4 -139h-127q-98 0 -150 -49t-52 -140v-123h323v-139h-301v-854h-166v854h-223zM961 1231v213h174v-213h-174zM967 0v993h166v-993h-166z" />
<glyph unicode="&#xfb02;" horiz-adv-x="1296" d="M39 854v139h203v99q0 169 95.5 260.5t254.5 91.5h147l-4 -139h-127q-98 0 -150 -48.5t-52 -140.5v-123h323v-139h-301v-854h-166v854h-223zM967 0v1444h166v-1444h-166z" />
<glyph unicode="&#xfb03;" horiz-adv-x="2035" d="M39 854v139h203v97q0 171 95 262.5t255 91.5h149l-4 -139h-129q-98 0 -150 -49t-52 -140v-123h323v-139h-301v-854h-166v854h-223zM776 854v139h203v97q0 171 95 262.5t255 91.5h150l-4 -139h-129q-98 0 -150.5 -49t-52.5 -140v-123h323v-139h-301v-854h-166v854h-223z M1700 1231v213h174v-213h-174zM1704 0v993h166v-993h-166z" />
<glyph unicode="&#xfb04;" horiz-adv-x="2035" d="M39 854v139h203v99q0 169 95.5 260.5t254.5 91.5h149l-4 -139h-129q-98 0 -150 -48.5t-52 -140.5v-123h323v-139h-301v-854h-166v854h-223zM776 854v139h203v99q0 169 95.5 260.5t254.5 91.5h150l-4 -139h-129q-98 0 -150.5 -48.5t-52.5 -140.5v-123h323v-139h-301v-854 h-166v854h-223zM1704 0v1444h166v-1444h-166z" />
<glyph horiz-adv-x="0" />
<glyph horiz-adv-x="0" />
<glyph unicode="&#xd;" horiz-adv-x="0" />
<glyph unicode="&#xa;" horiz-adv-x="573" />
<glyph unicode=" "  horiz-adv-x="499" />
<glyph unicode="&#x09;" horiz-adv-x="499" />
<glyph unicode="&#xa0;" horiz-adv-x="499" />
<glyph unicode="!" horiz-adv-x="552" d="M168 0v215h217v-215h-217zM180 907v537h195v-537l-33 -557h-127z" />
<glyph unicode="&#x22;" horiz-adv-x="696" d="M104 1249v195h179v-197l-45 -291h-88zM414 1249v195h178v-197l-45 -291h-88z" />
<glyph unicode="#" horiz-adv-x="1732" d="M166 365v133h309l113 362h-264v133h266q39 0 53 39l90 281h162l-102 -320h344l98 320h162l-86 -281q-6 -17 1.5 -28t26.5 -11h226v-133h-310l-110 -362h264v-133h-266q-39 0 -53 -39l-101 -326h-162l113 365h-346l-117 -365h-162l105 326q6 17 -2 28t-27 11h-225z M637 498h346l111 362h-344z" />
<glyph unicode="$" horiz-adv-x="1282" d="M96 459h178q15 -131 91 -211.5t196 -104.5v539l-26 6q-195 50 -290 144t-95 247q0 147 114 256t297 127v168h162v-170q174 -23 289 -128.5t129 -284.5h-183q-9 105 -71 170t-164 86v-490l59 -14q402 -101 402 -400q0 -165 -126.5 -281.5t-334.5 -135.5v-166h-162v170 q-205 25 -328 151t-137 322zM326 1081q0 -88 55.5 -141.5t179.5 -87.5v455q-117 -16 -176 -80t-59 -146zM723 139q126 14 205.5 79.5t79.5 166.5q0 104 -66 161t-219 95v-502z" />
<glyph unicode="%" horiz-adv-x="1759" d="M166 1118q0 156 92.5 246t220.5 90t220 -90t92 -246q0 -154 -92 -244t-220 -90q-82 0 -152 37.5t-115.5 115.5t-45.5 181zM313 1120q0 -88 49.5 -141t116.5 -53t115.5 53t48.5 141t-48.5 140.5t-115.5 52.5t-116.5 -52.5t-49.5 -140.5zM383 0v25l844 1419h145v-25 l-842 -1419h-147zM967 324q0 156 92.5 245.5t220.5 89.5t219.5 -89.5t91.5 -245.5q0 -154 -92 -244t-219 -90q-82 0 -152 37.5t-115.5 115.5t-45.5 181zM1114 326q0 -88 49.5 -141.5t116.5 -53.5t115.5 53.5t48.5 141.5t-48.5 140t-115.5 52t-116.5 -52t-49.5 -140z" />
<glyph unicode="&#x26;" horiz-adv-x="1406" d="M98 434q0 151 99.5 255t257.5 108q-114 96 -163.5 178t-49.5 172q0 138 112 227.5t281 89.5q191 0 313.5 -108.5t141.5 -292.5h-177q-11 116 -83.5 182t-192.5 66q-113 0 -171 -48.5t-58 -119.5q0 -64 39 -120t139 -138l514 -416q39 118 39 299h168q0 -364 -180 -576 t-490 -212q-244 0 -391.5 125t-147.5 329zM268 436q0 -136 100.5 -219.5t266.5 -83.5q269 0 397 195l-276 223q-82 64 -142.5 90.5t-119.5 26.5q-102 0 -164 -65t-62 -167z" />
<glyph unicode="'" horiz-adv-x="387" d="M104 1249v195h179v-197l-43 -291h-90z" />
<glyph unicode="(" horiz-adv-x="825" d="M166 707q0 453 168 708t448 264v-159q-209 -9 -326.5 -214.5t-117.5 -594.5q0 -391 116.5 -599.5t327.5 -217.5v-160q-279 9 -447.5 265.5t-168.5 707.5z" />
<glyph unicode=")" horiz-adv-x="825" d="M41 -106q211 9 327.5 217.5t116.5 599.5q0 389 -117.5 594.5t-326.5 214.5v159q278 -9 447 -264.5t169 -707.5q0 -225 -45.5 -407.5t-127 -304.5t-194.5 -189t-249 -72v160z" />
<glyph unicode="*" horiz-adv-x="1036" d="M104 1268l33 102l221 -74q18 -6 37 -6q31 0 49.5 22t18.5 60v230h110v-230q0 -38 18.5 -60t49.5 -22q19 0 37 6l221 74l33 -102l-219 -72q-47 -15 -58.5 -49.5t17.5 -75.5l137 -188l-88 -62l-137 185q-28 41 -66 41q-39 0 -65 -39l-140 -187l-88 64l140 188 q31 40 19.5 74t-58.5 49z" />
<glyph unicode="+" horiz-adv-x="1290" d="M147 496v133h426v411h146v-411h426v-133h-426v-414h-146v414h-426z" />
<glyph unicode="," horiz-adv-x="561" d="M166 0v215h229v-195l-108 -292h-119l82 241q5 14 -1.5 22.5t-21.5 8.5h-61z" />
<glyph unicode="-" horiz-adv-x="942" d="M168 496v133h608v-133h-608z" />
<glyph unicode="." horiz-adv-x="550" d="M166 0v215h217v-215h-217z" />
<glyph unicode="/" horiz-adv-x="950" d="M168 0l448 1444h168l-448 -1444h-168z" />
<glyph unicode="0" horiz-adv-x="1357" d="M119 723q0 361 145.5 552t415.5 191q271 0 416 -191t145 -552q0 -360 -145 -551.5t-416 -191.5q-269 0 -415 192t-146 551zM301 727q0 -588 379 -588q194 0 286.5 147.5t92.5 440.5q0 288 -92.5 434t-286.5 146q-379 0 -379 -580zM598 551v342h162v-342h-162z" />
<glyph unicode="1" horiz-adv-x="929" d="M76 0v156h330v897h-320v151h246q38 0 61 23.5t23 60.5v158h162v-1290h294v-156h-796z" />
<glyph unicode="2" horiz-adv-x="1230" d="M96 0v158q317 212 490.5 355t253.5 262t80 239q0 123 -84.5 207t-214.5 84q-138 0 -232.5 -94.5t-103.5 -258.5h-174q6 228 151.5 371t362.5 143q209 0 341 -130t132 -322q0 -201 -166.5 -396.5t-532.5 -439.5l-41 -4v-16h756v-158h-1018z" />
<glyph unicode="3" horiz-adv-x="1292" d="M98 449h183q1 -146 98 -228t258 -82q163 0 260.5 74.5t97.5 198.5q0 127 -94 196.5t-278 69.5h-70v141h70q158 0 240.5 70.5t82.5 181.5q0 110 -74 173t-202 63q-141 0 -223.5 -70t-94.5 -195h-174q7 105 50 187.5t111 133.5t152 77t177 26q200 0 328 -109.5t128 -285.5 q0 -98 -50 -184t-136 -117l-47 -4v-16l59 -5q102 -32 163 -126.5t61 -212.5q0 -188 -147.5 -307t-387.5 -119q-151 0 -272 57t-192.5 164t-76.5 248z" />
<glyph unicode="4" horiz-adv-x="1177" d="M39 322v151q245 232 366 476t121 517h168q0 -549 -422 -989h492q38 0 61 23.5t23 60.5v391h172v-950h-172v320h-809z" />
<glyph unicode="5" horiz-adv-x="1241" d="M98 426h176q21 -139 112 -213t218 -74q154 0 248 98.5t94 245.5q0 150 -91 242t-232 92q-184 0 -299 -149l-162 26l104 752h778v-158h-626l-64 -409q114 94 285 94q220 0 352.5 -138t132.5 -356q0 -137 -61 -249.5t-179.5 -181t-273.5 -68.5q-130 0 -238.5 50 t-182.5 152.5t-91 243.5z" />
<glyph unicode="6" horiz-adv-x="1267" d="M119 717q0 338 147 543.5t393 205.5q194 0 315 -108.5t136 -302.5h-180q-6 118 -80.5 185t-196.5 67q-165 0 -262.5 -148t-97.5 -401h18q43 96 142.5 151.5t212.5 55.5q214 0 348.5 -135.5t134.5 -352.5q0 -213 -142 -354t-360 -141q-260 0 -394 186t-134 549zM324 479 q0 -149 90.5 -243.5t228.5 -94.5q148 0 238 94t90 242q0 151 -87 243.5t-237 92.5q-148 0 -235.5 -95t-87.5 -239z" />
<glyph unicode="7" horiz-adv-x="1038" d="M39 1286v158h958v-131l-151 -193q-232 -295 -338 -542t-133 -578h-176q26 331 145 619.5t350 576.5l74 90h-729z" />
<glyph unicode="8" horiz-adv-x="1298" d="M119 410q0 121 65.5 216t180.5 136l36 2v16l-32 2q-87 35 -137 114.5t-50 180.5q0 171 132.5 279t336.5 108q202 0 334.5 -108t132.5 -279q0 -99 -50 -179.5t-136 -115.5l-33 -2v-16l37 -2q115 -41 180.5 -135t65.5 -215q0 -199 -147.5 -315.5t-383.5 -116.5 q-237 0 -384.5 116t-147.5 314zM295 414q0 -127 100 -202t256 -75q154 0 254.5 75.5t100.5 201.5t-96 200t-238 74h-43q-144 0 -239 -73.5t-95 -200.5zM358 1073q0 -101 76.5 -168t196.5 -67h39q120 0 196 67t76 168q0 106 -80.5 170t-210.5 64q-131 0 -212 -63.5 t-81 -170.5z" />
<glyph unicode="9" horiz-adv-x="1269" d="M119 971q0 215 137 355t356 140q264 0 402.5 -187.5t138.5 -555.5q0 -756 -543 -756q-191 0 -321 115.5t-150 304.5h178q15 -115 97.5 -188.5t203.5 -73.5q182 0 271.5 137t89.5 420h-18q-47 -97 -142.5 -150t-222.5 -53q-213 0 -345 136.5t-132 355.5zM297 973 q0 -154 87 -247t239 -93q150 0 236.5 89t86.5 230q0 150 -94.5 252.5t-233.5 102.5q-148 0 -234.5 -94t-86.5 -240z" />
<glyph unicode=":" horiz-adv-x="550" d="M166 0v215h217v-215h-217zM166 578v215h217v-215h-217z" />
<glyph unicode=";" horiz-adv-x="563" d="M168 0v215h229v-195l-108 -292h-119l82 241q5 14 -1.5 22.5t-21.5 8.5h-61zM172 578v215h217v-215h-217z" />
<glyph unicode="&#x3c;" horiz-adv-x="1167" d="M166 535v145l788 356h47v-141l-636 -274l-54 -5v-18l54 -4l636 -275v-141h-47z" />
<glyph unicode="=" horiz-adv-x="1259" d="M166 303v133h928v-133h-928zM166 684v133h928v-133h-928z" />
<glyph unicode="&#x3e;" horiz-adv-x="1167" d="M166 178v141l637 275l53 4v18l-53 5l-637 274v141h47l788 -356v-145l-788 -357h-47z" />
<glyph unicode="?" horiz-adv-x="1245" d="M166 993q0 219 128.5 345t350.5 126q193 0 313.5 -115t120.5 -276q0 -76 -22.5 -140t-59 -110t-80 -87.5t-87.5 -81t-80.5 -81.5t-59 -99t-22.5 -124h-168q0 78 22.5 145t58.5 115.5t79.5 92t86.5 83.5t79 81t58.5 93t22.5 111q0 96 -73.5 166t-192.5 70q-149 0 -227 -80 t-80 -234h-168zM477 0v215h217v-215h-217z" />
<glyph unicode="@" horiz-adv-x="1794" d="M166 721q0 210 91.5 379t259 266.5t380.5 97.5q214 0 382 -98t258.5 -266t90.5 -375q0 -194 -75.5 -312t-219.5 -118q-88 0 -149.5 55t-63.5 125q-38 -68 -109.5 -107.5t-154.5 -39.5q-149 0 -247.5 106.5t-98.5 278.5t100 279.5t250 107.5q80 0 149 -38t109 -108v133 h123v-550q0 -121 102 -121q45 0 76.5 28t47 76t22 98t6.5 107q0 131 -42.5 244.5t-119 195.5t-189 129t-245.5 47q-176 0 -312.5 -80.5t-210 -221t-73.5 -316.5t70.5 -317t202.5 -222.5t303 -81.5q189 0 323 86l64 -108q-155 -100 -392 -100q-156 0 -289 56.5t-224.5 155.5 t-143 235.5t-51.5 293.5zM643 713q0 -122 65 -191t169 -69q103 0 168 75.5t65 186.5v16q0 101 -67 172.5t-166 71.5q-103 0 -168.5 -70t-65.5 -192z" />
<glyph unicode="A" horiz-adv-x="1400" d="M63 0l545 1444h183l548 -1444h-188l-160 436h-583l-160 -436h-185zM461 580h479l-227 618l-4 62h-17l-4 -60z" />
<glyph unicode="B" horiz-adv-x="1341" d="M180 0v1446h539q218 0 341.5 -100t123.5 -279q0 -104 -51.5 -191t-137.5 -116q107 -32 177.5 -118t70.5 -232q0 -193 -135 -301.5t-371 -108.5h-557zM356 154h365q170 0 258 67t88 197q0 134 -86 199t-260 65h-365v-528zM356 823h357q152 0 223.5 67t71.5 175 q0 109 -74.5 168t-218.5 59h-359v-469z" />
<glyph unicode="C" horiz-adv-x="1536" d="M98 721q0 153 47.5 288t134 236.5t217.5 160t289 58.5q131 0 242.5 -41.5t190 -115t128.5 -173t66 -216.5h-178q-30 172 -148.5 279.5t-302.5 107.5q-120 0 -217.5 -46.5t-159.5 -127t-95 -184.5t-33 -222q0 -121 33 -226.5t95.5 -186t160 -127t218.5 -46.5 q193 0 319 107t152 293h181q-32 -254 -210 -406.5t-440 -152.5q-159 0 -290.5 58.5t-218 159t-134 235.5t-47.5 288z" />
<glyph unicode="D" horiz-adv-x="1456" d="M180 0v1444h477q337 0 520 -189t183 -528t-183.5 -533t-519.5 -194h-477zM356 158h299q523 0 523 569q0 559 -521 559h-301v-1128z" />
<glyph unicode="E" horiz-adv-x="1251" d="M182 0v1444h944v-158h-768v-465h709v-149h-709v-514h799v-158h-975z" />
<glyph unicode="F" horiz-adv-x="1161" d="M182 0v1444h903v-158h-727v-491h709v-150h-709v-645h-176z" />
<glyph unicode="G" horiz-adv-x="1560" d="M98 723q0 220 88.5 389.5t246 261.5t358.5 92q244 0 412.5 -134t199.5 -341h-184q-27 143 -140.5 229.5t-287.5 86.5q-231 0 -371.5 -158.5t-140.5 -427.5q0 -271 137.5 -426.5t378.5 -155.5q218 0 348 131t139 357h-563v149h735v-104q0 -203 -83 -360.5t-233 -244.5 t-341 -87q-208 0 -367 92.5t-245.5 261t-86.5 389.5z" />
<glyph unicode="H" horiz-adv-x="1490" d="M180 0v1444h176v-637h781v637h176v-1444h-176v657h-781v-657h-176z" />
<glyph unicode="I" horiz-adv-x="534" d="M180 0v1444h176v-1444h-176z" />
<glyph unicode="J" horiz-adv-x="749" d="M0 0l6 156h103q174 0 249.5 79t75.5 248v961h176v-961q0 -489 -499 -489q-55 0 -111 6z" />
<glyph unicode="K" horiz-adv-x="1314" d="M180 0v1444h176v-680l625 680h229l-645 -696l733 -748h-239l-610 623l-93 -97v-526h-176z" />
<glyph unicode="L" horiz-adv-x="1126" d="M180 0v1444h174v-1286h697v-158h-871z" />
<glyph unicode="M" horiz-adv-x="1812" d="M180 0v1444h281l438 -1180l4 -61h17l4 59l434 1182h274v-1444h-176v1243h-16l-8 -65l-437 -1178h-174l-440 1186l-8 57h-17v-1243h-176z" />
<glyph unicode="N" horiz-adv-x="1533" d="M180 0v1444h226l749 -1182l8 -69h17v1251h176v-1444h-223l-752 1184l-6 55h-19v-1239h-176z" />
<glyph unicode="O" d="M98 721q0 214 80.5 381.5t237.5 264.5t368 97t368 -97t237.5 -264.5t80.5 -381.5t-80.5 -381t-237.5 -263.5t-368 -96.5t-368 96.5t-237.5 263.5t-80.5 381zM281 719q0 -168 55.5 -297t171 -206t276.5 -77q162 0 278 77t172 206.5t56 296.5q0 170 -56.5 301t-172 208 t-277.5 77q-241 0 -372 -162.5t-131 -423.5z" />
<glyph unicode="P" horiz-adv-x="1290" d="M180 0v1444h563q231 0 351 -117.5t120 -314.5q0 -196 -120 -313t-353 -117h-385v-582h-176zM356 733h377q156 0 230.5 73.5t74.5 205.5q0 274 -305 274h-377v-553z" />
<glyph unicode="Q" d="M98 721q0 214 80.5 381.5t237.5 264.5t368 97t368 -97t237.5 -264.5t80.5 -381.5q0 -256 -115.5 -444t-324.5 -259l2 -18h23q75 0 119.5 -60t44.5 -159v-121h-164v90q0 216 -209 225l-72 5q-208 2 -363 99.5t-234 263.5t-79 378zM281 719q0 -168 55.5 -297t171 -206 t276.5 -77q162 0 278 77t172 206.5t56 296.5q0 171 -56 301.5t-171.5 207.5t-278.5 77q-241 0 -372 -162.5t-131 -423.5z" />
<glyph unicode="R" horiz-adv-x="1384" d="M180 0v1446h615q216 0 335 -108.5t119 -303.5q0 -130 -62 -220t-163 -105v-17q211 -16 211 -272v-420h-176v393q0 121 -57.5 173t-190.5 52h-455v-618h-176zM356 762h426q139 0 213 68t74 198q0 260 -283 260h-430v-526z" />
<glyph unicode="S" horiz-adv-x="1282" d="M96 459h178q18 -158 122 -241t263 -83q149 0 249 68t100 182q0 105 -66.5 162.5t-222.5 95.5l-184 45q-195 50 -290 144t-95 247q0 161 135 274t346 113q99 0 186 -26t156.5 -76.5t114 -132t53.5 -184.5h-183q-10 128 -98.5 196t-228.5 68q-151 0 -228 -67.5t-77 -162.5 q0 -93 62.5 -148t203.5 -89l190 -45q402 -101 402 -400q0 -178 -146.5 -298.5t-378.5 -120.5q-247 0 -397.5 130t-165.5 349z" />
<glyph unicode="T" horiz-adv-x="1107" d="M-2 1284v160h1108v-160h-467v-1284h-174v1284h-467z" />
<glyph unicode="U" horiz-adv-x="1425" d="M139 586v858h174v-858q0 -234 103.5 -340.5t298.5 -106.5q399 0 399 447v858h174v-858q0 -300 -153 -453t-420 -153q-270 0 -423 152t-153 454z" />
<glyph unicode="V" horiz-adv-x="1255" d="M18 1444h189l405 -1196l6 -51h19l6 51l406 1196h188l-506 -1444h-209z" />
<glyph unicode="W" horiz-adv-x="2037" d="M18 1444h187l334 -1194l8 -82h16l6 76l349 1200h204l348 -1200l7 -76h16l6 74l336 1202h184l-417 -1444h-228l-338 1165l-8 80h-16l-8 -80l-338 -1165h-230z" />
<glyph unicode="X" horiz-adv-x="1329" d="M18 0l527 756l-469 688h211l366 -549l4 -35h17l4 35l369 549h206l-467 -688l525 -756h-213l-420 618l-4 37h-19l-4 -39l-420 -616h-213z" />
<glyph unicode="Y" horiz-adv-x="1263" d="M16 1444h205l395 -643l7 -53h16l6 49l395 647h205l-526 -844v-600h-174v598z" />
<glyph unicode="Z" horiz-adv-x="1267" d="M63 0v150l875 1116l49 6v16h-891v156h1069v-152l-870 -1114l-49 -6v-16h960v-156h-1143z" />
<glyph unicode="[" horiz-adv-x="745" d="M166 -266v1923h536v-154h-370v-1616h370v-153h-536z" />
<glyph unicode="\" horiz-adv-x="950" d="M168 1444h168l448 -1444h-168z" />
<glyph unicode="]" horiz-adv-x="745" d="M41 -113h371v1616h-371v154h537v-1923h-537v153z" />
<glyph unicode="^" horiz-adv-x="1191" d="M166 608v47l356 789h146l356 -789v-47h-141l-275 637l-4 53h-18l-4 -53l-275 -637h-141z" />
<glyph unicode="_" horiz-adv-x="1470" d="M166 -160h1139v-141h-1139v141z" />
<glyph unicode="`" horiz-adv-x="681" d="M166 1444v35h180l170 -283v-27h-121z" />
<glyph unicode="a" horiz-adv-x="1081" d="M98 266q0 121 78 196t232 95l311 41q25 3 39 18.5t14 38.5v19q0 95 -61 147.5t-170 52.5q-110 0 -179 -51.5t-69 -138.5h-164q0 140 117.5 233t296.5 93q190 0 291.5 -94t101.5 -269v-647h-156v176q-38 -90 -134 -143t-220 -53q-140 0 -234 81.5t-94 204.5zM262 287 q0 -75 53 -119.5t148 -44.5q141 0 229 82t88 209v84q-21 -17 -125 -31l-219 -27q-174 -21 -174 -153z" />
<glyph unicode="b" horiz-adv-x="1243" d="M166 0v1446h164v-625q56 89 147.5 140t200.5 51q200 0 334.5 -148.5t134.5 -367.5q0 -145 -59 -262.5t-168 -185.5t-248 -68q-111 0 -204 53t-146 143v-176h-156zM332 489q0 -156 91.5 -258t235.5 -102q140 0 231 102.5t91 264.5q0 161 -88.5 263.5t-226.5 102.5 t-236 -102t-98 -250v-21z" />
<glyph unicode="c" horiz-adv-x="1142" d="M98 496q0 225 138 370.5t354 145.5q179 0 297 -100.5t141 -270.5h-168q-17 102 -89.5 161.5t-180.5 59.5q-151 0 -237.5 -101.5t-86.5 -264.5q0 -155 92 -261t232 -106q113 0 193.5 65t105.5 175h166q-26 -171 -156 -280t-309 -109q-144 0 -257.5 69t-174 186.5 t-60.5 260.5z" />
<glyph unicode="d" horiz-adv-x="1245" d="M98 496q0 226 134.5 371t336.5 145q106 0 204.5 -52t141.5 -137v623h164v-1446h-155v186q-44 -94 -143 -150t-214 -56q-202 0 -335.5 144t-133.5 372zM266 496q0 -167 90 -267t234 -100q142 0 232.5 107t90.5 264v20q0 140 -93 241t-230 101q-143 0 -233.5 -99.5 t-90.5 -266.5z" />
<glyph unicode="e" horiz-adv-x="1124" d="M98 494q0 226 132.5 371t338.5 145q205 0 332 -134t127 -352q0 -53 -6 -71h-756q0 -138 92.5 -234t221.5 -96q114 0 187 49t93 139h164q-34 -155 -151.5 -243t-292.5 -88q-206 0 -344 146t-138 368zM270 573h592q0 130 -81 211.5t-208 81.5q-128 0 -212.5 -81.5 t-90.5 -211.5z" />
<glyph unicode="f" horiz-adv-x="739" d="M39 854v139h203v99q0 169 95.5 260.5t254.5 91.5h149l-4 -139h-129q-98 0 -150 -48.5t-52 -140.5v-123h323v-139h-301v-854h-166v854h-223z" />
<glyph unicode="g" horiz-adv-x="1243" d="M98 496q0 145 55.5 261t164 185.5t253.5 69.5q117 0 212.5 -57t138.5 -144v184h155v-932q0 -242 -130.5 -367.5t-356.5 -125.5q-190 0 -314 94.5t-139 251.5h170q15 -98 87.5 -149.5t195.5 -51.5q152 0 237.5 86t85.5 258v127q-52 -96 -143 -151t-205 -55 q-206 0 -336.5 148t-130.5 368zM266 496q0 -160 86 -263.5t230 -103.5q146 0 238.5 106.5t92.5 260.5v20q0 147 -96 246.5t-237 99.5q-144 0 -229 -104t-85 -262z" />
<glyph unicode="h" horiz-adv-x="1196" d="M166 2v1444h164v-610q53 86 140 131t194 45q164 0 275.5 -120t111.5 -317v-573h-166v561q0 142 -68.5 220.5t-193.5 78.5q-55 0 -105 -21.5t-93.5 -65.5t-69 -123t-25.5 -183v-467h-164z" />
<glyph unicode="i" horiz-adv-x="497" d="M162 1231v213h172v-213h-172zM166 0v993h164v-993h-164z" />
<glyph unicode="j" horiz-adv-x="518" d="M-139 -410l4 146h88q233 0 233 248v1009h164v-1009q0 -180 -107 -287t-290 -107h-92zM184 1231v213h172v-213h-172z" />
<glyph unicode="k" horiz-adv-x="1052" d="M166 0v1444h164v-936l463 485h217l-447 -461l494 -532h-223l-383 420l-121 -115v-305h-164z" />
<glyph unicode="l" horiz-adv-x="497" d="M166 0v1444h164v-1444h-164z" />
<glyph unicode="m" horiz-adv-x="1802" d="M166 2v993h156v-161q41 86 123 132t178 46q217 0 317 -193q45 93 130.5 143t195.5 50q182 0 286.5 -114.5t104.5 -311.5v-584h-164v576q0 140 -62.5 212t-181.5 72t-184.5 -73t-65.5 -199v-588h-161v606q0 118 -64.5 186t-173.5 68q-127 0 -198.5 -81t-71.5 -228v-551 h-164z" />
<glyph unicode="n" horiz-adv-x="1193" d="M166 2v993h156v-159q52 85 141.5 130.5t195.5 45.5q180 0 285 -118.5t105 -328.5v-563h-164v553q0 154 -66.5 230.5t-189.5 76.5q-138 0 -218.5 -89t-80.5 -243v-528h-164z" />
<glyph unicode="o" horiz-adv-x="1175" d="M98 496q0 226 133 371t359 145q219 0 353 -145.5t134 -370.5q0 -224 -134 -370t-353 -146q-221 0 -356.5 146.5t-135.5 369.5zM266 496q0 -158 88.5 -262.5t235.5 -104.5q144 0 231.5 104.5t87.5 262.5t-87 262t-232 104q-149 0 -236.5 -104t-87.5 -262z" />
<glyph unicode="p" horiz-adv-x="1245" d="M166 -410v1405h153v-192q42 97 138.5 153t216.5 56q134 0 243 -67t170.5 -183.5t61.5 -259.5q0 -145 -59 -263.5t-169.5 -188.5t-250.5 -70q-107 0 -197.5 44.5t-144.5 122.5v-557h-162zM330 489q0 -156 96 -258t236 -102q139 0 228 107t89 266q0 158 -85.5 259 t-227.5 101q-144 0 -240 -99t-96 -253v-21z" />
<glyph unicode="q" horiz-adv-x="1224" d="M98 502q0 143 61.5 259.5t170.5 183.5t243 67q114 0 207 -50t144 -139v172h153v-1405h-162v578q-39 -84 -135 -136t-207 -52q-138 0 -247 69.5t-168.5 188.5t-59.5 264zM266 502q0 -159 90.5 -266t229.5 -107t233 102t94 258v21q0 156 -93.5 254t-237.5 98 q-141 0 -228.5 -101.5t-87.5 -258.5z" />
<glyph unicode="r" horiz-adv-x="735" d="M166 0v993h156v-241q17 106 103 173.5t204 67.5h106l-6 -147h-80q-152 0 -235.5 -97.5t-83.5 -277.5v-471h-164z" />
<glyph unicode="s" horiz-adv-x="970" d="M98 307h162q3 -87 64.5 -138.5t169.5 -51.5q99 0 156 40t57 109q0 56 -37.5 94t-122.5 62l-144 37q-148 39 -218 107.5t-70 170.5q0 119 101 197t259 78q167 0 272 -86.5t111 -227.5h-162q-3 79 -63 127.5t-156 48.5q-91 0 -142.5 -35.5t-51.5 -93.5q0 -54 37.5 -87.5 t130.5 -59.5l137 -37q140 -36 213 -112t73 -181q0 -129 -105 -208.5t-277 -79.5q-177 0 -285.5 91.5t-108.5 235.5z" />
<glyph unicode="t" horiz-adv-x="751" d="M18 854v139h183q20 0 32.5 12.5t12.5 32.5v222h153v-267h283v-139h-295v-500q0 -116 40 -161.5t144 -45.5h121v-143q-66 -4 -133 -4q-173 0 -252.5 82.5t-79.5 261.5v510h-209z" />
<glyph unicode="u" horiz-adv-x="1163" d="M145 440v555h164v-555q0 -309 271 -309q144 0 209 79.5t65 233.5v551h164v-549q0 -222 -109.5 -344t-326.5 -122q-215 0 -326 124t-111 336z" />
<glyph unicode="v" horiz-adv-x="1013" d="M37 993h182l297 -770l283 770h180l-393 -993h-144z" />
<glyph unicode="w" horiz-adv-x="1646" d="M59 993h181l249 -774l265 774h149l268 -770l248 770h174l-344 -993h-149l-273 764l-268 -764h-149z" />
<glyph unicode="x" horiz-adv-x="997" d="M33 0l360 516l-327 477h196l232 -354l237 354h191l-330 -469l371 -524h-197l-272 406l-271 -406h-190z" />
<glyph unicode="y" horiz-adv-x="1007" d="M37 993h180l281 -807l297 807h178l-455 -1155q-51 -128 -135.5 -188t-212.5 -60q-57 0 -119 4l6 144h105q81 0 130 35t85 123l35 86z" />
<glyph unicode="z" horiz-adv-x="952" d="M61 0v137l617 713h-590v145h784v-143l-612 -707h637v-145h-836z" />
<glyph unicode="{" horiz-adv-x="788" d="M70 616v156h59q115 0 115 125v449q0 139 87 225t228 86h189v-154h-195q-65 0 -104 -39.5t-39 -103.5v-508q0 -139 -111 -145l-35 -2v-21l35 -2q111 -6 111 -145v-506q0 -65 39.5 -104.5t103.5 -39.5h195v-153h-181q-145 0 -234 88t-89 233v439q0 122 -113 122h-61z" />
<glyph unicode="|" horiz-adv-x="495" d="M168 -184v1812h162v-1812h-162z" />
<glyph unicode="}" horiz-adv-x="788" d="M41 -113h195q64 0 103.5 39.5t39.5 104.5v506q0 139 108 145l37 2v21l-37 2q-108 6 -108 145v508q0 64 -39.5 103.5t-103.5 39.5h-195v154h188q140 0 227 -86t87 -225v-449q0 -125 114 -125h60v-156h-62q-112 0 -112 -122v-439q0 -144 -89.5 -232.5t-232.5 -88.5h-180 v153z" />
<glyph unicode="~" horiz-adv-x="1302" d="M168 698h166q0 -137 106 -137q41 0 95.5 23.5t101 51.5t110 51.5t119.5 23.5q128 0 199.5 -84.5t71.5 -206.5h-168q0 137 -107 137q-41 0 -93 -23.5t-96 -51t-109 -51t-128 -23.5q-127 0 -197.5 84t-70.5 206z" />
<glyph unicode="&#xa1;" horiz-adv-x="552" d="M168 799v215h217v-215h-217zM180 106l35 558h127l33 -558v-536h-195v536z" />
<glyph unicode="&#xa2;" horiz-adv-x="1142" d="M98 496q0 202 113.5 342t298.5 168v176h149v-174q152 -19 249.5 -116.5t119.5 -250.5h-168q-13 84 -66.5 140t-134.5 75v-721q87 19 148.5 81.5t81.5 152.5h166q-25 -153 -133.5 -258t-262.5 -127v-168h-149v170q-185 27 -298.5 170t-113.5 340zM266 496 q0 -130 67.5 -229t176.5 -128v715q-115 -26 -179.5 -122.5t-64.5 -235.5z" />
<glyph unicode="&#xa3;" horiz-adv-x="1273" d="M96 649v125h205v279q0 181 104 286t279 105q166 0 271.5 -102.5t105.5 -268.5h-170q0 100 -54 157.5t-149 57.5q-109 0 -162 -56t-53 -171v-287h336v-125h-336v-489h721v-160h-1096v160h119q38 0 61 23t23 61v405h-205z" />
<glyph unicode="&#xa4;" horiz-adv-x="1472" d="M166 160l172 190q-117 139 -117 328q0 191 117 330l-172 190l117 107l172 -195q127 84 284 84q151 0 283 -82l172 193l113 -105l-170 -190q116 -141 116 -332q0 -189 -116 -330l170 -188l-113 -103l-172 189q-127 -84 -283 -84q-161 0 -286 86l-170 -191zM375 678 q0 -155 103.5 -262t260.5 -107q154 0 257.5 107t103.5 262q0 156 -103.5 262.5t-257.5 106.5q-157 0 -260.5 -106.5t-103.5 -262.5z" />
<glyph unicode="&#xa5;" horiz-adv-x="1263" d="M16 1444h205l395 -645l7 -51h16l6 47l395 649h205l-450 -723h280v-125h-356v-170h356v-125h-356v-301h-174v301h-359v125h359v170h-359v125h281z" />
<glyph unicode="&#xa6;" horiz-adv-x="495" d="M168 -184v784h162v-784h-162zM168 848v780h162v-780h-162z" />
<glyph unicode="&#xa7;" horiz-adv-x="1251" d="M98 4h176q5 -138 97.5 -209t269.5 -71q147 0 243.5 55t96.5 149q0 85 -65.5 130t-227.5 85l-182 47q-195 52 -288 144t-93 241q0 91 49 173t135 137q-184 87 -184 258q0 133 132 227t343 94q142 0 260 -54.5t186 -150.5t68 -212h-180q0 120 -91.5 192t-242.5 72 t-226 -50.5t-75 -121.5q0 -68 58.5 -106t203.5 -77l184 -49q208 -57 309 -146.5t101 -228.5q0 -95 -54 -179.5t-145 -141.5q199 -100 199 -277q0 -156 -142 -260t-374 -104q-246 0 -393.5 118.5t-147.5 315.5zM295 580q0 -97 63 -155.5t201 -92.5l182 -45q14 -2 41 -11 q201 111 201 244q0 100 -67 154t-224 94l-176 43q-8 3 -27 8q-85 -31 -139.5 -96.5t-54.5 -142.5z" />
<glyph unicode="&#xa8;" horiz-adv-x="841" d="M166 1231v213h172v-213h-172zM502 1231v213h172v-213h-172z" />
<glyph unicode="&#xa9;" horiz-adv-x="1777" d="M166 721q0 157 52.5 294t146.5 236t229.5 156t294.5 57t294.5 -57t228.5 -156t145.5 -236t52.5 -294q0 -210 -89 -379t-254.5 -267t-377.5 -98t-378 98t-255.5 267t-89.5 379zM303 721q0 -175 71 -316t205.5 -224t309.5 -83q176 0 311 83t206 224t71 316t-71 316 t-206 223.5t-311 82.5q-175 0 -309.5 -82.5t-205.5 -223.5t-71 -316zM477 721q0 191 117 314.5t301 123.5q152 0 252.5 -85.5t120.5 -229.5h-144q-14 86 -75.5 137t-153.5 51q-128 0 -201 -86.5t-73 -224.5q0 -132 77 -221.5t197 -89.5q97 0 165.5 55t88.5 149h141 q-23 -146 -133 -238.5t-262 -92.5q-123 0 -219 58.5t-147.5 158t-51.5 221.5z" />
<glyph unicode="&#xaa;" horiz-adv-x="753" d="M104 963q0 83 53 131t175 65l174 25q26 3 26 30v15q0 123 -143 123q-66 0 -106.5 -31.5t-40.5 -81.5h-117q0 94 75.5 153.5t192.5 59.5q252 0 252 -235v-420h-115l-2 106q-25 -55 -85.5 -87t-141.5 -32q-83 0 -140 51t-57 128zM225 981q0 -43 28.5 -66.5t82.5 -23.5 q87 0 144 58t57 143v18q-11 -8 -91 -20l-92 -15q-73 -12 -101 -33.5t-28 -60.5z" />
<glyph unicode="&#xab;" horiz-adv-x="1247" d="M168 496v145l442 352h29v-164l-322 -247l-51 -4v-19l51 -4l322 -248v-164h-29zM610 496v145l443 352h28v-164l-321 -247l-51 -4v-19l51 -4l321 -248v-164h-28z" />
<glyph unicode="&#xac;" horiz-adv-x="1200" d="M166 487v142h866v-514h-151v372h-715z" />
<glyph unicode="&#xad;" horiz-adv-x="860" d="M168 496v133h526v-133h-526z" />
<glyph unicode="&#xae;" horiz-adv-x="1349" d="M166 942q0 225 141.5 373.5t366.5 148.5q226 0 367 -148t141 -374t-141 -374t-367 -148q-225 0 -366.5 148.5t-141.5 373.5zM264 942q0 -186 113 -310t297 -124q185 0 297 124t112 310t-112 310t-297 124q-184 0 -297 -124t-113 -310zM465 647v608h256q92 0 141 -45 t49 -127q0 -58 -26.5 -101.5t-67.5 -49.5v-6q88 -5 88 -117v-162h-92v154q0 52 -20.5 72t-75.5 20h-158v-246h-94zM559 971h148q112 0 112 102q0 98 -110 98h-150v-200z" />
<glyph unicode="&#xaf;" horiz-adv-x="1040" d="M168 1253v136h706v-136h-706z" />
<glyph unicode="&#xb0;" horiz-adv-x="577" d="M10 1194q0 120 80.5 195t198.5 75t198 -74.5t80 -195.5q0 -119 -80 -194.5t-198 -75.5t-198.5 75.5t-80.5 194.5zM150 1194q0 -62 39 -102.5t100 -40.5t99 40.5t38 102.5q0 63 -38 103t-99 40t-100 -40t-39 -103z" />
<glyph unicode="&#xb1;" horiz-adv-x="1347" d="M147 733v133h426v412h146v-412h426v-133h-426v-414h-146v414h-426zM203 -6v135h997v-135h-997z" />
<glyph unicode="&#xb2;" horiz-adv-x="815" d="M166 999v109q190 113 267 191t77 153q0 42 -26.5 69t-71.5 27q-50 0 -80 -33.5t-31 -91.5h-131q2 103 71 169.5t175 66.5q100 0 162.5 -59.5t62.5 -151.5q0 -47 -19.5 -92t-58 -87t-79.5 -76.5t-99 -74.5h-29v-10h291v-109h-481z" />
<glyph unicode="&#xb3;" horiz-adv-x="845" d="M166 1206h133q0 -51 31.5 -78.5t87.5 -27.5q60 0 94.5 24.5t34.5 67.5q0 92 -131 92h-39v100h39q55 0 81.5 24t26.5 62q0 37 -23.5 58.5t-64.5 21.5q-46 0 -73.5 -24.5t-30.5 -67.5h-131q4 92 69.5 146.5t167.5 54.5q95 0 156 -50t61 -134q0 -41 -20.5 -76.5t-54.5 -50.5 l-29 -2v-9l29 -2q43 -14 70.5 -54.5t27.5 -92.5q0 -89 -70 -143t-184 -54q-112 0 -184.5 59t-73.5 156z" />
<glyph unicode="&#xb4;" horiz-adv-x="681" d="M168 1169v27l170 283h178v-35l-229 -275h-119z" />
<glyph unicode="&#xb5;" horiz-adv-x="1183" d="M166 -428v1421h164v-551q0 -311 270 -311q143 0 207.5 79t64.5 234v549h164v-547q0 -222 -109 -344t-321 -122q-178 0 -276 110v-518h-164z" />
<glyph unicode="&#xb6;" horiz-adv-x="1480" d="M166 995q0 206 128 327.5t324 121.5h697v-154h-164v-1546h-166v1546h-213v-1546h-164v803q-192 0 -317 121t-125 327z" />
<glyph unicode="&#xb7;" horiz-adv-x="550" d="M166 395v215h217v-215h-217z" />
<glyph unicode="&#xb8;" horiz-adv-x="718" d="M166 -387l57 113q52 -35 107 -35q35 0 57.5 17t22.5 52q0 27 -24 45.5t-69 18.5h-16v22l45 174h100l-30 -120q63 -14 100 -55t37 -101q0 -78 -61.5 -128t-153.5 -50t-172 47z" />
<glyph unicode="&#xb9;" horiz-adv-x="729" d="M166 999v107h145v317h-139v105h104q19 0 31 12.5t12 32.5v78h119v-545h125v-107h-397z" />
<glyph unicode="&#xba;" horiz-adv-x="802" d="M84 1116q0 143 87.5 239.5t229.5 96.5q139 0 228.5 -97t89.5 -239q0 -140 -89.5 -237t-228.5 -97q-138 0 -227.5 97t-89.5 237zM203 1116q0 -94 55.5 -157.5t142.5 -63.5t143 64t56 157q0 95 -56 159t-143 64q-88 0 -143 -64t-55 -159z" />
<glyph unicode="&#xbb;" horiz-adv-x="1247" d="M166 143v164l323 248l52 4v19l-52 4l-323 247v164h29l442 -352v-145l-442 -353h-29zM608 143v164l324 248l51 4v19l-51 4l-324 247v164h29l442 -352v-145l-442 -353h-29z" />
<glyph unicode="&#xbc;" horiz-adv-x="1404" d="M166 793v106h145v318h-139v104h104q19 0 31 12.5t12 32.5v78h119v-545h125v-106h-397zM268 0v23l844 1423h109v-25l-844 -1421h-109zM768 135v107q110 107 160.5 210.5t50.5 221.5h125q0 -239 -182 -430h151q20 0 32.5 12.5t12.5 32.5v153h121v-428h-121v121h-350z" />
<glyph unicode="&#xbd;" horiz-adv-x="1511" d="M166 793v106h145v318h-139v104h104q19 0 31 12.5t12 32.5v78h119v-545h125v-106h-397zM268 0v25l844 1421h109v-25l-844 -1421h-109zM862 6v109q189 113 266.5 191.5t77.5 152.5q0 43 -26 70.5t-70 27.5q-51 0 -81 -34t-32 -93h-131q2 104 71.5 171t176.5 67 q99 0 161 -60t62 -153q0 -89 -66.5 -166.5t-187.5 -163.5h-30v-10h290v-109h-481z" />
<glyph unicode="&#xbe;" horiz-adv-x="1468" d="M166 1001h133q0 -52 31.5 -80t87.5 -28q60 0 94.5 25t34.5 69q0 90 -131 90h-39v99h39q55 0 81.5 24t26.5 64q0 37 -23.5 58t-64.5 21q-46 0 -73.5 -24.5t-30.5 -67.5h-131q4 92 69.5 146.5t167.5 54.5q95 0 156 -50t61 -134q0 -41 -20.5 -76.5t-54.5 -50.5l-29 -2v-9 l29 -2q43 -14 70.5 -53.5t27.5 -91.5q0 -90 -70 -144.5t-184 -54.5q-112 0 -184.5 59.5t-73.5 157.5zM332 0v23l844 1421h108v-25l-846 -1419h-106zM829 135v107q110 107 160.5 210.5t50.5 221.5h125q0 -239 -182 -430h152q21 0 33 12t12 33v153h120v-428h-120v121h-351z " />
<glyph unicode="&#xbf;" horiz-adv-x="1245" d="M166 -55q0 76 22.5 140t58.5 110t79.5 87.5t87.5 81t80 81.5t58.5 99t22.5 124h168q0 -78 -22.5 -145t-58.5 -115.5t-79 -92t-86.5 -83.5t-79.5 -81t-58.5 -93t-22.5 -111q0 -96 73 -165t191 -69q151 0 229 79t78 233h170q0 -219 -129 -345t-352 -126q-192 0 -311 115 t-119 276zM551 803v215h217v-215h-217z" />
<glyph unicode="&#xc0;" horiz-adv-x="1400" d="M63 0l545 1444h183l548 -1444h-188l-160 436h-583l-160 -436h-185zM440 1790v35h201l131 -213v-27h-141zM461 580h479l-227 620l-4 62h-17l-4 -62z" />
<glyph unicode="&#xc1;" horiz-adv-x="1400" d="M63 0l545 1444h183l548 -1444h-188l-160 436h-583l-160 -436h-185zM461 580h479l-227 620l-4 62h-17l-4 -62zM627 1585v27l131 213h200v-35l-190 -205h-141z" />
<glyph unicode="&#xc2;" horiz-adv-x="1400" d="M63 0l545 1444h183l548 -1444h-188l-160 436h-583l-160 -436h-185zM397 1585v25l191 215h225l191 -215v-25h-191l-102 150l-4 20h-13l-4 -20l-102 -150h-191zM461 580h479l-227 620l-4 62h-17l-4 -62z" />
<glyph unicode="&#xc3;" horiz-adv-x="1400" d="M63 0l547 1444h181l548 -1444h-188l-160 436h-581l-162 -436h-185zM340 1581q0 109 60.5 175.5t154.5 66.5q47 0 90 -19t69.5 -41.5t57.5 -41.5t57 -19q76 0 76 102h156q0 -107 -60.5 -174t-152.5 -67q-47 0 -90 18.5t-70 41.5t-58.5 41.5t-58.5 18.5q-75 0 -75 -102 h-156zM461 580h477l-225 618l-4 62h-17l-4 -60z" />
<glyph unicode="&#xc4;" horiz-adv-x="1400" d="M63 0l547 1444h181l548 -1444h-188l-158 436h-583l-160 -436h-187zM401 1618v205h193v-205h-193zM461 580h479l-225 618l-4 62h-19l-2 -60zM809 1618v205h192v-205h-192z" />
<glyph unicode="&#xc5;" horiz-adv-x="1400" d="M63 0l547 1444h181l546 -1444h-188l-158 436h-581l-160 -436h-187zM461 580h477l-225 620l-4 62h-17l-4 -62zM461 1819q0 103 69 168t170 65t170.5 -65t69.5 -168q0 -101 -70 -168.5t-170 -67.5t-169.5 67.5t-69.5 168.5zM606 1819q0 -42 27.5 -71.5t66.5 -29.5 q40 0 67.5 30t27.5 71q0 40 -28 70t-67 30t-66.5 -30t-27.5 -70z" />
<glyph unicode="&#xc6;" horiz-adv-x="1914" d="M61 0l629 1444h1096v-158h-768v-465h708v-149h-708v-514h799v-158h-975v438h-391l-183 -438h-207zM512 588h330v770h-17l-10 -45z" />
<glyph unicode="&#xc7;" horiz-adv-x="1536" d="M98 721q0 153 47.5 288t134 236.5t217.5 160t289 58.5q131 0 242.5 -41.5t190 -115t128.5 -173t66 -216.5h-178q-30 172 -148 279.5t-301 107.5q-121 0 -218.5 -46.5t-160 -127t-95.5 -184.5t-33 -222q0 -121 33 -226.5t95.5 -186t160 -127t218.5 -46.5q193 0 319 107 t152 293h181q-31 -237 -189 -387t-395 -170l-23 -88q59 -18 94.5 -57.5t35.5 -96.5q0 -82 -64.5 -131t-161.5 -49q-96 0 -168 39l64 129q48 -29 92 -29q37 0 59.5 15.5t22.5 43.5q0 27 -24 43.5t-72 16.5h-17v26l39 138q-194 14 -339.5 117t-219.5 264.5t-74 357.5z" />
<glyph unicode="&#xc8;" horiz-adv-x="1251" d="M182 0v1444h944v-158h-768v-465h709v-149h-709v-514h799v-158h-975zM403 1790v35h203l131 -213v-27h-141z" />
<glyph unicode="&#xc9;" horiz-adv-x="1251" d="M182 0v1444h944v-158h-768v-465h709v-149h-709v-514h799v-158h-975zM588 1585v27l131 213h203v-35l-193 -205h-141z" />
<glyph unicode="&#xca;" horiz-adv-x="1251" d="M182 0v1444h944v-158h-768v-465h709v-149h-709v-514h799v-158h-975zM362 1585v25l191 215h225l191 -215v-25h-191l-102 150l-4 20h-13l-4 -20l-102 -150h-191z" />
<glyph unicode="&#xcb;" horiz-adv-x="1251" d="M182 0v1444h944v-158h-768v-465h709v-149h-709v-514h799v-158h-975zM365 1618v205h192v-205h-192zM772 1618v205h193v-205h-193z" />
<glyph unicode="&#xcc;" horiz-adv-x="534" d="M8 1790v35h203l131 -213v-27h-141zM180 2v1444h176v-1444h-176z" />
<glyph unicode="&#xcd;" horiz-adv-x="534" d="M180 2v1444h176v-1444h-176zM193 1585v27l131 213h202v-35l-192 -205h-141z" />
<glyph unicode="&#xce;" horiz-adv-x="534" d="M-33 1585v25l191 215h225l190 -215v-25h-190l-102 150l-5 20h-12l-4 -20l-102 -150h-191zM180 2v1444h176v-1444h-176z" />
<glyph unicode="&#xcf;" horiz-adv-x="534" d="M-31 1618v205h193v-205h-193zM180 0v1444h176v-1444h-176zM377 1618v205h192v-205h-192z" />
<glyph unicode="&#xd0;" horiz-adv-x="1456" d="M-104 682v125h284v637h477q337 0 520 -189t183 -526q0 -341 -183.5 -535t-519.5 -194h-477v682h-284zM356 158h299q523 0 523 571q0 557 -521 557h-301v-479h428v-125h-428v-524z" />
<glyph unicode="&#xd1;" horiz-adv-x="1533" d="M180 0v1444h223l752 -1182l8 -69h17v1251h176v-1444h-223l-754 1184l-6 55h-17v-1239h-176zM410 1581q0 109 60 175.5t155 66.5q46 0 88.5 -19t69 -41.5t57.5 -41.5t57 -19q76 0 76 102h155q0 -108 -60 -174.5t-153 -66.5q-47 0 -90.5 18.5t-70 41.5t-58 41.5t-57.5 18.5 q-35 0 -55.5 -25.5t-20.5 -76.5h-153z" />
<glyph unicode="&#xd2;" d="M98 721q0 214 80.5 381.5t237.5 264.5t368 97t368 -97t237.5 -264.5t80.5 -381.5t-80.5 -381t-237.5 -263.5t-368 -96.5t-368 96.5t-237.5 263.5t-80.5 381zM281 719q0 -168 55.5 -297t171 -206t276.5 -77q162 0 278 77t172 206.5t56 296.5q0 170 -56.5 301t-172 208 t-277.5 77q-241 0 -372 -162.5t-131 -423.5zM524 1790v35h203l129 -213v-27h-139z" />
<glyph unicode="&#xd3;" d="M98 721q0 214 80.5 381.5t237.5 264.5t368 97t368 -97t237.5 -264.5t80.5 -381.5t-80.5 -381t-237.5 -263.5t-368 -96.5t-368 96.5t-237.5 263.5t-80.5 381zM281 719q0 -168 55.5 -297t171 -206t276.5 -77q162 0 278 77t172 206.5t56 296.5q0 170 -56.5 301t-172 208 t-277.5 77q-241 0 -372 -162.5t-131 -423.5zM711 1585v27l129 213h202v-35l-192 -205h-139z" />
<glyph unicode="&#xd4;" d="M98 721q0 214 80.5 381.5t237.5 264.5t368 97t368 -97t237.5 -264.5t80.5 -381.5t-80.5 -381t-237.5 -263.5t-368 -96.5t-368 96.5t-237.5 263.5t-80.5 381zM281 719q0 -168 55.5 -297t171 -206t276.5 -77q162 0 278 77t172 206.5t56 296.5q0 170 -56.5 301t-172 208 t-277.5 77q-241 0 -372 -162.5t-131 -423.5zM483 1585v25l191 215h223l190 -215v-25h-190l-100 150l-4 20h-15l-4 -20l-100 -150h-191z" />
<glyph unicode="&#xd5;" d="M98 721q0 214 80 381t237 264.5t369 97.5q211 0 368 -97t237.5 -264.5t80.5 -381.5t-80.5 -381t-237.5 -263.5t-368 -96.5q-212 0 -369 97t-237 263.5t-80 380.5zM279 719q0 -168 56 -297t172 -206t277 -77q122 0 219.5 44t159.5 122.5t94.5 183.5t32.5 230 q0 171 -56 301.5t-171.5 207.5t-278.5 77q-162 0 -277.5 -77t-171.5 -208t-56 -301zM426 1581q0 109 60 175.5t153 66.5q47 0 90 -19t69.5 -41.5t57.5 -41.5t57 -19q36 0 57 25.5t21 76.5h154q0 -108 -60 -174.5t-153 -66.5q-47 0 -90.5 18.5t-70.5 41.5t-58.5 41.5 t-57.5 18.5q-75 0 -75 -102h-154z" />
<glyph unicode="&#xd6;" d="M98 721q0 214 80.5 381.5t237.5 264.5t368 97t368 -97t237.5 -264.5t80.5 -381.5t-80.5 -381t-237.5 -263.5t-368 -96.5t-368 96.5t-237.5 263.5t-80.5 381zM279 719q0 -168 56 -297t172 -206t277 -77q162 0 278 77t172 206.5t56 296.5q0 171 -56 301.5t-171.5 207.5 t-278.5 77q-162 0 -277.5 -77t-171.5 -208t-56 -301zM485 1618v205h193v-205h-193zM893 1618v205h192v-205h-192z" />
<glyph unicode="&#xd7;" horiz-adv-x="1138" d="M145 233l326 324l-326 324l99 98l323 -324l326 326l98 -98l-325 -326l327 -326l-98 -98l-328 328l-323 -326z" />
<glyph unicode="&#xd8;" d="M98 721q0 214 80.5 381.5t237.5 264.5t368 97q213 0 369 -98l55 78h181l-121 -168q98 -101 150 -243.5t52 -311.5q0 -214 -80.5 -381t-237.5 -263.5t-368 -96.5q-207 0 -368 96l-54 -76h-180l119 168q-98 100 -150.5 242t-52.5 311zM281 719q0 -256 122 -408l654 920 q-117 74 -273 74q-241 0 -372 -162.5t-131 -423.5zM512 213q117 -74 272 -74q162 0 278 77t172 206.5t56 296.5q0 255 -125 414z" />
<glyph unicode="&#xd9;" horiz-adv-x="1425" d="M139 586v860h174v-860q0 -234 103.5 -340.5t298.5 -106.5q399 0 399 447v860h174v-860q0 -300 -153 -453t-420 -153q-270 0 -423 152t-153 454zM453 1790v35h202l129 -213v-27h-139z" />
<glyph unicode="&#xda;" horiz-adv-x="1425" d="M139 586v860h174v-860q0 -234 103.5 -340.5t298.5 -106.5q399 0 399 447v860h174v-860q0 -300 -153 -453t-420 -153q-270 0 -423 152t-153 454zM639 1585v27l129 213h203v-35l-193 -205h-139z" />
<glyph unicode="&#xdb;" horiz-adv-x="1425" d="M139 586v860h174v-860q0 -234 103.5 -340.5t298.5 -106.5q399 0 399 447v860h174v-860q0 -300 -153 -453t-420 -153q-270 0 -423 152t-153 454zM412 1585v25l190 215h225l189 -215v-25h-189l-102 150l-4 20h-14l-5 -20l-100 -150h-190z" />
<glyph unicode="&#xdc;" horiz-adv-x="1425" d="M139 586v858h174v-858q0 -234 103.5 -340.5t298.5 -106.5q399 0 399 447v858h174v-858q0 -300 -153 -453t-420 -153q-270 0 -423 152t-153 454zM414 1618v205h192v-205h-192zM821 1618v205h193v-205h-193z" />
<glyph unicode="&#xdd;" horiz-adv-x="1263" d="M16 1446h205l395 -645l7 -51h16l6 47l395 649h205l-526 -844v-600h-174v598zM557 1585v27l131 213h203v-35l-193 -205h-141z" />
<glyph unicode="&#xde;" horiz-adv-x="1251" d="M180 0v1446h174v-264h340q238 0 368 -120.5t130 -336.5q0 -218 -130 -339.5t-368 -121.5h-340v-264h-174zM354 424h336q159 0 240.5 77t81.5 224q0 143 -82 221t-240 78h-336v-600z" />
<glyph unicode="&#xdf;" horiz-adv-x="1155" d="M166 0v1096q0 166 95.5 258t250.5 92h68q138 0 224.5 -70t86.5 -176q0 -38 -15.5 -83.5t-32 -76.5t-48.5 -84q-60 -94 -60 -153q0 -36 20 -69.5t42 -53.5t67 -55q47 -38 72.5 -62t59 -65t48.5 -88t15 -103q0 -143 -111.5 -225t-329.5 -82h-151v143h147q142 0 209.5 46 t67.5 128q0 32 -11 61t-37 59.5t-45 48.5t-59 53q-42 36 -64.5 57t-50.5 55t-40.5 70t-12.5 78q0 39 22 96.5t52 105.5q32 53 43.5 73.5t24 52.5t12.5 57q0 53 -43.5 84.5t-130.5 31.5h-23q-96 0 -147 -46.5t-51 -135.5v-1118h-164z" />
<glyph unicode="&#xe0;" horiz-adv-x="1081" d="M98 266q0 121 78 196t232 95l311 41q25 3 39 18.5t14 38.5v19q0 95 -61 147.5t-170 52.5q-110 0 -179 -51.5t-69 -138.5h-164q0 140 117.5 233t296.5 93q190 0 291.5 -94t101.5 -269v-647h-156v176q-38 -90 -134 -143t-220 -53q-140 0 -234 81.5t-94 204.5zM262 287 q0 -75 53 -119.5t148 -44.5q141 0 229 82t88 209v84q-21 -17 -125 -31l-219 -27q-174 -21 -174 -153zM309 1444v35h180l168 -283v-27h-118z" />
<glyph unicode="&#xe1;" horiz-adv-x="1081" d="M98 266q0 121 78 196t232 95l311 41q25 3 39 18.5t14 38.5v19q0 95 -61 147.5t-170 52.5q-110 0 -179 -51.5t-69 -138.5h-164q0 140 117.5 233t296.5 93q190 0 291.5 -94t101.5 -269v-647h-156v176q-38 -90 -134 -143t-220 -53q-140 0 -234 81.5t-94 204.5zM262 287 q0 -75 53 -119.5t148 -44.5q141 0 229 82t88 209v84q-21 -17 -125 -31l-219 -27q-174 -21 -174 -153zM432 1169v27l168 283h180v-35l-229 -275h-119z" />
<glyph unicode="&#xe2;" horiz-adv-x="1081" d="M98 266q0 121 78 196t232 95l311 41q25 3 39 18.5t14 38.5v19q0 95 -61 147.5t-170 52.5q-110 0 -179 -51.5t-69 -138.5h-164q0 140 117.5 233t296.5 93q190 0 291.5 -94t101.5 -269v-647h-156v176q-38 -90 -134 -143t-220 -53q-140 0 -234 81.5t-94 204.5zM215 1169v33 l227 277h203l229 -277v-33h-157l-164 220l-4 22h-8l-4 -22l-162 -220h-160zM262 287q0 -75 53 -119.5t148 -44.5q141 0 229 82t88 209v84q-21 -17 -125 -31l-219 -27q-174 -21 -174 -153z" />
<glyph unicode="&#xe3;" horiz-adv-x="1081" d="M98 266q0 121 78 196t232 95l313 41q23 3 37 18.5t14 38.5v19q0 95 -60.5 147.5t-168.5 52.5q-112 0 -181 -51.5t-69 -138.5h-164q0 140 117.5 233t296.5 93q189 0 291 -94t102 -269v-647h-156v176q-38 -89 -133.5 -142.5t-218.5 -53.5q-141 0 -235.5 81.5t-94.5 204.5z M162 1225q0 109 55.5 172t153.5 63q51 0 103.5 -21.5t88.5 -48t76.5 -48t69.5 -21.5q37 0 57 26.5t20 75.5h140q0 -108 -56 -169.5t-155 -61.5q-48 0 -100 21.5t-88 48t-77.5 48t-70.5 21.5q-37 0 -57.5 -27.5t-20.5 -78.5h-139zM262 287q0 -75 53 -119.5t148 -44.5 q143 0 230 81.5t87 209.5v84q-21 -17 -125 -31l-219 -27q-174 -21 -174 -153z" />
<glyph unicode="&#xe4;" horiz-adv-x="1081" d="M98 266q0 121 78 196t232 95l313 41q23 3 37 18.5t14 38.5v19q0 95 -60 147.5t-169 52.5q-112 0 -181 -51.5t-69 -138.5h-164q0 140 117.5 233t296.5 93q190 0 291.5 -94t101.5 -269v-647h-156v176q-38 -90 -134 -143t-220 -53q-140 0 -234 81.5t-94 204.5zM262 287 q0 -75 53 -119.5t148 -44.5q143 0 230 81.5t87 209.5v84q-21 -17 -125 -31l-219 -27q-174 -21 -174 -153zM291 1231v213h172v-213h-172zM627 1231v213h172v-213h-172z" />
<glyph unicode="&#xe5;" horiz-adv-x="1081" d="M98 266q0 121 78.5 196t233.5 95l311 41q23 3 37 18.5t14 38.5v19q0 95 -60 147.5t-169 52.5q-110 0 -180 -51.5t-70 -138.5h-164q0 140 117.5 233t298.5 93q189 0 290 -94t101 -269v-647h-156v176q-37 -89 -133 -142.5t-219 -53.5q-141 0 -235.5 81.5t-94.5 204.5z M262 287q0 -75 53 -119.5t150 -44.5q141 0 228 82t87 209v84q-21 -17 -125 -31l-217 -27q-176 -21 -176 -153zM328 1380q0 93 62.5 151t154.5 58q91 0 153 -58t62 -151t-62 -151t-153 -58q-92 0 -154.5 58t-62.5 151zM451 1380q0 -41 26.5 -68.5t67.5 -27.5q40 0 67 27.5 t27 68.5t-27 69t-67 28q-41 0 -67.5 -27.5t-26.5 -69.5z" />
<glyph unicode="&#xe6;" horiz-adv-x="1789" d="M98 260q0 124 74.5 197t233.5 96l325 45q19 1 31 14.5t12 32.5v23q0 96 -64.5 149t-183.5 53q-107 0 -170 -51t-63 -139h-164q0 142 111 236t284 94q127 0 220 -48.5t141 -134.5q62 88 155 135.5t207 47.5q201 0 324 -133.5t123 -350.5q0 -61 -6 -73h-744 q0 -140 86.5 -233t222.5 -93q110 0 179 48.5t90 135.5h166q-36 -153 -148.5 -242t-279.5 -89q-124 0 -227.5 58t-168.5 161q-57 -106 -164.5 -162.5t-255.5 -56.5q-150 0 -248 80t-98 200zM262 276q0 -65 50 -107t143 -42q153 0 239 82t86 225v51q-18 -7 -131 -22l-213 -31 q-174 -25 -174 -156zM948 575h580q0 127 -79 207t-204 80t-208 -80t-89 -207z" />
<glyph unicode="&#xe7;" horiz-adv-x="1142" d="M98 496q0 225 138 370.5t354 145.5q179 0 297 -100.5t141 -270.5h-168q-17 102 -89.5 161.5t-180.5 59.5q-151 0 -237.5 -101.5t-86.5 -264.5q0 -155 92 -261t232 -106q113 0 193.5 65t105.5 175h166q-25 -157 -137.5 -263.5t-272.5 -123.5l-20 -82q62 -14 98.5 -55 t36.5 -101q0 -78 -61.5 -128t-153.5 -50q-90 0 -170 47l57 113q52 -35 105 -35q79 0 79 69q0 27 -23 45.5t-67 18.5h-16v22l35 136q-132 11 -234.5 82.5t-157.5 184t-55 247.5z" />
<glyph unicode="&#xe8;" horiz-adv-x="1124" d="M98 494q0 226 132.5 371t338.5 145q205 0 332 -134t127 -352q0 -53 -6 -71h-756q0 -138 92.5 -234t221.5 -96q114 0 187 49t93 139h164q-34 -155 -151.5 -243t-292.5 -88q-206 0 -344 146t-138 368zM270 573h592q0 130 -81 211.5t-208 81.5q-128 0 -212.5 -81.5 t-90.5 -211.5zM334 1444v35h180l170 -283v-27h-119z" />
<glyph unicode="&#xe9;" horiz-adv-x="1124" d="M98 494q0 226 132.5 371t338.5 145q205 0 332 -134t127 -352q0 -53 -6 -71h-756q0 -138 92.5 -234t221.5 -96q114 0 187 49t93 139h164q-34 -155 -151.5 -243t-292.5 -88q-206 0 -344 146t-138 368zM270 573h592q0 130 -81 211.5t-208 81.5q-128 0 -212.5 -81.5 t-90.5 -211.5zM455 1169v27l170 283h180v-35l-232 -275h-118z" />
<glyph unicode="&#xea;" horiz-adv-x="1124" d="M98 494q0 226 132.5 371t338.5 145q205 0 332 -134t127 -352q0 -53 -6 -71h-756q0 -138 92.5 -234t221.5 -96q114 0 187 49t93 139h164q-34 -155 -151.5 -243t-292.5 -88q-206 0 -344 146t-138 368zM240 1169v33l229 277h203l227 -277v-33h-158l-161 220l-5 22h-10 l-4 -22l-162 -220h-159zM270 573h592q0 130 -81 211.5t-208 81.5q-128 0 -212.5 -81.5t-90.5 -211.5z" />
<glyph unicode="&#xeb;" horiz-adv-x="1124" d="M98 494q0 226 132 371t339 145q205 0 332 -134t127 -352q0 -53 -6 -71h-756q0 -138 91.5 -234t220.5 -96q114 0 188 49.5t94 138.5h164q-34 -155 -151.5 -243t-292.5 -88q-207 0 -344.5 146t-137.5 368zM270 573h592q0 130 -81.5 211.5t-209.5 81.5t-211.5 -81.5 t-89.5 -211.5zM319 1231v213h170v-213h-170zM653 1231v213h170v-213h-170z" />
<glyph unicode="&#xec;" horiz-adv-x="497" d="M12 1444v35h178l170 -283v-27h-118zM166 0v993h164v-993h-164z" />
<glyph unicode="&#xed;" horiz-adv-x="497" d="M135 1169v27l170 283h178v-35l-229 -275h-119zM166 0v993h164v-993h-164z" />
<glyph unicode="&#xee;" horiz-adv-x="497" d="M-84 1169v33l229 277h203l230 -277v-33h-158l-164 220l-4 22h-8l-4 -22l-164 -220h-160zM166 0v993h164v-993h-164z" />
<glyph unicode="&#xef;" horiz-adv-x="497" d="M-4 1231v213h172v-213h-172zM166 0v993h164v-993h-164zM332 1231v213h172v-213h-172z" />
<glyph unicode="&#xf0;" horiz-adv-x="1187" d="M98 475q0 218 132 357t331 139q98 0 189.5 -38.5t144.5 -111.5q-18 172 -141 301l-295 -73v92l213 53q-113 81 -262 115l43 139q245 -61 395 -211l266 68v-95l-199 -49q166 -220 166 -604q0 -265 -137.5 -421t-370.5 -156q-203 0 -339 138.5t-136 356.5zM266 475 q0 -157 89 -249.5t235 -92.5q136 0 228.5 99.5t92.5 250.5v21q0 135 -91 224t-230 89q-144 0 -234 -93.5t-90 -248.5z" />
<glyph unicode="&#xf1;" horiz-adv-x="1193" d="M166 2v993h156v-159q53 85 142 130.5t195 45.5q180 0 285 -118.5t105 -328.5v-563h-164v553q0 153 -67 230t-189 77q-138 0 -218.5 -89t-80.5 -243v-528h-164zM231 1225q0 109 56.5 172t154.5 63q51 0 103.5 -21.5t88.5 -48t76.5 -48t69.5 -21.5q37 0 57.5 26.5 t20.5 75.5h139q0 -108 -56 -169.5t-155 -61.5q-48 0 -99.5 21.5t-88 48t-77.5 48t-70 21.5q-37 0 -58.5 -28t-21.5 -78h-140z" />
<glyph unicode="&#xf2;" horiz-adv-x="1175" d="M98 496q0 226 133 371t359 145q219 0 353 -145.5t134 -370.5q0 -224 -134 -370t-353 -146q-221 0 -356.5 146.5t-135.5 369.5zM266 496q0 -158 88.5 -262.5t235.5 -104.5q144 0 231.5 104.5t87.5 262.5t-87 262t-232 104q-149 0 -236.5 -104t-87.5 -262zM354 1446v35h181 l170 -283v-27h-121z" />
<glyph unicode="&#xf3;" horiz-adv-x="1175" d="M98 496q0 226 133 371t359 145q219 0 353 -145.5t134 -370.5q0 -224 -134 -370t-353 -146q-221 0 -356.5 146.5t-135.5 369.5zM266 496q0 -158 88.5 -262.5t235.5 -104.5q144 0 231.5 104.5t87.5 262.5t-87 262t-232 104q-149 0 -236.5 -104t-87.5 -262zM475 1171v27 l170 283h180v-35l-229 -275h-121z" />
<glyph unicode="&#xf4;" horiz-adv-x="1175" d="M98 496q0 226 133 371t359 145q219 0 353 -145.5t134 -370.5q0 -224 -134 -370t-353 -146q-221 0 -356.5 146.5t-135.5 369.5zM260 1171v33l229 277h203l228 -277v-33h-158l-164 220l-4 22h-8l-4 -22l-162 -220h-160zM266 496q0 -158 88.5 -262.5t235.5 -104.5 q144 0 231.5 104.5t87.5 262.5t-87 262t-232 104q-149 0 -236.5 -104t-87.5 -262z" />
<glyph unicode="&#xf5;" horiz-adv-x="1175" d="M98 496q0 226 133 371t359 145q219 0 353 -145.5t134 -370.5q0 -224 -134 -370t-353 -146q-221 0 -356.5 146.5t-135.5 369.5zM209 1225q0 109 55 172t152 63q42 0 84.5 -14.5t76 -35t64 -40.5t61 -34.5t54.5 -14.5q37 0 57.5 26.5t20.5 75.5h139q0 -108 -56 -169.5 t-155 -61.5q-48 0 -100 21.5t-89 48t-78.5 48t-70.5 21.5q-36 0 -56 -27.5t-20 -78.5h-139zM266 496q0 -158 88 -262.5t236 -104.5q146 0 232.5 104.5t86.5 262.5t-86.5 262t-232.5 104q-149 0 -236.5 -104t-87.5 -262z" />
<glyph unicode="&#xf6;" horiz-adv-x="1175" d="M98 496q0 226 133 371t359 145q219 0 353 -145.5t134 -370.5q0 -224 -134 -370t-353 -146q-221 0 -356.5 146.5t-135.5 369.5zM266 496q0 -158 88 -262.5t236 -104.5q144 0 231.5 104.5t87.5 262.5t-87 262t-232 104q-150 0 -237 -103.5t-87 -262.5zM338 1231v213h172 v-213h-172zM672 1231v213h172v-213h-172z" />
<glyph unicode="&#xf7;" horiz-adv-x="1290" d="M147 492v133h998v-133h-998zM537 166v215h217v-215h-217zM537 743v215h217v-215h-217z" />
<glyph unicode="&#xf8;" horiz-adv-x="1175" d="M98 496q0 226 133 371t359 145q151 0 272 -78l45 61h137l-100 -129q133 -149 133 -370q0 -224 -134 -370t-353 -146q-156 0 -275 77l-43 -57h-137l98 127q-135 144 -135 369zM266 496q0 -140 70 -238l428 551q-71 53 -174 53q-149 0 -236.5 -104t-87.5 -262zM412 182 q74 -53 178 -53q144 0 231.5 104.5t87.5 262.5q0 140 -69 237z" />
<glyph unicode="&#xf9;" horiz-adv-x="1163" d="M145 440v555h164v-555q0 -309 271 -309q144 0 209 79.5t65 233.5v551h164v-549q0 -222 -109.5 -344t-326.5 -122q-215 0 -326 124t-111 336zM344 1444v37h178l170 -285v-27h-119z" />
<glyph unicode="&#xfa;" horiz-adv-x="1163" d="M145 440v555h164v-555q0 -309 271 -309q144 0 209 79.5t65 233.5v551h164v-549q0 -222 -109.5 -344t-326.5 -122q-215 0 -326 124t-111 336zM467 1169v27l170 285h178v-37l-229 -275h-119z" />
<glyph unicode="&#xfb;" horiz-adv-x="1163" d="M145 440v555h164v-555q0 -309 271 -309q144 0 209 79.5t65 233.5v551h164v-549q0 -222 -109.5 -344t-326.5 -122q-215 0 -326 124t-111 336zM248 1169v35l229 277h205l229 -277v-35h-159l-164 222l-4 20h-9l-4 -20l-163 -222h-160z" />
<glyph unicode="&#xfc;" horiz-adv-x="1163" d="M145 440v553h164v-553q0 -309 271 -309q144 0 209 79.5t65 233.5v549h164v-547q0 -222 -109.5 -344t-326.5 -122q-215 0 -326 124t-111 336zM328 1231v213h172v-213h-172zM662 1231v213h172v-213h-172z" />
<glyph unicode="&#xfd;" horiz-adv-x="1007" d="M37 993h180l281 -807l297 807h178l-455 -1155q-51 -128 -135.5 -188t-212.5 -60q-57 0 -119 4l6 144h105q81 0 130 35t85 123l35 86zM383 1169v25l170 285h180v-37l-229 -273h-121z" />
<glyph unicode="&#xfe;" horiz-adv-x="1243" d="M166 -410v1856h164v-625q56 89 147.5 140t200.5 51q200 0 334.5 -148.5t134.5 -367.5q0 -145 -59 -262.5t-168 -185.5t-248 -68q-107 0 -198 49.5t-144 134.5v-574h-164zM332 489q0 -156 91.5 -258t235.5 -102q140 0 231 102.5t91 264.5q0 161 -88.5 263.5t-226.5 102.5 t-236 -102t-98 -250v-21z" />
<glyph unicode="&#xff;" horiz-adv-x="1007" d="M37 993h178l283 -807l295 807h180l-457 -1155q-51 -128 -135 -188t-211 -60q-57 0 -119 4l6 144h105q81 0 129.5 35t83.5 123l35 86zM244 1231v213h172v-213h-172zM580 1231v213h172v-213h-172z" />
<glyph unicode="&#x152;" horiz-adv-x="2222" d="M98 719q0 214 80.5 381.5t237.5 265.5t368 98t369 -102v84h942v-158h-768v-465h709v-149h-709v-514h799v-158h-973v76q-156 -101 -369 -101q-212 0 -369 97t-237 264t-80 381zM276 719q0 -167 57 -296t173.5 -205.5t279.5 -76.5q227 0 367 140v880q-156 139 -367 139 q-162 0 -279 -77t-174 -207t-57 -297z" />
<glyph unicode="&#x153;" horiz-adv-x="1941" d="M98 496q0 148 58 265t171 185t263 68q134 0 239.5 -58t169.5 -161q63 100 163 156.5t224 56.5q205 0 331 -134.5t126 -353.5q0 -53 -6 -71h-756q1 -139 93.5 -234.5t222.5 -95.5q114 0 186.5 49.5t91.5 138.5h166q-34 -155 -151.5 -243.5t-292.5 -88.5q-126 0 -231 58.5 t-169 161.5q-64 -100 -169 -156.5t-238 -56.5q-221 0 -356.5 145.5t-135.5 368.5zM266 496q0 -158 88.5 -261.5t235.5 -103.5q145 0 233 104t88 261t-88 261.5t-233 104.5q-149 0 -236.5 -104t-87.5 -262zM1087 569h590q0 130 -80 212.5t-206 82.5q-128 0 -213 -82.5 t-91 -212.5z" />
<glyph unicode="&#x178;" horiz-adv-x="1263" d="M16 1444h205l395 -645l7 -51h16l6 47l395 649h205l-526 -844v-600h-174v598zM332 1618v205h190v-205h-190zM739 1618v205h191v-205h-191z" />
<glyph unicode="&#x2c6;" horiz-adv-x="993" d="M168 1169v33l227 277h205l227 -277v-33h-157l-164 220l-4 22h-8l-5 -22l-163 -220h-158z" />
<glyph unicode="&#x2dc;" horiz-adv-x="1097" d="M166 1225q0 109 56 172t153 63q42 0 84.5 -14.5t76 -35t64 -40.5t61 -34.5t54.5 -14.5q37 0 57.5 26.5t20.5 75.5h139q0 -108 -56 -169.5t-155 -61.5q-48 0 -100 21.5t-89 48t-78.5 48t-70.5 21.5q-36 0 -57 -28t-21 -78h-139z" />
<glyph unicode="&#x2000;" horiz-adv-x="1026" />
<glyph unicode="&#x2001;" horiz-adv-x="2052" />
<glyph unicode="&#x2002;" horiz-adv-x="1026" />
<glyph unicode="&#x2003;" horiz-adv-x="2052" />
<glyph unicode="&#x2004;" horiz-adv-x="684" />
<glyph unicode="&#x2005;" horiz-adv-x="513" />
<glyph unicode="&#x2006;" horiz-adv-x="342" />
<glyph unicode="&#x2007;" horiz-adv-x="342" />
<glyph unicode="&#x2008;" horiz-adv-x="256" />
<glyph unicode="&#x2009;" horiz-adv-x="410" />
<glyph unicode="&#x200a;" horiz-adv-x="114" />
<glyph unicode="&#x2010;" horiz-adv-x="942" d="M168 496v133h608v-133h-608z" />
<glyph unicode="&#x2011;" horiz-adv-x="942" d="M168 496v133h608v-133h-608z" />
<glyph unicode="&#x2012;" horiz-adv-x="942" d="M168 496v133h608v-133h-608z" />
<glyph unicode="&#x2013;" horiz-adv-x="1200" d="M166 487v142h866v-142h-866z" />
<glyph unicode="&#x2014;" horiz-adv-x="2207" d="M166 487v142h1874v-142h-1874z" />
<glyph unicode="&#x2018;" horiz-adv-x="444" d="M106 958v195l107 291h121l-84 -240q-10 -30 22 -30h64v-216h-230z" />
<glyph unicode="&#x2019;" horiz-adv-x="385" d="M109 1229v215h229v-195l-109 -291h-118l82 240q5 14 -1.5 22.5t-21.5 8.5h-61z" />
<glyph unicode="&#x201a;" horiz-adv-x="561" d="M166 0v215h229v-195l-108 -292h-119l82 241q5 14 -1.5 22.5t-21.5 8.5h-61z" />
<glyph unicode="&#x201c;" horiz-adv-x="765" d="M106 958v195l107 291h121l-84 -240q-10 -30 22 -30h64v-216h-230zM430 958v195l107 291h120l-84 -240q-5 -14 1.5 -22t21.5 -8h63v-216h-229z" />
<glyph unicode="&#x201d;" horiz-adv-x="708" d="M109 1229v215h227v-195l-107 -291h-118l82 240q5 14 -1.5 22.5t-21.5 8.5h-61zM432 1229v215h227v-195l-106 -291h-119l82 240q5 14 -1 22.5t-21 8.5h-62z" />
<glyph unicode="&#x201e;" horiz-adv-x="888" d="M166 0v215h229v-195l-108 -292h-119l82 241q5 14 -1.5 22.5t-21.5 8.5h-61zM494 0v215h229v-195l-109 -292h-118l82 241q5 14 -1.5 22.5t-21.5 8.5h-61z" />
<glyph unicode="&#x2022;" horiz-adv-x="1159" d="M248 664q0 141 96 236t236 95q141 0 236 -95t95 -236q0 -140 -95 -236t-236 -96q-140 0 -236 96t-96 236z" />
<glyph unicode="&#x2026;" horiz-adv-x="1650" d="M166 0v215h217v-215h-217zM717 0v215h217v-215h-217zM1268 0v215h217v-215h-217z" />
<glyph unicode="&#x202f;" horiz-adv-x="410" />
<glyph unicode="&#x2039;" horiz-adv-x="804" d="M168 496v145l442 352h29v-164l-322 -247l-51 -4v-19l51 -4l322 -248v-164h-29z" />
<glyph unicode="&#x203a;" horiz-adv-x="804" d="M166 143v164l323 248l52 4v19l-52 4l-323 247v164h29l442 -352v-145l-442 -353h-29z" />
<glyph unicode="&#x205f;" horiz-adv-x="513" />
<glyph unicode="&#x20ac;" horiz-adv-x="1323" d="M96 721q0 345 161.5 545t440.5 200q206 0 340 -117.5t164 -306.5h-176q-27 129 -115 197t-211 68q-162 0 -266.5 -100t-142.5 -279h594v-125h-611q-4 -54 -4 -80q0 -32 4 -86h609v-125h-592q36 -177 135.5 -275t257.5 -98q155 0 250.5 79.5t112.5 227.5h178 q-21 -154 -97.5 -260.5t-189 -156t-254.5 -49.5q-273 0 -430.5 190t-157.5 551z" />
<glyph unicode="&#x2122;" horiz-adv-x="1398" d="M84 1346v98h448v-98h-170v-480h-110v480h-168zM614 866v578h179l127 -428l2 -37h8l2 37l125 428h176v-578h-109v490h-6l-2 -21l-137 -469h-111l-137 469l-2 21h-6v-490h-109z" />
<glyph unicode="&#x25fc;" horiz-adv-x="993" d="M0 0v993h993v-993h-993z" />
</font>
</defs>
</svg>
